<mxfile host="app.diagrams.net" modified="2022-11-01T16:18:46.082Z" agent="5.0 (Macintosh; Intel Mac OS X 10_15_7) AppleWebKit/537.36 (KHTML, like Gecko) Chrome/106.0.0.0 Safari/537.36" etag="Pc-g3wChcHwQ7-0tMC0k" version="20.4.0" type="github">
  <diagram id="tM3bY4V2VyqjAo--8nE5" name="Page-1">
    <mxGraphModel dx="2951" dy="1619" grid="1" gridSize="10" guides="1" tooltips="1" connect="1" arrows="1" fold="1" page="1" pageScale="1" pageWidth="850" pageHeight="1100" math="0" shadow="0">
      <root>
        <mxCell id="0" />
        <mxCell id="1" parent="0" />
        <mxCell id="DZ-_d3KtzLlh04xcQ-5O-19" value="" style="group" vertex="1" connectable="0" parent="1">
          <mxGeometry x="660" y="400" width="175" height="120" as="geometry" />
        </mxCell>
        <mxCell id="DZ-_d3KtzLlh04xcQ-5O-23" value="" style="group" vertex="1" connectable="0" parent="DZ-_d3KtzLlh04xcQ-5O-19">
          <mxGeometry width="175" height="120" as="geometry" />
        </mxCell>
        <mxCell id="DZ-_d3KtzLlh04xcQ-5O-2" value="&lt;font style=&quot;font-size: 10px;&quot;&gt;&lt;br&gt;&lt;br&gt;Hosted ETH Node&lt;br&gt;RPC Provider&lt;/font&gt;" style="ellipse;shape=cloud;whiteSpace=wrap;html=1;" vertex="1" parent="DZ-_d3KtzLlh04xcQ-5O-23">
          <mxGeometry width="175" height="120" as="geometry" />
        </mxCell>
        <mxCell id="DZ-_d3KtzLlh04xcQ-5O-18" value="" style="shape=image;verticalLabelPosition=bottom;labelBackgroundColor=default;verticalAlign=top;aspect=fixed;imageAspect=0;image=https://assets-global.website-files.com/5f973c970bea5548ad4287ef/6088f4c7c34ad61ab10cdf72_horizontal-logo-onecolor-neutral-alchemy.svg;" vertex="1" parent="DZ-_d3KtzLlh04xcQ-5O-23">
          <mxGeometry x="40.64999999999998" y="40" width="93.69" height="20" as="geometry" />
        </mxCell>
        <mxCell id="DZ-_d3KtzLlh04xcQ-5O-27" value="" style="group" vertex="1" connectable="0" parent="1">
          <mxGeometry x="370" y="630" width="120" height="80" as="geometry" />
        </mxCell>
        <mxCell id="DZ-_d3KtzLlh04xcQ-5O-25" value="Blind Auction Winner Contract" style="rounded=0;whiteSpace=wrap;html=1;fillStyle=solid;fontSize=10;fillColor=#FFFFFF;container=1;" vertex="1" parent="DZ-_d3KtzLlh04xcQ-5O-27">
          <mxGeometry y="40" width="120" height="40" as="geometry" />
        </mxCell>
        <mxCell id="DZ-_d3KtzLlh04xcQ-5O-26" value="Blind Auction Merkle Tree Claimer" style="rounded=0;whiteSpace=wrap;html=1;fillStyle=solid;fontSize=10;fillColor=#FFFFFF;" vertex="1" parent="DZ-_d3KtzLlh04xcQ-5O-27">
          <mxGeometry width="120" height="40" as="geometry" />
        </mxCell>
        <mxCell id="DZ-_d3KtzLlh04xcQ-5O-28" value="" style="group" vertex="1" connectable="0" parent="1">
          <mxGeometry x="610" y="630" width="120" height="80" as="geometry" />
        </mxCell>
        <mxCell id="DZ-_d3KtzLlh04xcQ-5O-29" value="Team Claim Contract" style="rounded=0;whiteSpace=wrap;html=1;fillStyle=solid;fontSize=10;fillColor=#FFFFFF;container=1;" vertex="1" parent="DZ-_d3KtzLlh04xcQ-5O-28">
          <mxGeometry y="40" width="120" height="40" as="geometry" />
        </mxCell>
        <mxCell id="DZ-_d3KtzLlh04xcQ-5O-30" value="Team Merkle Tree Claimer" style="rounded=0;whiteSpace=wrap;html=1;fillStyle=solid;fontSize=10;fillColor=#FFFFFF;" vertex="1" parent="DZ-_d3KtzLlh04xcQ-5O-28">
          <mxGeometry width="120" height="40" as="geometry" />
        </mxCell>
        <mxCell id="DZ-_d3KtzLlh04xcQ-5O-52" style="edgeStyle=orthogonalEdgeStyle;rounded=0;orthogonalLoop=1;jettySize=auto;html=1;exitX=0.5;exitY=0;exitDx=0;exitDy=0;exitPerimeter=0;entryX=0.5;entryY=1;entryDx=0;entryDy=0;fontSize=17;startArrow=classic;startFill=1;endArrow=none;endFill=0;" edge="1" parent="1" source="DZ-_d3KtzLlh04xcQ-5O-34" target="DZ-_d3KtzLlh04xcQ-5O-42">
          <mxGeometry relative="1" as="geometry" />
        </mxCell>
        <mxCell id="DZ-_d3KtzLlh04xcQ-5O-53" style="edgeStyle=orthogonalEdgeStyle;rounded=0;orthogonalLoop=1;jettySize=auto;html=1;exitX=1;exitY=0.5;exitDx=0;exitDy=0;exitPerimeter=0;fontSize=17;startArrow=classic;startFill=1;endArrow=none;endFill=0;" edge="1" parent="1" source="DZ-_d3KtzLlh04xcQ-5O-34">
          <mxGeometry relative="1" as="geometry">
            <mxPoint x="670" y="459.9411764705883" as="targetPoint" />
          </mxGeometry>
        </mxCell>
        <mxCell id="DZ-_d3KtzLlh04xcQ-5O-34" value="GQL DB&lt;br&gt;(AWS RDS)" style="shape=cylinder3;whiteSpace=wrap;html=1;boundedLbl=1;backgroundOutline=1;size=15;fillStyle=solid;fontSize=10;fillColor=#FFFFFF;" vertex="1" parent="1">
          <mxGeometry x="388" y="410" width="75" height="100" as="geometry" />
        </mxCell>
        <mxCell id="DZ-_d3KtzLlh04xcQ-5O-36" value="" style="shape=image;verticalLabelPosition=bottom;labelBackgroundColor=default;verticalAlign=top;aspect=fixed;imageAspect=0;image=data:image/png,iVBORw0KGgoAAAANSUhEUgAAAP0AAAA/CAYAAAArFc5DAAABQGlDQ1BJQ0MgUHJvZmlsZQAAKJFjYGASSCwoyGFhYGDIzSspCnJ3UoiIjFJgf8bAzcDIwMkgyyCdmFxc4BgQ4ANUwgCjUcG3a0C1QHBZF2TWMVEz39r3+3Nf7D0tVMgu2IipHgVwpaQWJwPpP0CcmFxQVMLAwJgAZCuXlxSA2C1AtkgR0FFA9gwQOx3CXgNiJ0HYB8BqQoKcgewrQLZAckZiCpD9BMjWSUIST0diQ+0FAXYfd4VADxcCLiUDlKRWlIBo5/yCyqLM9IwSBUdgCKUqeOYl6+koGBkYGTEwgMIbovqzGDgcGcVOIcRKtBgYbDsZGJi5EWIJwHDYdp2BQXQmQkxJhIGBewEDw67OgsSiRLgDGL+xFKcZG0HYPEUMDKw//v//LAv08i4Ghr9F////nvv//98lQPNvMjAcKAQAAQtc6+ym2ckAAABWZVhJZk1NACoAAAAIAAGHaQAEAAAAAQAAABoAAAAAAAOShgAHAAAAEgAAAESgAgAEAAAAAQAAAP2gAwAEAAAAAQAAAD8AAAAAQVNDSUkAAABTY3JlZW5zaG90p4DV/gAAAdVpVFh0WE1MOmNvbS5hZG9iZS54bXAAAAAAADx4OnhtcG1ldGEgeG1sbnM6eD0iYWRvYmU6bnM6bWV0YS8iIHg6eG1wdGs9IlhNUCBDb3JlIDYuMC4wIj4KICAgPHJkZjpSREYgeG1sbnM6cmRmPSJodHRwOi8vd3d3LnczLm9yZy8xOTk5LzAyLzIyLXJkZi1zeW50YXgtbnMjIj4KICAgICAgPHJkZjpEZXNjcmlwdGlvbiByZGY6YWJvdXQ9IiIKICAgICAgICAgICAgeG1sbnM6ZXhpZj0iaHR0cDovL25zLmFkb2JlLmNvbS9leGlmLzEuMC8iPgogICAgICAgICA8ZXhpZjpQaXhlbFlEaW1lbnNpb24+NjM8L2V4aWY6UGl4ZWxZRGltZW5zaW9uPgogICAgICAgICA8ZXhpZjpQaXhlbFhEaW1lbnNpb24+MjUzPC9leGlmOlBpeGVsWERpbWVuc2lvbj4KICAgICAgICAgPGV4aWY6VXNlckNvbW1lbnQ+U2NyZWVuc2hvdDwvZXhpZjpVc2VyQ29tbWVudD4KICAgICAgPC9yZGY6RGVzY3JpcHRpb24+CiAgIDwvcmRmOlJERj4KPC94OnhtcG1ldGE+CgdjlpYAAEAASURBVHgB7Z0HnGVFlf9Pd7/OuXu6ewIZhyACBgwIBjCsoqigYkIRFgys664JFf2jLgK74KIIKvg3rLCIoJhQUQwogkpQEZEchhkmh57O+fX/+zt16737Xr/X3TPM9Pjfz1b3e/e+ulWnzqk659SpU+FWXHfdddNVVVXW09Nj/xv+twb+twb+59dAZsPjd1rl5Hpb//A2EJs1q66ptodXDdsf797AfU35zNM8qtDjCstOTVtrfZUdfFAHP8fNpuNDT1Aexk5+IjQymUpbv2XU7ru/3yqgrRIahZ1V+HcBBo7t5LT1LG60zg5on5ogXaVV8MBJKki9wD9AoLIqY48+3md9A1mnS0jNpCKFV3bKamuqrHNRg5Mr+vItMmvOFJAdf0sTQEuFDQxMWe/WYaq4wumoUEVHDIWe6t0qzbJZ22uPVmtpEK9NJUkS/Kd5nmtLxaXp4tnOCo5fpU1OZ+2xlQM2MgYa8yhOFE5NZO3A5a3W3VljU8iO45yjYfsRzvT1brCBjXdtGwQqtypTYz+5cZ2tWDtiNbVVVHi6ElPgnGh+Q8Xk+Lgdst8ia21otfHxIReS0DLzqIUUyB19O02DVCHot/95sz32+Ihl6hF6eMYpKlXJ0xVWw9MnH9Btm9ZN2bQYzKqC0Jvud12QQIyOTdlf7t0Co2UMOYEQCUuZ9uFxNjtpXR1N1tEu5Y34BMKdiOnpXUfPFLRIvlevHbShoQmrrKx0KoLQJzyT8JfYr5Y2nBrvstrKUchAZYj2SPc0PFohNaKgTE6k/0K1JNcdf/FSqipty9YJu/+BzQh8dYKXI1e2QKFfXzNt7Y1d1r+pSvqMALRS/FgWSukH204t5VZDxPq+UVu7ecgy3E+XE3iVGWkjX011xhZ11ZOeRuHBNIKyMytcxc8ZwKuSihwaydrmLcPeM1aoZ1Tlpio43k7DhdNo3YamKmtoROARmBDIs4u7+azwxmLp7R+3CQypCoPBnFEis8+sDeFcUTlpTU0ImO5pS8XFz8wcCxND7Xu7jI5N2tjolFUwBFXdB4FP4QB/iYmnp7LW3l6L4EMrNLhNAB2BAUmUE3jlFVMqV/wobgcHFK2Xg/RK8W7dOg5aWIOuhfWsfCCVZScmbdGiemtorrUpLDHHPzJh+azzerLNQp81iKCXX7162EZpjEoR4ZVbvjxpa5knLS21fKZtapJGVOTfQYC9sVqqbcPmcRsehTbpIanZMkHMlK2YtI6OWhoToRftfye0COVJhh29MJjqt6KCYYeH0nUttIV/Q12tK+TQjhIUfXZtcAxAcGh43HknT4Hu8r+E6zQCVl01bYs61Xiu7UKb/B20SwWCOjaeta39owg8HeQ8q7YKc2vJ4jqGKbFT2XHtkdlmUFTkSLbCVqwZsCrGjiGERhA96ebIwebBNOPeJYsbyIPQOB0lU+ayLOTNJFivXdsP+0CP0JqlZdSb1jKcaWtuwOSS8kJvekMmrekafiGxz5elXmRkpML6h+gZGAsHxBAEp0f4JTgmraRoKbHmpgb6PO7cJI5p4jUPfyHvnDsYnoxgganf1l8IsZ/K46eOsLmpxprqoZAeP479NazJ07yQ2IeyvEPIVFhf35iNjTFsQujnCkJ5EhpaoaezIxH6lPKKtTAXnNmeR6mdLY0/k2Whaq7C4bOmd9y29E1gCst8lFKdo3LhrnrMrq5FtWiuPOE7ggBH4Al8VclRNJS1XuipxDSWUCuUwk2MN8X4vamNnrGRtJNoLzfXlCdaBxIyB1H+KwKfT7q50sRSwLsqU4VpP2ITk8GBNy1z0p+XKjAArob+RnwY0xo0xmSeZ74FRwR27LVSnQuW5NgIitWFJRH7iJbzHAIOzlPZCWtva6IpUFxyeCUmtBTaLgtRYCoytrl3wPkK+S/fnwhVr/8KhH7MFnW3WB38OCFjTfl02UHkzFvoVXnSXFWM4Veu3GLjo1VWXafeAUzCv5LMCFII2Ylp6+yuw4FXFzSxEzcj6YJHCPcKrJX16wfQxJWu0KaNWp6ltxYjNbXU2DiWixgsKDwRlCgz5Z2Lvth480k3V5pcrYHZeAVm5AA9Cii4UPAwlpW/8RxCc5ousr6+zqoZ01RMT85Gdq6UhblRvVbhvBvx8WwlyqxckDupupZZoTY6IO7zFkG5HAsXLyNwZGTaBvsmkRt1C0IQDHNtUgoXDVUqbUlPI/Rggya8OAtLlgIya9w2Cb2YaRQf3GMr+xx5V1sJAU5IikFd0YmxaAbphcVLmi3DOGWCMeecQjEryjvuoRxDY5OVtnbdCCKrnloExE9hOaHSGQDQIOvwJm/kU+WCFYiO7ShnWOzzBcGhkS4+D1A1Di2E7+Z1AJV7UBIWENMMECDrW+PFaRufgKngtpy3t6BkClC5STnyzDc1Zkgvh6R6esc2V/6uu6mwCfAZHBhHgUngU0inJEaKbUqmcGutNeKXqKDHdxqKK3cXECIrS1bk4MCEO1WluKhlxyRFTR4zql7Vr6nG9pZGa29uhLYR4kJjpcjO59nOu3kLvRi5hgZYs2EURxFTXFUyCUE/4OSMWIqYLI3XUD9tXe11OPCCObaduO7gbBpjMf4dHOWD4wvba9o0ug9TKglZXqZbM7nSMbnGES55iJMG0aOYXvymeohB8UqWrpviNEorizTm2xZYyitnpL7Vy2lKCFHIwdLzUkE0aaq1AetLU3bp8kulX7A4kYKwDDOhPYo1VVE5G4uq0pjWammmLakF6a0FQ3SugiZx+NbY5s3DcyVMPZcSY/q0q9qqMxM2meiwVIIdcjtbjRYW4I1RZQ+x6GMSLq6CS8S8YrTAdoHx0tUug3cSzdWBqdLYkIEIGjElKIUFLOQv4T5pNZk627BpzEZQRtW1CDsOyigtPmWXoCScfSiQ4C6PrNvQJVAO9VH4QDWjWooMWSpNOsd80sU0eagIvZsAQQWk4RXck9HLZ2hS34yCwLE6zWyKa6aChLvwBzgOjyA00FPesKdN6FBq4OD2NlGE136W1AtNjaYYB/BJbB0eo461viByQb7FZuBER1JD2sVdTXSiIb0uactuRp7tiJi30MvKGsKpsnq15uZpFa3gkJB40FVI5kNAVI02Zbsta0yEPabPp9tVd5WMGccYA69e0+8m4sTwCEwEI8kRJFoSe0oe10rM5SqcKvJnyNyUEpD8yyLOhYT84HTKxYYbWUSEJIm3erHyS691iOnCnG4A4flTJkJMk38q5kgsqVIP0wm5h1JrkbtbgxHR6k2jL33mAYBUOyVQ/AQdxdAQwqJBcZkgxTuNsu7AgsQt4TNCiU4uk2Phor2DgE+29A65U7UGv5HiJDIKfvH6Dr/1LX7IMrWnFZ5tLJKanBzzGZWd0RZzCr0QFMLV1dW2mrH8wMCkZWprPU7IRvYoYBVFEkFnas2NNb7Sa/LvwLTXGF6Iadwk037Nul7buKnP2jp6bNluS5lSXGxLliyx5pYWEc2ikFHbsHEjjr719vjqx23jhg02OjJqGRYZVVfXuALwOpAwJhynupoREgWSjp+RbD5pVNtFzJKGqfsZcIsTAEMKpr6u2upqYUaZ9gnQgjackW/nRzjbICyjQ/JNYLmopykVEiJV122tNY59lhV3c1lQpUDtjDjV4yRO0t4tGpOzqCjnL5qtNPiSdlns09rjNo68aDYiJ2CzZd3GZ3MLvTSq/1XaY6sGQawiMIlXfCGDx0oX0bqfYEzW2dnI+IT+niW4wfGlPN6824jqE0sunLJYHRMMlKZwdi1evLft9aQ97U0nH2aHPfNw22vPvbBgypexDoH/29/utZt+c5Pd+Jtf24P3P4A2HsX7XR+EH9NGTFjoxisPb36tWVi/s0Gb7zO1i9YX1NfV0R5SALSVm2WqIUIJ5RMe7PxvmbRCpb+f4cYUQw/NcZUIgQYUF1ONzS1hLtttgkTxlsiSr+7SIEtmKRsZm6UELK1o1H6BvqFJFhapc0GxujVF4mD+FtSxqlvR8n3VN+Dw7mlgFgZFnJQRs5TFZTsezCn0glmFidtPD792A4JLD5c2RUuXKebHFGa82LO4FqrEWaqhWFulc+2MWG8XzEStAhybHLfunj3tBUcdZ0ce/jJr7g47CyWsEoRxPMG6qhVEgfLKwqxCW/csWmSLj3qBvYjPh0c/bNdff7194+vfsD/ceptS4axkswoZXBfuDEJ2FEyaQEzZ3FwP1jguwTkq6x1VxPbCkYk7PjHF/DybazTHVS6As6y1ZhZI1TKoDz4JJYbPciHymlrRm9Sv4ZffbvdXWhCL4WUZYlXi5N7Ekm7YCYuQrzRapUoFiJzci7obrLkhi+9L7SLRFA3FJZQCsG1xzNeQQWN07UJKCaXYXh+N22trau1vbKzZypxjbS09xWycTZZpTGctYmlrqbfO9noaiCWILhFxjLbjCSlFtphZvcfY+Jhl6hrt5ce83l5xzNusobULPUTljrEemoyVPlavtAzCLc3skuAAJfoiKPSOWRhSoRbz/rXHvdqO53PVt75lF110iT384CPW2Iiq9gpVY80MkerST/Ppi9MV/86n3PY7+fWbWF9RUz0JU8oHIMtt1wctpQ0LcsawoGBJmqFcPfkafHRCe4cWh03AonQxaGe5yzzoEiuN26KfIU3qW73tvAIw54KlfT0j8H4/S6GrNDxJwy5RkBSI8ylt0bOo0V2RzmXCP61d5oXg/BJlJia18kkFKEO+ppwZiJMPKputtMcf38hjfujD/2zBza+pcTdV5F31zR950LNl3THPVFmawuFvEO/psj12t5PecYbtv/wIGJ21AhNjPvtQhfCGIUe+WJGWR1WU8AuateRYnY+sHC2yGGUmQsLy5je+0V7+spfbBz54hn3ve9+jx5fTkieFgLyAUtWW5oOCNiax9KRC2XzJczn88jiHPGW/wb8J5aTZl8mcI7Zs6oV7QEVgDNvgIHtPZ6FGdEpZ1eBXqmuox3ob9U7IfcvZuEBHNZavtSztoXz5GH6kQjSlU1Elbx0qgApgEen9GTnUF1aAgrYBj4xohWfwfc3VOhrLN9RX0tNrN516ee9uS+KwIyIz9z+81X5/ywpgiZSZwdkeJAZGceBlMiA1M01BDGBkLmuPfU9Pi5teFe5kKUi1E3+oVdD5LDgZHh62g5/6fDv9nz/OrrgenCNaGUWPzhAlUFua5mLkplBgcuK1tXdZHWNhMUkNjk218gTC38o88de+cpkddMByu/iSi5n7xslHnfkKLFlQ4haCj1nDLeUnGCTPwnMlDcMK5YlpSudTAvUJzGkzfmSxai59UkTBpUJDLIIWSDVypoFwF7OmlU5BhgX+IUafwNcywgyRZkjcwoKi4qDqUuwUbfngAxvAP6wklL2i2RfVW/ANKKWCUidwYpTH57+Sp/mIojvPVpwogaXoNFjp+ywL0CoqNaylZFXyLEHPp/AzLWaGS+0yNaoNQ6F9cnjPkn97HmXG6On7RiikTBArqQEqpcLmEUSjPPUdndpRx/h/YiTXm4aGnAeQ7U4SmqCCEzAGh4bsWc95ib37Pf9GHTYwXg9KizaZd5DycmZkeHD66SfbAQccYO9974dYXbinKzYJdiXCLyeMhP8DH/yg7b/fbvalSy9A8LW0leeStaRHnfIfsXhhQr1ShoJEXX4QKStRIWGs8CEXz8iXYyzfF658CDzjx/Fsxu766xack8DTIQAlg4CBBtORTY21+GXwcSQrWVTWrg/gB61DLJTSbkwpZu3mLIeb2kR1PjQshxep+O31k2gw3YeZmkiZP/U6jTHbcg2wC3OUU5bC2QV9XoyGRABc7dzTzdw8zceKEbigPO2FWGzfrwxWHmt9y1VvBKpxfLyfx5WGW8rUQ6YKLYz2zrXetsCYRzEzk+BEoZfoH+6zgw59jp32T2dRNvv3mUXIIJxzUTkTXojxferTE/bta660P/3pVjvv3M/b055xOEIkp43m7mU+0lMxQ/HKV72Rac1NOPkusTbMaN/GnVSez7vn6iBgE74l8gowgW7CF3FKTIR36P6AZ2EHhgYZVdUVtnmjtjhjwTBUKR/I6zAncX5RD/oJTs6c5TMt2BOvEpDSUMyRo2QXKpFcJqhnl68rL3y5ik3qsiizEuaTlIE6S3QRuNlhSdMrQ3GmYvi08BQbnuggOltlRSe7NlPAI8pzQSqGPNtvH86IJ+f6zAYk/0yAOPGDnqSnk6kHuS/nJDyf+4neaSw9hnOuu3u5vfOfPsVwBO1J76feOIhlKMGn1lCx6at6jtlChumj3fdYwizGJvvX959qf7rjFhd4NRSQMOcqfP5+ElPtTW95j7346OPZ/AITa+ceebMoB83ZVmAxVbA8U95ZfaY1pSPnoTY26CPTTg4gj8fM9XilVV6uPPP5a5bbTqHQtm6Vwgj22Gz4T2fZIAUudSyJ1pr7HclEs5U75zNYRnU3OjbBGogpHFnUgXd/c+Z0IZZQ6BP4LApaCepc6aWfb+O98qc/XoPlYKib17MyISBMkrDsdimb0RpwrmrsrJxySeovr9DKwNnOaJWxw4J6jinGM22c6dXcgKmqsY26lQUKcgVpP8/Jp32YocVSTFhWdcFQKeO4JCbisdn2Oks5aBXiNOPIzpZWxmzDduZH32vr1z5GPgQzaUQpHS36kQI57d3vtz332sdGxgcAjsWD8pn2q+7jb+I4kEOfLM+zMuO1+SV+9HtGXMij5bPDbAkeGGT4hEKJfFSSQCJVN/X1tdChYRptsoDtUg6nGK96G6KXnwoNEaP/x1/VZpnMlC/I0UI2BV/iHW532vdsNuH8CxX28JEu6neWLW725beTMH/h2Gr+ILc1pdYS9A4M2tEvPcGefPBzEMxRhi2Y9gG10HmA49atvcyx/8w9vmJ88f6UH03UaS958UsQCvQgcWiLHApSXNp+WosjU2ZxR2u7rV6/xn74o2vstNM+hEWD/c0zBU35abqypa3TTjnlX+3sT7/Xaji7LWjtUEM5wH7jheXN2ZQwyvqSFRGDzH23UomSj2VL7zDOySmcpoU+GU1/CWdPC3i3BbDp3LRPgMVZC3Ve0YnvmOSLi8Vu5xVs3XkogIKcDuG3cGRiyJWyDsuocr9R5JlAQzqXlO98Qr6jUfqUBeeoqF3z+JSDmYdRWGK59IWpKCHVjmkcPD/FC4Msvi+dJtXWqvF8mLVQm+eYIUlXDPuJ/t4xQp9gIQtZ5mPbouDcotmeKH7zzj+Bo66jYzd75atPdGarUI/mlRZwkBmuo75//KPr7cS3vgUvfJNP/XjngnSMMx7/0pe+YO961ztxROqAkLzQCwm1oRa1aHWhxvh1bOVcu3q14+dj9RSmKke9/bOPfJE98xkvtFvv+KW1Nrb4mC2frLBufO2D87R/ebJpFI96wTyv65msJ/YDwjB9HJghBtEUVjpoKBCGK6TnX0+lzKrxAYTjl9QyqBOhoOcJKrpIUeyYIKEtDUnxYn73lYDJMPsehtk7n8UpmXUrx0fsbqVp/j13iEYCsLTg5cuTslGa8MEyStEkYVSdxqsw1H0hTC3WinWaJkJ1X8gXpSmkTrXIKxfyCOSUAWXq7Lue7jbWfeAIZnMOwHdkA+RKL74JQl9IFwWTTDSn44tzpn8LV/60AWIpywhb6vAO+6qidKKddy9nWl//oB37ktdZV/feVDheXY2LUwTERh1FuJua29i+2O0bbRSvzn2UdfZnn3OuHXX00XjglztDSjAiDN0xmiYtDEO8e+7VSGWD+uhpe9VrTrRb//RbdiZqHA2EyIEuXUCVh14MwGKGSfB2lBMekVDUoFxUpmD5P5Iq5aP57EG811p3MM4MiTIKtBROJiMlxo5GZaAcMWBdK/uzGctPaX0BZbI72IuO6Ku5nZ2JfyIhioQ6+RosEJ1GlFYkYnoGMr5Ee5xZEW2d7evTNt8GOgwcn4lTeRLn6/gYNA4N4yDVVGsGeDXQJpZVvacRDb8ntepyTDMAcmxWWV01c/m1rDxUO4GY2lorM8ep61GGE1IO1aTR4jMN7wRRDlLxrhS/F5OqDOXXHhQ5hYPGzD8MGASlILo8v0PUkxgqfMrXZYVnNTX4iThGXSflhM1SsfaUPk1fzL9jrhktDJhIVprlQcJYxFdp7TOVMZ8gFKtxVe/ONtoqGHNK3Ui6tecDZLvSsHSThmxEkI983j94wwZtnK7sPGA1rnZxTTA+19JH7HWYUA1Qw9LJzfaxj3/crr7qmzQ9jrki0mUSa1GLpuIyvlKnfMO40uHxU5/xTDvwwIPtgfv+bA212sgj8VIIeYXPED3d6094qx1w0MHOtGKKGtYS3H33Xfada69EINRTM7SI+XDibd06irAMkO91dsIJJ+Bg7Lda1hCswfr49ne+Y+99z3tog0Cf2qEOAazRSbHqUBB6VyJJFamp1NuruUrXmhc8ry/BkLLScdTf/OY37K47/4h3uin0nACXRTY0OsYajmX2jMOeak855Km2tHs/1kB0WFtbiztD6adx7I0yCzJgG9ZvtL/edbfdfsftdtutd1hvby+CU89QQBYQ9NAmomV0dMiVxhFHPNee8Yyn25MPerItW7rMWpubgCnHKYuRaPNxlF5//1Z7kBWU99zzN7v1D3fYfffdy/NKX0o9hI/kec8/wk497VT8MaPoCin50Fry11zwmQvsvnsfyNEUOxOlqWQGZXho0J60/En24Q990PWC2jIACNfzzz/fHn3kcZRYhS3icNXWZm05145CVa9a2G/0Y6eFTDNnve3WFceEQoyPl11pW1lvP0qXkDNJyqAhptGW1Eacd83sbdaYdiEcEo4OPboW4Rz0lINt2e6HhKmoSE4ZfNWQWiI57XMX6n0RfGYaFnV22Y9/cr1ddfW37cQ3vxFlOI5mDy/yEGt5z6krgiphFROEEK+FBaoeKlEORxzxQrvnrjusQltAXZ3k06mqJ+jhDzzkuXbYs47IP+DumUe8nGPGuuyySz9Ltznlgq/20Q60fk6VmcqO2/L99rKXvOQor3P18g899LDdfPNNduyxxxTA2hU/fvGrG7zHiz3tBCfbwCb2trf9o5100inW0to9N1oHGTMhR3m6FStW2Wcv/Ixd96PvocA0C6KGnmZBz5gdzZ6ID3zwQ/bsZx02N0xSPO/IIz2dhknXfvd79vmLLrL161ZyAg8vmNh/XzvmmH8ogCPhFh3VWBCnv/tU/CMspGG6Tcu5NeMwQSc5MsbSbpTamR/9iB37ymOSDqiQNy679FLyYYnCDIuZm6+gowS0wy4ocCf+yBywT5vt2bqHF6HlimJC6bbhqYx9//oHIQRTFgaPGq0ULhJ6mWOdXeyoq9HmFvrJol6yVL4nEuc9CuXKzJ5CaJ588GEuxD5jAAXlgsbfajx9RJeCKl2Ey+ppbmy2c88+x14Co/Uszm/IIYP+qRmSRvCKmCXEsg459NkwKeeXs7IvaP6QT+XKU68eeWyU/fy6ap+ApuuEEAleddwprPjrgik/jRUw4Sfd9HGc8sgoZjq0jGCmCu8xTGGtFhzCHB4dGfG0Os/fSePL9587obMgzKOQRLnSIdIZeEHlBmdhSCOF6b1ukkXjYSmgSV66IZHIUk+T4Cg8zzrr0/bSf3itKyn5USS48p8IfynJGKRYqzHlZUqHoYrZHnsss4s+f5G96EWH2pcuu9jP9xuB1le/+jR71zs/7FllVqscKWvhJAFzn4cThqXGWE4HuiqNCx/lvOGE1yLkL7ZPn/1++8Mtv+EA1xqeqy3Aj87BqVcdUsIxL3+5vevdb7Qbf/kzX4mZHZ9yBbR+44Td9qeH7fVvON4FfgyLwhWFclG2eG2c6WQdJKNjuusZzizubsaZx5FgoYRI+k6/ZlTR4yCuoGkdTZvUsM96FSfk9G7hwIzaRkd+dkwwdxlHLlui8RMmlxNRzDizQ9jep9npcReo/ZYfTKkwo/fes0ArgVZw7KhtWAPd0OB75y+88EL7j/P/3ZkjQpMJHJ1eisuBcq6IqfJX7+H4uccee+GwWWIb1q3BBMdWLxF0SIfwyNCTZNwfETSLFvy84EXHOl7nX/AJG54Ysq2c3MuIxkcKGutKCDXWFGNpPQEXNkYFd42YV0ONb199ud3+x9uBwwYoGF6MmKLAMVKUWzEpZSbSfIMLQIeHR7FanmuvOvb1wAjLZbUj7Mtf/gJm+OPwDUeo4TdA1nBO1dlDDzzAVaa1tssOMptxmgv8KLvoNDbXkEpK6qc/vdF++atf2OOrVrqPQui1Y+4ffPDB9OBH2SEHH0RdozgYhqLi7VWvPsXuv/8++9F137UXPP/FCPwHeXsSvAut1RwBppHXxvVrfSHVIyvut02bNuIoY0Umdbt02TI75JBD7aCDnoZvp8OFe3xsBCu12T7wvrPslLuOY/XmkNel6tR9ON6+lExnpvp80xveaXfc9nuUAjNEKDUpj7Xr1uEn6rQzMOuVRsM/5VWQ8lHb+vHcVIbSdy6qsmbW20/p3IBUfXuGnfzFirzY40l7B0YQ86zQiTJMoYRteIovHZwpeOdWBwf5dbK3Wb0ZL4Mjcfk8pSFtW6ysC2lInRHe1NBpPV27OwDv0ZLShZu31zxAR0tmCsZqa221G274gR1//Mvs2c85CpoiLagVlsHmf4W7cmWoMcPmkBaGHvvaysdWIoxMI0oqpJz4l8UixevvXnN8A9bDLCNWLyfBGGfM98zDX2Rnn9doZ5/9CRYG3Y1FxcYe2skthyL6vBmdco2O1bNUcQbAb+zaa7/NzrQWLw8kcu3tSJCyUi/rgmGx2wJi3IlCX07MrIV8HpWV44nQq/fSdOeEXfudqxhW3O8KRdtc5WhUD97GmoY61gaMYpV0dfbYa1/7ZhcIOc/E51q6/C/v+Vf7ryu+4SsKZR249YXUy6l55ZVXMuZtsX8/9xx7+yknQa/qTD4oFOELXmbX//hae/VrTgCmyqPHZVGYhOtXv/y+ffYz5/EugzX4F+TUpVOCOnVoag8dgnLwwU+3/3PW+bbXPvv7PhGN97sX72lHvfhVOIU3QXUIasOBvl78RiOcDbHEFc+ee+1nxx1/gn39q5exi7Sdo704UYoDWc765L/ZAfvv7/4iWSmPPPSQ7bHnbpTHuI4gnvVhLzy0BK99JS8jcf2bMFByCQXvxG+6A5mAamhpJcwiGqyfI3tXrx6k8WQiqdlnCVRKlrFaJ6/gqaK3pz1gsQUKYhy81B1dvLSQuXMFMZNYXT3D/CuR8RiOIHl2tf65pZlGqhy2S754gQu9xuXbG7IIuMZ8S3fbyxneNb6EPl2tqXv1EnIW3vLbG3E03clmoTNg5lpn9AP2fw4m6MV24qOnsNnkEZhGw65CzAQ/H1DoPu6dtI+c8TF6xH+ih9VioiSTV5DuUTr03I31LfgPLrZf/OqnrNEPzjc9VTIJpJyLrQiyQq534mFHZ7v1DCzBEYYVQwWqI/FFUWIr7sdGhvE97M/JRN0wfjDzZaF8+5pv2+VXXGHL6H0hOtSPt5uGmVJCOiBzGOH8JLMVG/ytQpP4mDSMeXz1I9bdtdT23fdAVxSqZ+3BX79mjZ376U9x+s4W617U4QKvyo4GqKwWVf/tt/8OBXqm/d+vfJN8qAT4XvVyyKGH2k03/8ZpjJUr5+FVV3/Dzjjjk46X0h1/3Mm00W9xnK6wVas32aGHPs3+6d3vRllhbSDwjz7yCP6HC+1zF30OWLEWNYRkWhv26mhnehLT3hk2lLZg3y70XpoYQRWHmfnYhmFMOcY/jM9nD7Q4+WpgpKVLW7mVzUmc1/DsOXfEU+9J6SXrmeqpquFM/VzlBoEHkzmCGgOWh+FPPfVUzvLbzaeJ9PKH+iasl45OeBgmLoAidQKJBXHlf8R0LS0oJeoqODgpVw9C8YWZkzitAPzClz4DbuN2+ns+6h5rjW333ns/+w7e+dNOfSdOx+sQxlhCAJMT6BzUsGJwj732sT1yceVvmppb8S+MeZ36GNvxkUDIvEU5aMYjFVSe0k3CwJNs3pJ/ZYLxuWitreX8OnnuuZevZLpSloQyByLv/MtdVssBdzy2SXaXafWhVwwrdtxi46em07RR6POM5Vuaw5x7Da9VE91PfvJTsCQ4Hz4H0Zjx+LMND27FM96OogRfgEsJqQzh6sXze9nSxVheD3Gc+0PUKd5CeFeKqgk8a9gSmw4tHJ/2gx98z557xPNxAL7I13TUoSDfdtLp9omz/tUXSZ1/wccTq2wCXqyxCy64wB5B8HXoTBwKiV+z7EVZ1FlPvVBvvEYtKs/AselSd949Qp8wjTt9GLNMV7tpH/TsHAWTR2Opbl5x3MKL9iYxgWTWudzPkXWHPcY+0rhR9kW6dy8U1OLSAtOJ9sBcU/a2t55oTz7wgOKE/jujNe8iSswqbytqIEIomSEVGRtT40M36x1GAKWqF9hSsORAWsRpPZdf8WXM1FX2iU9cyEs22t0b3tPTbddcc7Udd9xxLMMdTJUW4OYFP2lbSpDDS2NJMZkEIAQXAdAIvazWO2iu2+eiKd/rEASlTDU+1TiV7CHkYGgxYvBqyzRniM+Y+Wl+1uADHCm2bu061TIQ1G+r3kKZAtLFyUUTlIe0YSWG9gt1rHYhLQhozYUsyL332Yu8Q3ww46twijLkkQM0opNghcWnYU8oo5Y6d6GCT93+U12jUKQIJjFJRaF65RACJDChzEBcTiDBpZo3yF5yyX/YYUzB1iPwUnTPYci13wGHQeuUvfSlLwXmJOsCau3WW2+1b1x+ub3iFa8ogG3aIQkFPd06LIO1CknNhJKLKUmy7oRLpBhUsGhp9L6+LA4nHBl4OKMDoly5akpVkF5XVVU5ZhM0gprWOQOAC0GGN0/Cid62Oa4sh/XMeDG15rllWg8McsS3XqOtPwiowYIYGRwQpe7EU3npz0xopWNUF45r6cczY2FMOX6WLllqP7/heuvbOmjnnPd5BGWJj4VrOdjyW1dfZX+ht1TwsTDXYO14VPIVrIvzzv2k/fWvf/HTfdTz5KlQMlkDWGwoz/XrV5Om0dvRFXjS+2pcrOFELnhlhzbWs+DwqrIPffDj9oY3vd2TDfX32nnnnWPXXXctbwTeQo9Np0BvH5vo1ce+CkH6IodObGVoICdwYQ2pzgao+4MPPsDOPe8CBFTKaZLev95WrLjP/uvrlzIU7bcuhDAK6KFPfZod8pSnM5f+F47GbgEved+D0vF2A6iKGaA+n/u8l3Ig6t4JSYG2jVs20ZPrVJl8kLJsaqyzB+7/q11xxWX2jnew9Bpe0QlR//Lej6P0gtL0GQt8A5/61KfcGggLxPJwwhFfGWjF4kHZFdObT7lz73JCL/WvF1isWtOH4wVnB6Z9vscoQoJK844PrYklbIsXNcsr43ub1aBzOdCLoD2hn9pPPcp0l8al4VyxbVM2TiO0O1PTU33nW/9t3732GywWaabX035t6IFphoYG8HdgUchpRGOLIfWZO4jVWPEHI3kudV+UF5xn6pEQJiUJyZTUg1hQTKRXFi9D8P/4l9tYiPN6u/jiyxCCg7zHb2lpshe+8PneTpHpk+y5i8AikvYgjrY7br+Vtd6s84ZhRVMsNs5IVGHFiLl1+o9wxBh1vNTWgd604IfeVDDE3EM4Hl/zmpe5wMvLLoVV39Rq72Pu/M4777C7/3oX5d/OGQcvIIfeRDth+z5pb6bgLrSPfez/2FrG4hIuleQwuaoT2nPvPe1T/3auPfvZR7pSFn/JChgc6rdVqx7jLIE/24sW7wa6CCHz5jW1rfaxT3zWPnfhWfbow3fjq+FknUTJKZ9mRrS458jn/4O974yzKS9Mz8UG+N0tvwJ+njYSOO0S2FbWyF991X/Z0Ue9lAU4h7oCetLyfbz+1fNrKvArl33VfvvbW6jnNpRcgBPbVsPfznZ2n04gdnSW8+MfYbBjQ07ohcAk2y9XrJY2TsyiWcpS5csU7KGXb2vRqSdhCic02SwZd/QjGrGvv49x5BDTNXIyiWW2rTpl7sUm2HvvfX0V2MhQn5uP4nv1cE2N9d6o245+wGXrlg20s8aYCESutBLQEtTRK/RsbIfF0ywPeXtbu932x7vwGh+H1/hrrBo70sfY8oArTVkF7UVweEZTEz6Kdt7uyhSshD4x2yXQOmNOARmj5mS94UzM9ep6JmsBNSGkZgTVHGN5mP4pBzG1prqE2auZMtT4vrNjke255172wIMP2te+/hU79GnPYayvY6TkB5i0YzGBn/3sw+1XN/7K/nb33a48BKOVGZQDDzzQjj76hXj+FzE9Bl9SdjUvKBkZGbKrrvwq99N2zbeusMOfe5Q1uOMRXMF92e572gWf+wqnF9/JSsi7GXNv8XUk9Qh7V8di2/+Ap9i+y4UrlIGHghyL993zJ7vxFz+zY1/9Go/LfZFQSrWesXo/qwQv+cI59p//eQVxNU638JXAr1jxmF34uYs4obeVtRLDM1q5grfW4CayzWvFA/SWfO+KEISesjVvuppX6q7frK2aeBYdHzVnCcSofe+1EIilS1oQCsaKTmKi2bx5dj45XtksL+1j51wvDdu9WM5EcCvFmwk6safQT+X3iofY6A87+iXH2Ote/2b78Q+/SW/f7lNpmhrL8Al1AQOICUpUS1JEwSX2wCtXraSONZ5UHQlJJIxbwVFPG3vbgBMpUGbyKNPZM4atYxvvEM6wNkzhPnvdCW9gbvxSFoG8wg/z9F7OaUmKhsjwE+DCUz2XlI3KpteTUHp5iWDnLDPqIWeqh4wOUG2tVYyiP47J9a628FBlyUrEmnj4Ia97TYlp2CfLsb9vCy8UWcV0V5vdcsvN9slPnWkf+egnfCpOw2l1HN2L2u2Nr3+dmT5FQbDlJJRJL5SGhrbaRZ/9BNbDH4DZwZDlz3YOMD985lm+s1F2md5iq6nVpxz0LP8UgfSfOpdevb6GMFJYD9z3Fzv7Ux9jsRNrCKT9CLm2oH0y1JWWlne0tnG83M320+uvtVe88s10dlIIwbw/97x/x/+y1n0xghP5ULWmZlD7qz3DsDnUmxe0wF9OnZCQh/PRx/ptmFVUYvK5ghq1vr6CBQly4AUHkbeKkzdX7h3zXI2iNeka961ZG3a8xYbaphLUIgkTq5d7+ymnW8+SPZgfH/b9B64oqBLv6VLSHnVLELDSJWqsPTw4hKd4hXt3afEkoa4RgnoarRKTQCKXXH0aiceavtOmFZ2DN4kXW1NpCm876ST7Os6iCcz/SQ4RUHuIeSV8YmaZyjpHTh89lwKRI66aHklbcX0RkBYCYU3kPjyPY2AvhC8JvP+5IpHCYqWd4GJhyMoI7CxeaGDL8k94L8ANzGnj30FQh4eH7PJvfNUee+wxx6utrY2592+yqu0Y+/73v8+imU3AAg6Cr/lz1X38aJWf6HE6uN+ycb39/Kc/ZE/B2+0nP/kBSoMNREzfdXQ0MsV4nb37XW+1X/78u3QA68ANU596Vj1GePl7xXklMywcZlixyi7/+mX2rne81VauYk19E/NpCLHyq6ldQFWnqhuUgRx92jF56Zcu9SGJOkvV7Q03/ALnKusg6CiEt5pZdanyBcvXP0zLnyFnnoLaPt/+HrVAX97Ti6m1bnj1WrQczhw1ZI63S+Cl3kuN1cORWA2sVdbcaezRFgjvXDEaT06wdPXeu/9kT32a1lOLMedWWjkAsfKj0CNEPUt2t1NOPd0+c8FHWanVSMPJxKciZAuXDFGQCx+qwSX0Dz96n63FQdbBa6RCPQkWaalkXWoQxFtuuoGtuivcy17PVNdDD97ne/gl9AO8NEFHSUk4JcQyj6WA/uW9/4JJeo/tu/c+bFAZ8/h1rPpbs+Yxu/SLnwtCSQEZttSuX7Oa5zqwk2Kd8Si7iBw34VUf4tiiIFo0P/63u++0L3/pIsbKyWunWPzShyNOuEkJvO99p7NM9sV4tHdzx6HG8Tp9d1pvlIXaZhbb3HXXX+3Et5xo++23H232dFbHHWT77LO3KzSvH+paS1ZHR/vYjLTWHrzvfjbu/JWXrTyCv6GaOe52lCMr7BBCWR7dnc3Mi99nZ7z/nzHb97MDD3oK8PbHS77UhzXVOpJZVg5soV14W7f2c7rzCnvggXuY4rvHNnHo6aLOFsbhjVgSI7YGq+yG679HW7DirpaZD5y8/iYg9ejAacLR+eDDK+39H/gQW7lf6Zt4LvviZUFhgrvqqpq9AavY/PTfV17lM1xSxh2LaMfBLa7ghY43QK4NZtZ5URPssJ8Zta+maNZtzNrGLRwN7c4qhDgWwfNoeubieKYDHXdbDBPrFIRtErIIeAdc4Vrhr3Po77rz9/bGE09DGDR9N/+gXgwpcAFULn/ZIJr65a84zn73+xvttj/cBKPSu/qqPBm4SsSVLH7vP9M1owQhRKvj9tt+jVAyI+Kvy1Jrx4Dg0Ys1MFa87gdX+TZSgAOYzUsIisbgEtDNW0bZnSbzMJTjPTrKro0FSZdc/EXvDQPEYJ7vs08PDrLzfcwveBKkLkxhnQFAX0prCU7owfNUBAheguqjKGgtg6aj7vvbPfb7398G7fyBp4YDneCpM/pqOQFWuH3v2u/Tc5MeJdHRHtZvBO++jrge8R114prHVq7Ey36/9/Jy2qnXVJCinNSiK05g6unSdGnG5/uX9CwKvS91JgtP6YSHdky2t+JMxlu/Yd0qe/iR+71JNUUmmMgqgXpXuyGQ42OcVkSMnNVNLEtevLjD61ybxppR8nff9We7+be/Bi/ooypUb+rBvadnLCSrSmPy6370E7vm2u8IOOW341docPr1W1ui73vwfnbrvQNPPS8X4ZXgzzhsET6wZmvyVZlg4D2rMNFnZp0Lzs4IXssaP65YibOD8QkKe86AfwaHUD1Mh4cbjeuC44jPmXUHJ5DQT6L961gIca89dN+dtvzAw50ZQ486e3GqatV1GGPFtIIpk6zWTv3HD9m9996FJTHCuBrz2zPE5gmCr1zlmkwLSCZZK//rG3/FCybo7aShAJJ3iEWAFWwrbaVO2YDB8yo23FSzpFRvS9FGlT6cR4GLxRjBqnKTEXg9vH/P2YV7bRKuQfhaMVEzGRbDqCwYXT248imPbrUqLVgu5TAXVYVBcNSDNdDLNaC8phBK4STBc9gSKuBLuJcuWUzaYFrLMpEVUIXwDQ2xZ0CbsUBCK9caWLgjLzfZwC6kl3Bq66/g7L13szXiEFSvqHaWB111J1Nb5Tpt5NVwRm9H1pBAbxpqxPSXz0GLeoSzT43JqpLck1+rFL0u3NIiEobWMWLqjYWMFEEj7aVxv5SR0y4kZd6Tf2x02gaGxhm7d6n3c1hZhiiyAuK0ptSCHIctu7ey7n/Clu/TzIlSddAmx2FawNUG+iik40NM+e+YT3m2LZ8r/SGIWPn4ZhhNmVUzoJz7BJD8DIEG01r0xT0cUFBHJJWhStklAaGQwtECi/GRQfvFDT91NCS0ZQMNGaZklFf4Y7Zy3ngdmx88QIrG0+oR9txnOb6lk32zyBgLj8Y4rEJzuDokQbvCxhkKKJSi3seN9Kk33/xLTM97fJjgjau68sqUYgmZ1ZsIF8HRrLIG9lmERab9Vl7mOEj7BOdSEGA3w2FcWQEa0+tQCOEik7gGjzboey8vhtdnWjQ7Q4peCqFgV0DczjeontXtiZmnGK/LYvDZCARGsRJCZA+cKJuOQPUnempoGwmKrMFh1hFpfb8LKwklJBoS+PsFJTSOq3wTTPfVVmLBaTiDkJBOKxTrGJ7I2vBeHpBeZ1ylBLQQp5YNP9q45G8elsCCo875Jyuf0KHJWFJdiAe0C7GavPWsxdBRaJqxCBYJUqCeTc5P0cJHy9MdHpXbxzL1iUnJAbiz81EL1EAdfMRDFOB33BM3xhBBMwStTcxYAMdnRSjf06ktvEF0VSCvm5CCoeCNlVz1TEopX4ZqM5bn8T5eU97ifKTzvHompUmDbNjMOIdFOVVUaNCAsVDSFAU9z/BKpCU9el2VKkZsQIhZ/EeSqVxcOk3MO1dcKVjkFT8Jp2a0+29v+okde/yJttvuy2kQTSEGLe1FJIqpraPDGTPEyXs8zXRYI062QhNHjCq4r3nt2xj/rbSHHmbJqE6zYC5YS5XbOcBC660VSJaD6RF8SSDF/NdcdSVjcxhf5SuhakuN4//hqnsxGzOlJFFPpHgECUbbtKXXhcEP0fBy1ND58qQq/BXbwJVl0cg76tTzUSgxKi9hDUAquIIGvl8dnxA/97dK4o96od+mrJBD+stBC6bg+1SA9yX+2/mQePXEw4ynXTDE9KLRmVZwJL7qPHSHaKHwOlnlWY8QZ1EKossVBaRHvANlIa8gBZVJbvDTnncFtV8g0aErwvF3TAGg+nWcc/UQakxtkMEPINr0yJWW48tMAjpoE6+g9lV/xAVLR1BCcPxS9z470cWbmzuAh2aoon68fdU2FKAyPOjqYAI1ehwfBtpCsvy3FEfMJHojDjMAJlliPIpQh4c/+Eg/+6rY0UVj0jxJopkXgdVYrZ2z09tbWYVnaDGYywWPZ8XIRTRyhCkNkbH4WILSFaTRg6J0pWHB2LSKevZ6xpMb2UJ5+Ve/aB856z893tspKSQ0jtnhzzkchbWU46k5gYVFKNWYbB0tmmKSoykVlBnzWPuyP3DGOTCfjlfS8wQxLlU4a4IJHQQx5vYxN1Lx0x9/F6fV7baIca3YOkc5eZ05BEpA9VuQHeHAiMJ3nN5kYJBeyRVQhF54VWopGPW6dazSq8ccVlk5k14VqzoS/FRWlZv+nXpU8jbm1+lBQjlAFM4B74A1AlIEVD/lJxkexBqRZUsCT5s4Tt1q8RIBmsBuaMTp1SZTmJ4RwaQqvBwhrPLEQ3BdgqcwC8FVjeNGOqIcTwcrBajfqpeIqWDpXs+EWIDjfEjmSKfgeLuAr6yDoZFJnJhYCeAVsihFPsQyFCNYWuq7x27tzArATiOyetK4i4aYn6tXXr5dNETRLw3HcukgPuSIgs5vyvG1FjGZcHVyQkoQD7O2XFXtmTFaYs3aQXpvVYoYP0nIXUFwgGRCW9XUN1lvv6aD5MGlcAoQcm4wx3LIrIKLoQmXtODruXcOBYW5ZeTpFO1Fl4Qlg0uyqSOzZKp1sub5atvvoOcx1348vbjGk8E5pIaTMHZzEs1HPvph+8AHPghDjWN28abQJkxlcUhxUCMQrXGpDtospEVmKNYESjMdVD8aG65Z/ah99as66IEVXwDRX8gfy8lDc6YCSLyKccRUAxyJNcZLQyvlaClBfyzXIaH4mlh4I1NXR3XHJZ4qTQ2tvQO5EiOtzkwRylxXctOgDofbCMIZKgc4T0MamoaKg+zFlwsx8LUQcm5R9iSAHz/kI2purMGq0gYfmeEqV5+YTrepHwX3pHGAUM2/REq8ljSjjDR/nOY3h5T/CuWoroGjdlBQee4ApU16e0fw09DGDCfic09U4kuLvjQ1yret443P7hGXlVPQwXjhgTtcUhmKCXmCCz1DjuhIV5wc6MI/cpNwE+/q7UlZJ4wnONe1+Ep/Dgm4IQ+8TGVkBpmiGBjhWCj1WvQW6AHBLhlEZBXaYf3GUVu3bitaTEXr27HwX3F1lwCIHP8EGpQqJ8hJlJJ54zi9eq4IMnla3SdhJixivGFIIMUDAFwsrNzK2kfP/Jg99elPtSftuw+CKSFU81MOVymCk08+ibFY1s4880xr6A5jYE9Q6otKkmKLPZuSOK6UHcy0fCbVj9Y4aL/3+eeztHTtCutmRZrSOfP683x63Xl8YZRiYTLeXtOrzTSiS9SXCkkt8lie/UZeWeX+jFiZZIkMpHJy0eXAlSoiiQtZ+C6Rtzx+QoBWQUj8LTx6v1uI0rffxy+nhPpRS3V0srJSSkE4F6WL6We7eq40qsBRcCUgeKln4Un4VhpQEMoecm2jOIRqghWrvX3hNB2lU8Ky+PlzhIz2+/Nda0gMPeqBsR6DEOTLTErjokzxo2RKAy9EhPRLdaQkSYjcoYM1o+wFBQ9mqXQxvRRfZhOv1IUi4mS+6FqMTEwermIinzliOWRAkBypLDI6ZoRYeCrddqVRphmwFBEAT7P4oZG14xs3b7C3n3wKa+i/w57rRT4l5A4a0qkXllC+410n8676LvvvKz5vm9c9gnlfiFxscI/NfwW0C5OGuMAFKJUJu/iic5nyuZFhRJfXDSOggKKYxOs4ZEl/x/KcPnqUEZRXX5/yUeOQWKpIVYaYzte589LMGjmxGH7FM+3j85ymTRf4BO9z+JaBI4Z17FCaozgis5NYU2lu9Xx5quA+tyLrcaq2tmqtCFOcdChOOdyb5rFSRQpSHlqSQvUdb/15/JVEctGcRzqEcgrTicOqsfQG+sf9BGK9fz7PiOncqfsEhDDIvWCE0mIoLEGxkY/zT2JHU0qmYqo8RHlaZsYWx4gVM0ODbKWk93bGmqtmE4xjRalRFUpplCSpXyJis6WbTxoBm5lOMfGDZsXk1vz1nX++kwMYT7IrOaShk8MUfOrGe20aAXNZq+1ec9wr7fnPe6Z9/9pryMP0C2EuZvZERV/ew1N32q751S9/zq68/DIW+CwilXqrMC6LlV+UdcZPUaLxfP8AL7LADKxM1h3Mll/Mob0BYg6ZoSXYf0Y5CxUhvtKKydD25amQktC8eAunL1VnmHwchz2pB4WQSzWzCwME6ATiRLfnGXEeKIVhQBr/KEGlMufT5WsrHxdzRFWVT6Mnhb+EZKl0mP44fvD2BnmfCTwWMtt1+3LNBnF7ngWCJbQy4Rd1ddlNN93EzrQT7NFHV7ggea9Iq0kQqzmIYXxi1No7u+2Ud/6zLV66mxcqgZu/4EvcBE+vWB62L1x8jl325c8GgWfs5h55nul5+jOzcfL0Oo6MyTZvgfE520DtGNf6R6Xp9e1fCAomow4jbW4kIT4Zdab5dKqTUC/5EhbmTjio9x5lWbfeUVd2abfTgbLywXeWXWhYkBr3qs4wjsMnsu7C4F5QCvjJJzLKApuNLJLynZzCWfjq4yEhIvm1fZcIa/tyb0su/AKw7TbjLATVKIGl5kI3ppsNsfmkUf6Z6UrEwDCTHCjZwyENt992u738ZcfYz372c+bWdfpqkp6W1DvmdYaazP2gjWfDUJUk5tP8ukRdIZikq1Y8ZB963z/a1752CQtTsBhw5mmDTph6U3nzD0JvhLed9A9w5jqWSSioDAwSy4LRGfOax4aY+Re0AClFyzDz1FMaOpUZ1kQ0siisJt7eqo9O5xHFYYCwa2lS6Zp96MW0lwKrymh2S0opjVf6PlI021WyU/wnegs/eQjFT/J5y+UIeUunC/aTc5YA/38YVN/+KaoYmGyMBSudnD6zgY0dr33d6+zDHznTVqxY6UIeeh4mVHDSaRmy64Ky5EsxJotp1FhKjLANDGyw7377K6zce6Pd+vub2Pe+xD3nmgbUEMJ7d8FMV63zx0wmUYwf7cRk/dZerVzTgY75dLrL/xJQwMpDC15653zgGJoT3HIdUEi2S75FMiMtlhbrGCzNsqQroQglcNZipo6OBp9ClbMrb9jPkq8IzM74GdR7BtOezUVetyHG2yIn+LsWx22lOyP+zU3v/D1wy7ZSUFDf4UfozcU4euXTJM69Jj6N9oUvfMGu++EP7S1vOcHe+tY32+677+3z8NG7ny5ajZoHLUFnxEwPr3Pq+vs32u8YOlx99dfsb/fe6dstu7uC30CzIOqh/TDNREoDPgF6tBHSZek+MBGCQhlbtnIoCA2jtnEsYrv478STonuEo57yGhu0n15iFQU+FJzHX3AWNojOUc690/Hqlew7n6myEnyEJOhKUbbwAgn9yDv8diUFAT+5FdTD9/WNuhM4bCkOeKmWw92uxzNgO79vFm0GBpkzuehKkv69kCh0fJpCPR73abyioGkXntazKyxbtrsfgvBt8MiHAAAKb0lEQVSZ/7zAfs12zMOe9Qw74rlHcsDi0zjYc09OXdHRzFrXLYFT70Pt0KNP4lDbvGEt57jfa7fd/gf7/R9utlUrH2MhTI0t696dHoD92xTuK+/gEl9BpgKF0DyrV8nlTxgcGuUzCDymTmfkzUcItCyDBmYrhC+3Of2Q64AEdJcEkKEeZdo7Xuq286jPwEhDlOaWShSzlj/LfE635IzkCxahYZymqLdsGsRqHMd6Y1aBuETtzopHnoKkYWZNvRAPo6Rjhc63OM13q3HUekHE0jlnadF0sh1876UibRJsCWnEIla4Cz7xcoRJePUeM20dXr58Dxx543bTL39iv/75j62OFx309PQwhbeYHWCd7v3X/vYhDp3s3brJNm9az0EQa+nhdY7ehLVgOSzu5nhlYGc5rVbjaS2KUbnReSdS3f00B8PHKhGOEMIpL6znZjK1ksUpOeZ3KRa0VJxagZ8NvEpMZ74H6SKFnGCJcRxhL+RVbSAzWAtxOEYAfEoprzxGzksIegfHSNX4nofyK0LzuXb+narcaWHNei9tgvgnEXJPRotKeChVUZ0TpfcxaO7cn0dLLcehyqe2XLggFFhqwBcyMHex+E/ZYNPJ2uHFXQ3e+5XGd2GJ0HBXK90kxOvXj9qmzZxUImdWUfAYSQdjfKkFLZtt4i02ddWcn46HXz37KFp8E4c0rF29Kmz+YCNFlsaWAGtBn06CqWPXVRcvitDqON9RxRhU9SAnmnxUGiKpeBW1PWG6kl1ikxkW5GDaU67G66XrOUCXAq7jFcc6StnX6ztDiQGlZXZlkHleZSNDLJSiXivZdxAVUo73U+h5G6IwO5s43BKmFC0Qn0qxa24dDSyoIYYoA4OJU3VeqLhKYFddO5aj2kaSVipsJ6OUAjXPOHVSI+r4lF6dTOlAA4Kb9tXsyxbB5Xvw0gWde769nF26kG2MDZUlofD1NDDY+vU6z45luOBVjhb1+nIQ1bPPuU37BjiZVTaLznGrRshqMJOn2Q8t2nyKzFVEKEvr2tEWPOJDudWsTvL93/RMvtrOCxU0ZQ95RJTfla3bFNmkkaWwoXeMtd1a180KQDLnIeWg5TLJzGxq5tXNCAidCkGpC3PkEu/0m1iuENGKMe2bR3GigFQdrsAch8LK8Ll5mKu9rcaa2OWodwwEi60w3U5Hv0QBGhFmcKpu4fg4rd6sZvOP9Koo1bJihUh17g5is+yX6GitskMPbIZ6dR6hM/AM81DIgpyHG3LN53v2fPA5CTIMRx9+nMNYZgco8zXLZgEObMCzOsi5X66JSyCvQvXZnn5GrDK/fFSHpIEgpq+kG+7tHcX85vAPVgjGQw49QdGXCyMt2dmhbbRslxzRkEBeZbQxfxq/q4G4SQmulJ6UANipG5eDTt06IY77hU2ICXj5w+RrZkz6af5e5WsyuK9vOGEShF49REqBFLICOFFoI+cIkGGedZcvb6feQbSOvxoeppf3fQniitI1EenubNcLK6RYyybdqSgXA3c0nA6O6aJN1PZSUGk6CihKaWgN/5byzvlphn0jWAnKF3kmDAOKS8v/VrkKBbBD1KzfyqdP4MNSSXW+H2TQO6xcsWEOoQdhvWCve1kthwqwingMzU2vKLTUYBG5NLLlC56JTMwnn22ENTNVOoZUyoSmdU2Mylq7aYjxE283nVV9kYmGUeV3tNbRhuT3TSxRYFie634BpeNfZehDCMtmoZZeXlGuBEDDlYgnVCSfJD132x7IP4Kg9A9oBV6oQYdfBpI2RsmJmNFBG9xr/0MhAkJoIUMkHp5AMaqXn4DLfJ0CFRPGtsKnCC8asbaWA0RacJBpDFz8fCFJSJXllh7t0A8dA+xN0Um3salLUJEjSx1RDb4YvQdCw3z5mqS4w6rMUEexBpyXUmXGGtTzmCbHU7mIwlZOZfc8BbKXFOCKFUC819N6eVnoVmYhSotKCgONVZd01+MEwIuN4OhPAuRvhyWd/06aK9zHfjsCgX4h7dqQZ+o1RY3HBQq1IyhoQV1DUG6PLn7m3gjl5/XMDDvWb+JFFFQuYuwgY/7Ca2Kx1GfYicYLJNkmqyBUpAgAlQTKT1AIFg0/Ew3vDEnC2PieRw2qvMqTRz0Cm9dVykv78/W++WHOwhOjqIySQk+8ak+HSDY21JIWGkjsU64RMS91O5GZF8azJaJcKlWbuDAmqZKE5bySwNPbPuCmatVhF+0tWF41nIrD655ojFCPqtNdGmhXcOkbAC822TDaAtnZERI92hW4qLPOdwlmp5IzBInPyYuAwM+K8iDedkcGQxsNHf0vPtQvyZJqMQbuk/TOeHogEFwD1CB77hRWFuKz0FGh/Rjw1aZNE5yFSecXwRVfRYQO629uzuBZraY3lcaWcAWUNU5TmSrG5VIAFFH00c8ZIYDw6Ji8IB9PnE9iRqWPHxKKv3WohBZM9Pez3NVVV8mSAgSImWJc3sHrgauq6FFU8RQgGlWQBKzgoyr0eD2LH4EqTBeAP7FvHx8ivb2MHXUklOHQKxvAV1TqFVANbD+VSHkTFgh82dw7/YHqcIzD/IZHNIUZWza2S64BHQ+hrBFTRxtn23njaljl3LTT8ZyzAPBibRQzKf3gNGfqJAHywJBs6W5YklXJUGW+WXdmOlW/05PB96V3WjDTVLI8EQq10+wYW9zTyTvVeXEB228r6WVdOQU43lTOhrl2TUpw1gyQHZQ/58u1g66pUuOz4tolY1iQFvMpjxKjFbnwLhOm0TYjzDjWNMANkSnAqVue6cUIrTjwKnDcsQ6EIMwEO5Uu3vII8Y6//KpfhTHJ7+LIglxlfqhM8klkVc86iXiAXqVKr3wSHQlOXl0pEF4UZlMDvXw1nns5F1UfuzqIDm3/1ClMI4zlpbs0k+L0QUtxXTqBWCt6e2sLO+r8aCrxm2j/OwiQweup5ZdApcIsvi8AvLz+y+A3zXkO9Qy3unk5pVYXaizPfwgos8DLMSKB5YqROK7Ym0WQ1cnOjAtWcZ5HIq8EplF65cuDUt1n4Kut/Sww6h9CIeF8zj9O3wkoXkfMmqWchVfha6FTkNJJd8G9xoq8rci2bEFQ8KQHZinPMHLSNXLYod5QEqZQlLZ8+oUiSUMSWSl9OiyD9fY+BlSTlK1q9e0syMGBV+nm4CxJF4qIpBxnN5TQwCCOLyxCp0E9tzN2RCbUufoa7ahr4gQmvQBCijt4xHd9u7jeQeo3cUy2nF/BpxPxL32VbOpEqa7uWmvAR6H31BXSXTrfgsTSJnI6r+f9lOPjUkQ6y4eQY/94AxVTOjuO89baMO91oJ8ETdrINQ3plDQmXxDkYyHq3DjAcx1aa6vGwOq2Ya44jRKT+RUEvZehV+loa4LB1DsKa7Fo+lOQa6f/8JKTCtQpJ33MzU/LWkFApKXlA3E/SMQkqWjFVdXo0EjaAZo01ITF+JYq2HVBOMg0H4OpRt3ZKwrVUAmRfq/fIcgC0LqwLo6srsTLHcegQaXFVLviCr4IyCh09NIz+tTpbBWbPHOLBlp7uhuQD0VKUqgDNWa6211gkpwrePvUGHPzj28ZtKymgsHh/wGgZO2+Jh8gIgAAAABJRU5ErkJggg==;" vertex="1" parent="1">
          <mxGeometry x="299" y="170" width="253" height="63" as="geometry" />
        </mxCell>
        <mxCell id="DZ-_d3KtzLlh04xcQ-5O-40" style="edgeStyle=orthogonalEdgeStyle;rounded=0;orthogonalLoop=1;jettySize=auto;html=1;fontSize=10;" edge="1" parent="1" target="DZ-_d3KtzLlh04xcQ-5O-36">
          <mxGeometry relative="1" as="geometry">
            <mxPoint x="426" y="120" as="sourcePoint" />
          </mxGeometry>
        </mxCell>
        <mxCell id="DZ-_d3KtzLlh04xcQ-5O-38" value="User with ETH Wallet" style="shape=umlActor;verticalLabelPosition=bottom;verticalAlign=top;html=1;outlineConnect=0;fillStyle=solid;fontSize=10;fillColor=#FFFFFF;" vertex="1" parent="1">
          <mxGeometry x="410" y="40" width="30" height="60" as="geometry" />
        </mxCell>
        <mxCell id="DZ-_d3KtzLlh04xcQ-5O-41" value="Bids ETH using&lt;br&gt;wallet signature" style="text;html=1;align=center;verticalAlign=middle;resizable=0;points=[];autosize=1;strokeColor=none;fillColor=none;fontSize=10;" vertex="1" parent="1">
          <mxGeometry x="425" y="120" width="90" height="40" as="geometry" />
        </mxCell>
        <mxCell id="DZ-_d3KtzLlh04xcQ-5O-43" style="edgeStyle=orthogonalEdgeStyle;rounded=0;orthogonalLoop=1;jettySize=auto;html=1;exitX=0.5;exitY=0;exitDx=0;exitDy=0;entryX=0.5;entryY=1;entryDx=0;entryDy=0;fontSize=10;endArrow=none;endFill=0;startArrow=classic;startFill=1;" edge="1" parent="1" source="DZ-_d3KtzLlh04xcQ-5O-42" target="DZ-_d3KtzLlh04xcQ-5O-36">
          <mxGeometry relative="1" as="geometry" />
        </mxCell>
        <mxCell id="DZ-_d3KtzLlh04xcQ-5O-42" value="GQL Backend&lt;br&gt;&lt;br&gt;Checks signature for validity, inserts bid into DB" style="rounded=0;whiteSpace=wrap;html=1;fillStyle=solid;fontSize=10;fillColor=#FFFFFF;" vertex="1" parent="1">
          <mxGeometry x="300.5" y="280" width="250" height="60" as="geometry" />
        </mxCell>
        <mxCell id="DZ-_d3KtzLlh04xcQ-5O-49" value="&lt;font size=&quot;1&quot;&gt;Checks if bids are valid (enough ETH)&lt;br&gt;Listens for NFT.com Profile Mints&lt;br&gt;on the Ethereum Blockchain&lt;br&gt;&lt;/font&gt;" style="text;html=1;align=center;verticalAlign=middle;resizable=0;points=[];autosize=1;strokeColor=none;fillColor=none;fontSize=10;" vertex="1" parent="1">
          <mxGeometry x="560" y="360" width="190" height="50" as="geometry" />
        </mxCell>
        <mxCell id="DZ-_d3KtzLlh04xcQ-5O-50" value="Part 1: Blind Auction" style="text;html=1;align=center;verticalAlign=middle;resizable=0;points=[];autosize=1;strokeColor=none;fillColor=none;fontSize=17;fontStyle=1" vertex="1" parent="1">
          <mxGeometry x="100" y="40" width="190" height="30" as="geometry" />
        </mxCell>
        <mxCell id="DZ-_d3KtzLlh04xcQ-5O-54" value="&lt;span style=&quot;font-weight: normal; font-size: 13px;&quot;&gt;After 48 hours, the top 3000 bids&lt;br&gt;by wallet address were added to the&lt;br&gt;blind auction merkle tree claimer&lt;/span&gt;" style="text;html=1;align=center;verticalAlign=middle;resizable=0;points=[];autosize=1;strokeColor=none;fillColor=none;fontSize=17;fontStyle=1" vertex="1" parent="1">
          <mxGeometry x="80" y="510" width="230" height="70" as="geometry" />
        </mxCell>
        <mxCell id="DZ-_d3KtzLlh04xcQ-5O-57" style="edgeStyle=orthogonalEdgeStyle;rounded=0;orthogonalLoop=1;jettySize=auto;html=1;exitX=1;exitY=0;exitDx=0;exitDy=0;entryX=0;entryY=0;entryDx=0;entryDy=67.5;entryPerimeter=0;fontSize=13;startArrow=classic;startFill=1;endArrow=none;endFill=0;" edge="1" parent="1" source="DZ-_d3KtzLlh04xcQ-5O-55" target="DZ-_d3KtzLlh04xcQ-5O-34">
          <mxGeometry relative="1" as="geometry" />
        </mxCell>
        <mxCell id="DZ-_d3KtzLlh04xcQ-5O-55" value="Deployer&lt;br&gt;Key" style="ellipse;whiteSpace=wrap;html=1;aspect=fixed;fillStyle=solid;fontSize=13;fillColor=#FFFFFF;" vertex="1" parent="1">
          <mxGeometry x="180" y="610" width="80" height="80" as="geometry" />
        </mxCell>
        <mxCell id="DZ-_d3KtzLlh04xcQ-5O-61" style="edgeStyle=orthogonalEdgeStyle;rounded=0;orthogonalLoop=1;jettySize=auto;html=1;exitX=0;exitY=0.5;exitDx=0;exitDy=0;entryX=1;entryY=0.5;entryDx=0;entryDy=0;fontSize=13;startArrow=classic;startFill=1;endArrow=none;endFill=0;" edge="1" parent="1" source="DZ-_d3KtzLlh04xcQ-5O-26" target="DZ-_d3KtzLlh04xcQ-5O-55">
          <mxGeometry relative="1" as="geometry" />
        </mxCell>
        <mxCell id="DZ-_d3KtzLlh04xcQ-5O-63" style="edgeStyle=orthogonalEdgeStyle;rounded=0;orthogonalLoop=1;jettySize=auto;html=1;exitX=0.5;exitY=0;exitDx=0;exitDy=0;entryX=0.578;entryY=1;entryDx=0;entryDy=0;entryPerimeter=0;fontSize=13;startArrow=classic;startFill=1;endArrow=none;endFill=0;" edge="1" parent="1" source="DZ-_d3KtzLlh04xcQ-5O-6" target="DZ-_d3KtzLlh04xcQ-5O-25">
          <mxGeometry relative="1" as="geometry" />
        </mxCell>
        <mxCell id="DZ-_d3KtzLlh04xcQ-5O-65" style="edgeStyle=orthogonalEdgeStyle;rounded=0;orthogonalLoop=1;jettySize=auto;html=1;exitX=0;exitY=0.5;exitDx=0;exitDy=0;entryX=1.012;entryY=0.505;entryDx=0;entryDy=0;entryPerimeter=0;fontSize=13;startArrow=classic;startFill=1;endArrow=none;endFill=0;" edge="1" parent="1" source="DZ-_d3KtzLlh04xcQ-5O-29" target="DZ-_d3KtzLlh04xcQ-5O-25">
          <mxGeometry relative="1" as="geometry" />
        </mxCell>
        <mxCell id="DZ-_d3KtzLlh04xcQ-5O-66" value="Random assigns of GK&lt;br style=&quot;font-size: 8px;&quot;&gt;to Team (capped at 250 total)" style="text;html=1;align=center;verticalAlign=middle;resizable=0;points=[];autosize=1;strokeColor=none;fillColor=none;fontSize=8;" vertex="1" parent="1">
          <mxGeometry x="485" y="655" width="130" height="30" as="geometry" />
        </mxCell>
        <mxCell id="DZ-_d3KtzLlh04xcQ-5O-67" style="edgeStyle=orthogonalEdgeStyle;rounded=0;orthogonalLoop=1;jettySize=auto;html=1;exitX=1;exitY=0.25;exitDx=0;exitDy=0;entryX=0.5;entryY=1;entryDx=0;entryDy=0;fontSize=8;startArrow=classic;startFill=1;endArrow=none;endFill=0;" edge="1" parent="1" source="DZ-_d3KtzLlh04xcQ-5O-6" target="DZ-_d3KtzLlh04xcQ-5O-29">
          <mxGeometry relative="1" as="geometry" />
        </mxCell>
        <mxCell id="DZ-_d3KtzLlh04xcQ-5O-68" value="Upload Winners to&amp;nbsp;&lt;br&gt;Claim Contract" style="text;html=1;align=center;verticalAlign=middle;resizable=0;points=[];autosize=1;strokeColor=none;fillColor=none;fontSize=8;" vertex="1" parent="1">
          <mxGeometry x="270" y="655" width="90" height="30" as="geometry" />
        </mxCell>
        <mxCell id="DZ-_d3KtzLlh04xcQ-5O-69" style="edgeStyle=orthogonalEdgeStyle;rounded=0;orthogonalLoop=1;jettySize=auto;html=1;exitX=0;exitY=0.5;exitDx=0;exitDy=0;fontSize=8;startArrow=classic;startFill=1;endArrow=none;endFill=0;" edge="1" parent="1" source="DZ-_d3KtzLlh04xcQ-5O-5">
          <mxGeometry relative="1" as="geometry">
            <mxPoint x="530" y="885" as="targetPoint" />
          </mxGeometry>
        </mxCell>
        <mxCell id="DZ-_d3KtzLlh04xcQ-5O-73" style="edgeStyle=orthogonalEdgeStyle;rounded=0;orthogonalLoop=1;jettySize=auto;html=1;exitX=0.5;exitY=0;exitDx=0;exitDy=0;entryX=0.5;entryY=1;entryDx=0;entryDy=0;entryPerimeter=0;fontSize=8;startArrow=classic;startFill=1;endArrow=none;endFill=0;" edge="1" parent="1" source="DZ-_d3KtzLlh04xcQ-5O-5" target="DZ-_d3KtzLlh04xcQ-5O-34">
          <mxGeometry relative="1" as="geometry">
            <Array as="points">
              <mxPoint x="795" y="590" />
              <mxPoint x="426" y="590" />
            </Array>
          </mxGeometry>
        </mxCell>
        <mxCell id="DZ-_d3KtzLlh04xcQ-5O-5" value="Profile Auction Contract" style="swimlane;fillColor=#FFFFFF;fillStyle=solid;" vertex="1" parent="1">
          <mxGeometry x="700" y="810" width="190" height="150" as="geometry" />
        </mxCell>
        <mxCell id="DZ-_d3KtzLlh04xcQ-5O-21" value="Contains logic for originating&amp;nbsp;&lt;br&gt;Genesis Keys, assigning mints&lt;br&gt;to NFT.com Profile, and&amp;nbsp;&lt;br&gt;how NFT.com Profiles are&amp;nbsp;&lt;br&gt;governed in the future" style="text;html=1;align=center;verticalAlign=middle;resizable=0;points=[];autosize=1;strokeColor=none;fillColor=none;" vertex="1" parent="DZ-_d3KtzLlh04xcQ-5O-5">
          <mxGeometry y="40" width="190" height="90" as="geometry" />
        </mxCell>
        <mxCell id="DZ-_d3KtzLlh04xcQ-5O-71" style="edgeStyle=orthogonalEdgeStyle;rounded=0;orthogonalLoop=1;jettySize=auto;html=1;exitX=0.5;exitY=0;exitDx=0;exitDy=0;fontSize=8;startArrow=classic;startFill=1;endArrow=none;endFill=0;" edge="1" parent="1" source="DZ-_d3KtzLlh04xcQ-5O-7">
          <mxGeometry relative="1" as="geometry">
            <mxPoint x="789" y="960" as="targetPoint" />
          </mxGeometry>
        </mxCell>
        <mxCell id="DZ-_d3KtzLlh04xcQ-5O-7" value="NFT.com Profile Contract" style="swimlane;fillColor=#FFFFFF;fillStyle=solid;" vertex="1" parent="1">
          <mxGeometry x="700" y="1030" width="178.37" height="200" as="geometry" />
        </mxCell>
        <mxCell id="DZ-_d3KtzLlh04xcQ-5O-31" value="" style="shape=image;verticalLabelPosition=bottom;labelBackgroundColor=default;verticalAlign=top;aspect=fixed;imageAspect=0;image=data:image/png,iVBORw0KGgoAAAANSUhEUgAAALAAAACuCAYAAACWa4e1AAABQGlDQ1BJQ0MgUHJvZmlsZQAAKJFjYGASSCwoyGFhYGDIzSspCnJ3UoiIjFJgf8bAzcDIwMkgyyCdmFxc4BgQ4ANUwgCjUcG3a0C1QHBZF2TWMVEz39r3+3Nf7D0tVMgu2IipHgVwpaQWJwPpP0CcmFxQVMLAwJgAZCuXlxSA2C1AtkgR0FFA9gwQOx3CXgNiJ0HYB8BqQoKcgewrQLZAckZiCpD9BMjWSUIST0diQ+0FAXYfd4VADxcCLiUDlKRWlIBo5/yCyqLM9IwSBUdgCKUqeOYl6+koGBkYGTEwgMIbovqzGDgcGcVOIcRKtBgYbDsZGJi5EWIJwHDYdp2BQXQmQkxJhIGBewEDw67OgsSiRLgDGL+xFKcZG0HYPEUMDKw//v//LAv08i4Ghr9F////nvv//98lQPNvMjAcKAQAAQtc6+ym2ckAAABWZVhJZk1NACoAAAAIAAGHaQAEAAAAAQAAABoAAAAAAAOShgAHAAAAEgAAAESgAgAEAAAAAQAAALCgAwAEAAAAAQAAAK4AAAAAQVNDSUkAAABTY3JlZW5zaG90X8x5BAAAAdZpVFh0WE1MOmNvbS5hZG9iZS54bXAAAAAAADx4OnhtcG1ldGEgeG1sbnM6eD0iYWRvYmU6bnM6bWV0YS8iIHg6eG1wdGs9IlhNUCBDb3JlIDYuMC4wIj4KICAgPHJkZjpSREYgeG1sbnM6cmRmPSJodHRwOi8vd3d3LnczLm9yZy8xOTk5LzAyLzIyLXJkZi1zeW50YXgtbnMjIj4KICAgICAgPHJkZjpEZXNjcmlwdGlvbiByZGY6YWJvdXQ9IiIKICAgICAgICAgICAgeG1sbnM6ZXhpZj0iaHR0cDovL25zLmFkb2JlLmNvbS9leGlmLzEuMC8iPgogICAgICAgICA8ZXhpZjpQaXhlbFlEaW1lbnNpb24+MTc0PC9leGlmOlBpeGVsWURpbWVuc2lvbj4KICAgICAgICAgPGV4aWY6UGl4ZWxYRGltZW5zaW9uPjE3NjwvZXhpZjpQaXhlbFhEaW1lbnNpb24+CiAgICAgICAgIDxleGlmOlVzZXJDb21tZW50PlNjcmVlbnNob3Q8L2V4aWY6VXNlckNvbW1lbnQ+CiAgICAgIDwvcmRmOkRlc2NyaXB0aW9uPgogICA8L3JkZjpSREY+CjwveDp4bXBtZXRhPgosUdFVAABAAElEQVR4AcS9e7Cm2XXetc+lr9PTM9NzU89o7tJYF0uWIsuyo1QScwkOBZhKmRAnQIr8kXKIbWynCpsiFCqgKPgDiiqoEKgUpopQlguIqcKBUDGEpMDlGCM7ukbyaEaa0Ywuc+uevpzu093n8PyeZ639vt+ZHiMhWbznfO/ee61nPWvtvde7v/293/edszXGONTj/9djS963h85bO4Mfji2a22hUcjpEwIPfqiPXodbYohc8aJTeMppqbx1Kif0sJRb/NAGD7SLAcB6mDXnJHEXgbYem6qaJUTgnU2FoA1odcR0h525HsgJSLeEhnWzAgSrT/2HGRO1DxlH9nti2KVOGNnbCNBmc5jrA2zhg3CQ4xIcO4w5vjZvjYLGx5rt7cojfXZeb3giApN0ihbe2PWhbyiSPqaPTyYkbWQDh2MrYCgtGA4udZgO489Qsa3/gynapTAA8NU2SBUgsnfMT+C1UYMmUbxq9lXwTVa0imMn1VinjJFv5q7ZZqhOdxGsuAnQSC2hXCu7Qtig6IizSRoU+7YNxSz/VavB3rfyWxvHbiuo2nlh1t/nZ2jU1yaKmUwe4Gzpbjq4O5yoDa1HkxrTolgZYC/nWgci2JxAiT8iKyozNTDQbgrS+qXNzLARaAdXImVA93SpT66i6xI7673kcAXfSNLdtm4SuOtMkpewAXS+L4jvUKtq2JHInM7KjidxYu7mVPh0eYn9r3Ggek313Thnj746v6QWnJK7T16suqyZTyzjr7DyqViWdlcyDxgoTH6qAYtymjNG3Tc1OcRkXq5hydiZHc1S/ggK0nzdjWtIlVuV3g6BlXbaS9vro9pLk4Vtj3qquZCI5dTTLrJfciUxPCLeSOimITVkh169TuscZAb9lg63xlpVckgMlMutxaXH/+364K7/vXo44yE6XJTKDud17XScesiS0R82jLZEGy/nW7XUpnQ96Y46lRFRQFUnEtK1Be9sjWhO2uXCLFKN2Sx1Nt7veJfqjR+u6PKpPW4y+IFn3WMtJjd/bou1ItjXWuSdTyiVS+OPCUislsAsDUW+syBhkH2yN+YzUyQmuJGZnTBp/N45vZjS+I3HgiJEhebf1Yo1B6lXXdZ/mJW9dLIRjLBxpsSSTvd+1PCfgkDLGLiLAlAtiaXVtXVZql6hb5U/Sno6mOewYsHCSlSkFoDboNuVa5kazRTnVyTKEqwNtbxY6NUnS3+MQD/qjKNvMUxiyuiZwu2fQKw4KbysqXGNx661D+H3BQOXHoRL4Vq3GAH//jqND/fviCSdOXGa2k1f17Xp67+zKPrZHKXmQFglY8soOXqxxF8HPdb2CM3gNU9UbjGknwRE9YOBz76v6+rC2+VY82/J9oAn2hWUGEorkykHCdLzOA3FAQyK41IkJj/cKS8C234jTQukqmdbxUbcaW/PRDgtnfC1HMNE6AKucmL6zII37CKJZVJt+IzMefWB2Qs/ZPnC0HLtbhzfR+NnDyt+Hk8fz94F3UjJJWnP1ky2DV91aaJ04q8TwpKvj2Hjw69QTzWg5aRal/KiRX/u0CtyKdwYzEWFceBfEtCt7MMwVvEzOnOPyOWULRaNLYsvb1DcM3IDLR2V9kqVkjkL1CUq9TaRoRNVod/TNQUnyLVhLiiSRJhGDrLP0JGIGgboeAi8XDQI4lyR24uvC4Cer8cIL63fqWI/ud4pz8pCn21vHshIymLVSsudlcOslWGVFxmedoASXV3S1WjlaJiWaLkAhSfKVDqGPbqvkV6O/YhAi8mQmBtIyYSWOhPP6kFI96NjMYTVyDnSNaVnLKW93YLO2WzBIORZtS0razUpuUqVvl8WqrSlzOIXXiawOb9jApdAXamr1KHnrYHTCulL3haX0vWOV6G5taUuh+8bf6aNH+TvN6+T0/d3eMmjp6kXR93vlsUs7V0d7R8HI8dNJ4HobWx7NWj9XztmT6hp+nY26YOaIS2d6TqsDPXiKlXhpHdHQnJxl0LIum2fd7nqXjdkom3gpu9awtDmviHo7ICmaWhOrdZQBjH4sLh2F6Jy/upI7MaM1WgCO2CHPxY4OQ18+toOj7aUcNw9vqCDBv3PHquffGVKmnx9eqPlWmTyQXOSf11HX+2kZ99KrR+gZCX745XDdFQQGTJkhcFkOqA9polxWW5OXfl1HhE/jV/4mZ3GtRxwRbWyYuTqWWksoDVoLUpc4SbOp8gqIlfinyzdRoOkH4xjk+jxZnUGgg2rswh6rxpNsCybSbkOVWWu+thVC1TkUNNrfal/c7+B5O+G9cXv99so3Dc+3R8eLNW0M9MZEXkCp09ou4KSf3jdWXcnzPkOnIcjGukaLio+ugbZFC9baujfsi6Ll4DpLLWvWtd8mU9lVsMyH2wvWb0tbOJUrk0UWQ7Wx9wyju/3RapIYT0ml2+Cb3okCV2OSap1wG16cYVqNfeW1hewq2RprJsRetx30ZDfWovagEnuPDXXZuR7aLfk6OKj1336QA2JPrFtt3k6o/W0eifLbJGlzv1RT8jIBTlixJ2+k6QSqEscZT0DUq2xcLgEPTJI/nfVqnlGDIa4nZ5KsuY4mLXgsYtW22rhAXU0Ig6KWw21hZmhrsCEYHyGZ7cQdB2tMy8vJbYtKljJbpc6b0aarp+/SNn6CnUBJ5MW7ak6wDYll2CPtoXGrBHNrYAzCYBeWkojb79RJYZ3a7I25a3Go+8WxnBF+y5Ue+W/ZcG3ABO9oy7B1yOorSuUEMsi3fK9M9WX2V+/uJnk6QVN6J+xk8bg2j1em6OLb7HJAmUGOJO2WBxtErHU3xMMmXEOjZmZLpnhrJkJfQJOt6xZEKiCTyjMMUxlUznPiF3jZLJMaVTnFms5PVySBEART8iDBlK65DWwtnlNvtUthgLHa+362G1ktgyt7MNO+eVaS1RZhDpjwC1NhbarbafJDlw7Yp5PAerAafzu7Yvg6ssT+LZ47Ufk8AyswEZKIXnFV8uOoc/IZp36+Qc+k6DBuVcYoT6eBBGcwLAixV/SsuMYEGMiKK9zYY1MMYGfPQaCIIPXgfC7eRV4kK0hX30ozXTXw9ywX9LLSYbCS36a+pFaRk5jGRRPrhYMsNoJEnvSWyGzBEUMhTLzSmD/Q2LleF9XcUsBuhVjg4lFZTvIe6MXd/9ckXmbNoX1rJ4y5v7sztG1wQyf/ksBJZguqx3UXrZxktb5dUrQMSiepLdxSe1mFSX6kJHECMJBG5HVuXeWhBtNW1mJBK5cKrT7EsfLV0qNlMzmEVkoYzkXqtppTEoAsOjUWi6ZZl0siw8Cjj7ZfST0gJZ9w2p0ma/slAmutKqNZF0b19kTZ4cOZ8ZfU40qp7BTAN0QA6iB+7+w7gZEZgK7ffLZD47/ZU8fxzeI3cKy4WXmZbFFVzip9M/kVPB2cyaNudHohLEjJmj580XGmY5A3Wi1V19YeMaEaQQxpGOhBrvXcqAWnpg8kkfazQikm59IO59Lumkooeh5CtyhbvkgMXZtYxSQXzZt0lks7uYLsZsrI2k3YMKTWiE2LJiSJBatDFTdKoCKXAO1EFk2dpyFessRG0+xwo5OU0gUnPsumTxazraDxLRy3G59vyhzD3a3j6oZq/JKMyhlvIyJwYOC8kDku0AZH54S0pHyCVprVyhcsqrKh1MGdiyRZ8NYH5TP2M9ftV4HVEYb2CS8K2tG8CYe4xnRytqxN0LtegtkuQ5RdpdJEzGBztOMuwWNGqQeL27IKNyhl5HAB5FcnHTmnhgy3zZdUbGRjcBmZ34QgNvKQjwDasAthpi+HWVbwgMEzPCqF83YB31ZSKlG5Q1F9Clwv6ZzA+TQb0G/mIMSln9+MhTAk6U7dbSCITl4nDitfHZDz4EiCAFZylSRyN4xIW8g2Mnn4elVENbkcerOVpvYpvhNhT5up2WizuBFJfK/OJV5iQcdRCkatlb3Zs55JU2VDZgUGVakhN65ElRB5Pn7zlFT+GIz2dsnshOlEY2yK33Is8SF5c+VzvJagrSNozo6iwbScifgOtJG0Iuoz2LK3RnVE3X3wcEnoC8VtAGw7uFP8zSfxegiJ4//14KmZ5HUaynq5z6u7ED2hYoE48aaWOkIsZys5oJ5ZIvtodHZFyRuBilSywi9hRq4ztoXlEmMw0DGMlPxwJMYJRGJN23ZpsE9wQYZN2a1noqRChKcqmCDAouuqvukA9uajpHZH3cugygVtTgwloo+LBiE+kUTaesfiC0VyNWylqlfESWhz65rVLOgnZ2sQwQUZKyp3YhLrRKhNfXLYb/mQre3BUK+4/emJsgvyrc/5KsRb6zc0pB4JNNfQ+SbFkmgYqPXmw52sRFInvBgYtbKlB+B4eOopu7YkoYU+xdZJSVI5sSpVY+qI7UucpZnmljSuyvaWUlA40Tm2KlUYjkpyVLPPKJCrSD+6rraxPJVL62QAFD0cHBa7/2nHv9gNIDl0yClvFHBwdr+KoFIlPqShHagAjovIaqNgY524/WkkAh7F6RYLgKQzJmLXCzdkBDvlBuuEJmfHEmPzl8p6vDhu6MDoFubyBhFfMUsc3R8b3eZk+tvIbyva1d0G3iK2Y3IHa+83kdBI4EtZcgGjF4bfxBa87Nd4+EoxGdu6FKWW1LxqegTqskoYkuEKTPHF2DKIga3HfiYKuE7asnEBX3PbOkp8cDDQeGJq2+Oqm8aAXSYVbdqT1qjbTJmg7mIT2qCS2auzDec1ASzXRxvQpq6VbuVswcgnk6Lf/likG6HFCkafLadJS4lctfjzxCL3r3XUbClnC4MJgPkBDz62dFciMSmOg74z0f0suiMF3QnbEcW6CcifbNDWgUH3tgEhCUQC81NM1H2I1SvNkQTdTIKgY6FzYyfIzM0Y37T4LQzpMn3G88RN3pZEkFgnlnRDUcopPyppL+AYMpXEQD9XNlQbeUS80ezJRLhMQKTL6nNUu0FRYbQ1E70kAKTRLJ7STjpai8BdoAKu7GeyxQKvpaXquk6ukXH8VCsyt9ULZ+NKX+1g28qmuQOBHj6XVA90b4J365Y4gl7OjP1ba6UEwIRk36vJ1qSRZ54kkncmUrDLWZbo2xd2S2vWrTfHEbwRbaESoFfG1KPhPD1UpGtZaaEmji7nGpn4GIA1C9BFEk3sw71+Bgm2zgTp0dTJAUu+JreuqLtew98wJgtftHtVpDXhkkebc2MtjlXpSYRIOeeWawQ5k8gFoFCn3FY9NZ2tXlZZeIypcwAYtAUIHTaULJOGEcJYFRZJZKWW1peW7k4AP9QXRjn4UDzv1jXKwtVps/8rRVeZYrYOTkYC4tev9LX2VYJCYkUZeZqFZSqsUz0YADDSkha+SkrsaebIutqt3mGizzt84qjnwjDZmsC8PVl7a86Um6ttx9F+aGfYmq+Y2pdImIZ81mIGK3OsaC+ejSu+Rq5l+AwbtfVREy1RXyh2z8RPosZ0tEsEljicWpGJrWDOK/Eu1iiSoEQQGOcg3O43G6xdyY0BGit4suJu8pjXkIUXKpg4/Pay+pUWbcVDX+HlV6VTWIl8u4Mhadvb6ElebR7Y94LkpOT1u2waftKBA9VyVivgKfe0GrQgZ01JZ2vbwEKC9yHL5iphvC6JgsX6J1xlL5vpx9EurfbQCJfyVdFY7QSyCaf2GY7F/q1q4Hua3gqzyJmENXMsl6lxjUn1Shm7TphMYZYL7BYrcJXI2NZBrW0XP4tdyyhtVaa8Y8Zhe+tKgcTVo0kMOhdIuzfj3DuHaeEEDZdQYJzLJtY9YrYSb/6qKGMWBCxHDhJ1ZxxzPs59r6Y4CRxwppZ60ghwT7WlnYDr6TEG7dHkDZvPTmxqYlaRGvg1O61cXFkV1aY3AduO3XsLEB+1NqhsYtaobqWU6eZhsU4abKqhWGO7vhreBsqCifSZznXMPcvTUysCSToho7bipeVmYsF8ExEbp8fKDBt/oAe8EoY7Gx1C+BcWm3k1rqf68hFPeNTRq2fFtrgiExckDAVxnN2Q1GKGyR+3dICS+cUd3+rQZyY6QPzpmEOa5nJmLer7vd4yCJl3uNYr5ExBG+YVf6UIeNPjotMm7npVJXkas0bAmm1KAmyM8RoI5jyepYGDnuMv9Kn74kBgsP2khi2HWvbPoC3e29cmtvDrorcVyOrAhklbl62bZSsLi3yZ6EYpcSbuttqyQZdU88WwMbmxW1IQ7qRILOKrcqRYFj4cONGsCRcWxnsFbZZ4MML+i0P1lRWWaRtT3AWIps8dV1ZzS4UjiQ+0CvOnrLDuYw5TC7rc1crrlVaIrL4kC8nbk52J4gwJ+8/UQzmTtPXG5OQnanhjqfOyElMnEQmxpOY1uhKu683Qq67jwAWWurcJPbL2E0FQGzJjCr+MjeBB8SGVhbs5exg3dXg3GB6MlkxEs3EwOeXB/TW8EEsYqknhdk0+kLp+lFBBdrJ1nJHjwSmw4XedyO1nKVVTgvYLyNDDQeIshz8SKRl28RAG12UUu9i0ppG9zDen9diYTSgJ6J8lup2G6+4nX0viplsf6zFrmVbeY+x8Pf7seZnIbX2ut6cKIx6cU2by0wbfmka1AfhOrNapjZqshW8m6YqjZEl0MLYQmq53DNTgCl8QrZVBjBCXRfmzwITzRRPY3pLUmMYOGmqdPTQSQkqjcgKyVq9UC7YBKF1fyLIZ6CktThdgOEqHHUHol3TK5qRkLsBvpApSHSSBUwRTH0Ym81Y6SacsCQs4rLLvb12UxDrjpfNKjST4tnJbGMPqD9wtF5zhCz84fDgM1RV39sNEsIxxrCzYHseUwBybWwcSxaPlFPEE9QfYRdvJBaRxrpE4CqITlJU6LAtfcqv2so4B7+xddQAWgL/FMPmQ19Hpav+16qIKmtU8aR5ZpOaxgHaOGc0qOftOB2QLMtOQ9nLOcMKFbGk1e1sxBWuu6HNuHdaTmQksA09y120iJHrqk1RtyTiazzXzaCzqhVgBZMd6lhUtVtZE3VsFceejjyCWJLYVq/XKH4aOyHHVBTX1pg3HlMU3naieGIQXvPnsW2tq1d9iy1YiLyg33kpmEnf9ZoX6xdvEDAqnSjo3TU+PonLTKV14O5WOHww4WMWd8Z280aOKj8g3+MtB76uZIDj7oEYHIyWNDbDEMhHnorJmyluHAAQcYV3VTcWpEfhavBtP4J6EukDckXLTjAmwEtBWGqmUmWTVvf+ZhQniKROYZyTqksa0Yha5xpR7rUQQNOZw6qHYAl94Eh3fGKmkKW/YLPZBRYU8XCZzf4hDaNUZ9QPnhvhqLFQJwQxW7YpnYU5kcPItHvsWJ1LTqCyETQ75Vs9qW7O1rXeE9dbzob6qb5sm5rO93Dbj8IpJEtdXgipF0Ngo8WHeyQchWpDYu0jstgGHkHNqVhoYK/usQYouNm0VxuUcnuZFTgD5QyoMSnmx3NzofUhDVQH3/tlxlcyTIIDRxGMweOp6NA/yqW+lSczLeLz5CI73/ftGPyu9J9Fg4lar6VxykisVYa+2ZMTvNdG+iqWA5nCA4GNDSfpm1VwSGUu+4HO7A50ZWJG9KoOSRM65MWFm6woXdOQ6ZyuBjvGmtMUs6VhkOlfskWWjQ9f8WWF8EIIw9Jk3OeYKTArl7zgI7QljkplEfjJwHiOrZ610nbwld8GJ3sGzpL+Ey2F5rmS7dL9k58aSmIlgMUsNPY8+VHe8i5aolzRekK4dTV7MHCsVrngVAB0LVTX0mxBRFLNlRyNMGxQP0sQSTw4xqS3ediG31mfyWJFo16T2FSZhheI4419nfTjaENk4Ihpw4wsJAfQqt0SCA2npJ9HRTAa8VRILXDG3DQR4zHHoudSKKFxL7doxFAodARGaYsFnErdZJF5VFybkKPSozvrPe5mh6PgLOv6QJLh+4aY3MDjK1B2gHgnnJKa5J6q0Ehrrp5hMFolhCxNySgL63TVmkQMy20ZXLNEFIF5+luTtCyTyQG3nwIrX0VjqmqO0KrKKetFNj4mHJnDGfrEId2StA9lsqXNuTNfXJfVwe2Zp1pF2khFR67ssiZOVepKRZoYT3ILNqlYXhjVJnyRxcNl7wrOyq1bQOttBfJFQ/PgWMTbSdbzRyNhcwqNzC1zLwafuohERqhUbEP7IDxecnijwwXdwd5kMVgPuOvjwpJPDR5LXQ5xE7AlcphLLTCZcROez6vwQWNsEBb4SMMAypwEysbQN6BzYdGIjEcL+Vkh8eklrTylni2C8J8d67SfDl0CEbgNXZgOPCWV1Np3MfXFKbvdFR4FFDcvKanGxeO4LPbqWx5iEqTny5EbraHTKNCe2NcvkYBZqPvSnCYMvpVdPr8TMGxw70vd2YuVHuslHh2jowZ4YK59VyTZBAs9FJyAKQLxhAo8Mi8xUvuJKICCcuSjCLEtJ6b8sedbRcMzx3tbau+u3i3Ei4x2SJF3BnAfnJEvVq41LI4kCW7fTmU6QIEpnQC6OTEd8weoXi3YGNnjLZyvJayievLrDHg9pmyBmpQm+MW296YHYcyzlOoLmsNse57KYulV7VqG7DX7q12phnZtlM80cklolSErQ1oO4bQQjmvyADS4OfF8XCAof0sqOVXtKajtRDGXPhdOI1BYbyZ1lsfC7eobKRnKqWOeCwSkSyfHrPqq9jp3mtCq0Y4wtOjMQJ/x67M57vj2BziqPGFY28FS3XuHYd7WD1FnM1CMGk/S0XkK2LqlHTuNQe7P5B09whkzFkqYIEWNj62qrvkpedN5GeOmDIzG2Da2OC4IN/lqNkwj4iB+fORG3ykix1kFb8l5p4WdoHacVgRnoCSois9DDHP1mgbl1Auo4C2K5oDS9umFmKp1Ygth3OuksROsYkqxFYtJoIGIRym2zGhPvj0kzHeZbe4OXxYYkLww4eZkeeyCQ2Jdw4tRtAreNm6srLWLAh+plgizjR8nBfLNH1sFJwsgtkb1eJ+gOhCl2to7r30lUZ1h5PYKZYuC0XfocxkxU1w2auITWCSfLaU+15djmmx12B8wDRYk3ypw7edMuvXhogzXePiKxWaSpUpfKOJ+LyQXxcETmvmakLCpkII3SZBR6yiM4il7UGX70GZ2ejlqG2r3FndRwZr1ZeDo0JNTd9gWykrgdJPbB6RxRSRb8RMiu8fa8wYOEBF6SOOu2LMD1RauqP/o42/nwDa6NqyDw06sy9aZ1Xe0FKx1xaSz6MxBLBOLWfeFdpwJjyyzjaSaH6nLjr3lsJJ5w/sWIo8turZKUxLL6yKRLyKvI6GTHKrDiDCM2XFrNSwloSV7aXm1tDLItYxMHa3n0m3LJ8hvrNYTx8FGxJkhLPFTlLxgGO0TRTalQqwsFfvPq1CtRoG7Ta2g4GCM/LdOopOjcAML48areE28jCcxJLL1mJ5pcGB6t4FexO1fVJqkIzii4K058seDYj845IjWNXZTccVSdudIzhFsOFsuOS/6cnBWzQO679fSJA11WYkYQJrxahx/1dRdeDP3re74YBuQbOk7eyIzEQOAMhaqeG2QcPVHUI2M8XWsed0SSNlHb/qdFbBcp7XSbFbxYJaFWJBUTOB9uo5Xe/Crc4bZBDrI9p2lRCDwAi1ZCj1pJAGaEnUCYbD4rlXLy014ZVXzYhSdTY7GgjZw5WTDHp5NLyzKhRAV2SWQpG0R1xqqG2yiTqG5j62xlfAFXPGEEUnSdxEmqzgHHaZQk6kT/gRNbed4bL1DHAqN/FQcdt//0x3yFA7S8Je2exlPlQv1JHWQEn/BFpyOTRX0ZJit8CobqgnNErVVQxnhWCm0yravsOxsXVLXDhrZXrSB1Xl0AeYtX/MU9IwCmgVhs0NBCgYtcYLYLSJ0DwcADSf9BTjsG1n5aH8O4FsoDbWNPAs3EpYq5KdqZSgN8AuDmfNtcEggjxcbkSBVPnySlj3BKHYTOajr9ECOsLPBTtWTuoxBOVPsIsPtsutlXManO3QmPCHX9ZEzwKdvynLBq3MSblZJE12ruQLBCn5htq1UZhvXRW6d4wXfiA9PjuS2+jffeBMkbGQLz1jH97tB6Yc0AlStIC5MK7ciWEpH4WhxgqaszjLcBaaNcM81Em7Yhw4a3Hjk27RH4Vyfpy3k4UaRmwwlMK88y0jPh+Q1Z1DLtVSd+A6oJAVO+DFfdKPcPSvxmuq0veEs8WUDqSHJJUMlXKenJt1/jZBVa+/asCY+tzYTpCffc8Q/zvDVwT0PjxDJQvhxF5h7Xjld8XJkmkFD1bi4zZSUkiw0DaHtoqeuwLb77tpyFOrU9bdXplEWc8LJO4vjgvi9/1GbZB+v+md0sJ9h0YBCanAEYtJxpkisCLp2SjFagxvZKmtHVFS1d9FgB7DO2tLLvNYWBwaSDwbYDY8qqUE1upvXTOjYLXjAG2EaR+uIwF6dC4l84FyUrzcTQZqxytB0tEmPzDG+P7GKTkTbS/ZWRaYrLTdU76exNCSFRXgi5YpNwFrPFmXiPA4mqyYImKyvBaavgziWJJfHhFZ7VmjsdHF40ehsAloSk5Lz0KgsPOK3E4vUdNhCKZVsc3P2YY1lhQi91mMgnsnQeYY8v2Ntj23gFZoKyurQpz/AMddp1dpG6+ata2unSEaoVa2kBOFh1u5oRomgfgfD5Yy4IDgbWWnrsmlqq91DHEp20xlChH41In7DtmMDmQMZv7N2QgidAPEyMQcE0spQTk8ENU4a7edd2a+t4aD9YwkHUy9ExICk5fVT2JUakYOgjteUpeeZ5D2TZrccARpgcadF79bcvRcI4k/CVqBbbF9uCWEeXVTUS0flofSJPv+RLnCwa7qkgM07HX1hPn7BW1sgIm2fdXBjwhSXe+EMPqvFIESeAOCoJGITGUFrZATU2FoZiurYheH7KrgceGEfEDBoJhCD4hYN2YkFPy1bGAV+kJPHUG2ckrDrMbn0wJe0Lp3gaF22fY7vZgiU/MyEESGqExSslc9KGKhly5igxUFHvCtM8CxzL8q0iNmgxQBeZV1XuCRe0E8T3XMW/tG2SgNxfpb9LkrOTlpUSovh2TG5rDiwGi2MWHCqrOKD3QkLCld95MTE3uv1l2yVQ49wfbKHrkSkM9nXhLPqMlFb6AuHYxDNtkYTQlVxLkcmmc9uMlk5ZjIRp6g7I/UQYRatjvSQvExpvwXpFmJLFHju/DSo+c8kuNYIL++xexRB9dAx03Y0u/Cb37AeOzIe14vQEBcszRbolnWlzqVFlzPOCE+v8QMN8+OOqxoAUB8YmSBtZji5rctZyEsjWcFM50u82RWUgJ57+SUTVrY+t+1QxLIuFAYKltAFJXnF6ZZSqI/M4GAu+bME6+STykRhN0SKV5vCACR/TyTQFkqBq/zCtPo3WimYtljJqabN6r8KAJWqroW/yJcC825Z2gge8sNMouaOj3rEc4fNAlKUI48twDCrS6Kd/D0rzmXmJkSgMVCccQ3emfFSUMHNBNdQetYz6XrYacYENiejC45IYEGi1UMN3SJoamDJ5W49528mZLUCFwUqFb46sNxhJaCeRdtzlRZzMCejeVhA7hEUqYJ5lSX72wIsKb8EBCk9EtLVdIB71Ayb6xs02Lgh4ULa1tBvyLDKs6ulrR9Rc5vVFBY8OyHk28VGsFPByAamGZx5KYGtU1SEJm+8AdIbIR5LK1RapwVjaXuoeaGOOcKaJYT9WKCdO+Ode3B0Q2v6buWw7ptap7B8/BVR8hGZLt0tY2CXamgzH5c7IqmPBRjIXYrI/Vh9iz8oH1FbKgi5jHblzTWjHJwBDT1KCMV5cM8byw6BaB5q9Rs9jhDLESI1uO8A0TYGCfmo7NhMXbMePbygcC/0AL5m3H644uriAUYcaCx+C2ORCQE+P+qOU6Dlgthfo5zVHGJb7IjPQ/o1JYBog8VNnsObB2DUj/k2UFTh9g4JHOXBtOVkzT6o46EVPzZMseVgsicwwpItmiko2k9XBxDb4tvFU24zg02pOlRVP0G0TnqByhnOx7YgKr3lIrbFl31lZiZtxFcbzGAuGOqGn3VmKKZJbOpWm7MLtBlUmjKlVCU+nMZOJvzksYM1UCBxPSfrme7AeI/GUreMrO1LLbWGspw1ejV4trTBvoWcAlUTNC4F5Ne9O9IoLqW0y2t629EqNX2xkC8YWXKjgoePk4eBUVSysN6B6UluIdELg4MukG10iLkxfKRhIBiKo1NWsg05R5ZQsoOYQLOceZdtYoDaHZDFMk3bitq69mdanTVs7WNnbw7zgwPZj0ku0jiOT4TiEZYB7X0iixZvOqbjgTczTO1vjqXPb4/3vOjmefOr0ePD8qXH2bn1Bdmdn7F29OV57+dp4/vnL49Of2huf/sqt8doN3R1l4tw3eXESp91euJXVXXGuVMgMp1fJmUAJp2N1EoN1v8Uh3DL1K6zID/zimc8t4FW4sqnARMLcsSWpxCsmWMrCmPicEyUZB4NUTyPOm9ZnjL3yVz5lONODTuIlbpPpJDteCFZz6+TxM54SEgaCea5RW9ooGyEpnVQz+qi26jPE4caRfmBfJY+DtC+0dMKSjXqCtPWMqJypjQ2ttuVlmLVxK81GS75hQtalgXAgLqltKpaWEbtNczKSgbOZypOamA+8++T44IfuHe//4H3j8e85N+64/46xs3tScyYk20aVVA+VxNvH9J2XY0R7c+xfvDKe/8Jr4zP/4Gvjt/++Hp+6Pl6+KtU8MkU5I0wCdhp6gi2DvPS93TAHSBRtIeVM4sLHMChfCP7IeCzq28aNTBkHnai59Ub/Wo436sTU/iPLfpl4gjUfPmU7o6SpqzJfIA3P3Ao7qiBNLx4QW6eUwJ4wTV4Sgelh4mrCPVuqWxydk8cYwggO/ZKoyPuDOHmdb06jOZFUPLDBfn0xrNpaGTiQGOyy/SXadXoWKDYJuKzxVDywxbHh1jhR4WOAkFRsYNU6eiD96DuOj5/8uafH+e97ZOweO66c1HDeuKH50epwQ39+Y39/3GJ5VfbevHVLKj2Euck7YydPjVP33DnuPKdkP3nMf0r0wjPPj1/5Tz49fvnvXRqXb/NnwDJ1nImS0tPn1jpZ3Aepk1zBthU2LYfH2BVb85CE2W9SNpKKPHvZp5Z7wODMSeKpnnRUbMhjqhJpfuKT2DmwAZveWOKMBQtGZYrUAXKYO3xvSuAkF6hKFKaQWfSsl5wErASJiqRwDYCOJBeGnb7hk0o4Et2rm5v4ER65HSV5goezLOE3Br1+xEEH28ocRgPrWMK4rOgCYFbHcsGBb8Xis1mIgAPPH3n3qfGn/rm3jw/9scfH4YlT4/DajbG1f0Mff2WkeZrl0OCSvAy0EvgWSazkzURrYd4noW+M68qBnVOnxvE7To9T9945Tpw4HM//1gvjv/ul58b/+htvjNevJknCaFaY7SEn6nlYLn9TrqqTy4K2qqSYOJToki5pJc5OIPqAi2bod+fcl04y+smPS7CVddWOJEnscFqP907YuJFEOI0XP9j5wVC6Bi8HvjhrvE8dv1NVTb9HXlOksqe9k8K54qlJuuSbyhCpbTx2mbpMNskQbJ7gIw2FsLWy5o5H28K1SqJsbMxvT96esJHPvrkYTTm/DoVXc8Q3dh1Hclox0nNitqD9dUkfsG0rwYVDy/72Z378/vHDP/7ucfKuO8YbF/bGiYPr49QdpwRWTOJlcdrS313wZ1c1MUxO/qiiviqpVfWW2v73qww+k6skv6nE57F3Xd+wvevu8cDbzmoOD8Zn/u6z49//j54dX3otyzFPEo7d0yYCH5QoemIrSazGiTRdL7ybKEgUxsJ8nJMydlO6mdYkmaBGczutjiWJ8cMbFOLoOL0ir+xkvXxhNP5Ng439hd9Lrjj639TGsTD2z4KVOM0gnzvHdk58jMn0T2bZQwJ5ZCoJytMoCdgIpt7IkjWurDe4aCQdwqHUNTl+vL41RyUvji0iKV3HIskWm2xUut7J274pFw6q+IGTi2CdtNRhQd+1ro/x1IM749/42afGR//E0+OmVtxLF66Ms6d3xumzd+oJi60SnPiysReDOUaMNCp0rqtCd2jYJn6P6ZPZh3tXx+uvXvGLvoffcW780Q+fGq995fL4yss3lORFVPGpcC3lSscLsorDz0/2W4KAb3vuS2AqZUIfsFyC73pQ1qlKShmJgFBiVXXaFlKpYwKLW+Imc6nT0qXYSIQPfLUK6M7x3ZMfA5Fk8pmmDqWKR4Iq0Ax0JqraJkWdNlbggu3NQ7fBkSiePbP1doWkzAAUDwMHp3+jy2Am0cKfc6LCJbaFdQwRhTd6v6Dkmx/GMgwVj2pr2/bNs9JH3rE9/vJffu94VC/Q3nhtb5xS4p69/x499euFGnGKxnTE6njtMf1h2aC7UejPc0UHL3Vp/EPyuK1vxOxqNdp7Q/vgKzfGXfefHR/84Nmxe+XS+NQz+3ZgLsKNB5fU54OAPA4qLNeZOGnqWGo0JOXX5pxIRI7ElSodRBMd7BbMNFpajQ8HrSRb88XWqI0T/r1yT2khs5zLfCPqilFg2e3s7moFdt0jbWX6JSMGGaVngaoSpAYe6cTNp/51glVSAuSAyisfpUlVJsmzqpYvthfGErQ44sR1xxE2INYtelZVZPilknoBVein43RpBpDRGYiNrS37vieOj5/+qXeMex4446fHc+e1Tz17t8ZgGQf+r0NIZNczJA4tzGGu+AMSRJ+2SiITEUcSAxjP1Oh2xH9z//p4/dL+OH3HifG+P3DfOH3tyvjsc7USC9xRwtAt6s4EyHwwflXtkqaEHSrNzeREkiMmIPGgln47JY1A1A7Q6dFyg3UxtQhLZIv9oglxa0pOMYNUpeFd4khircAnPkbdIVYwCSrIpS6E9LMttVMFmdnBk8DFFcZqS0ZiwW88oE5erPX0iQoeMKjBV5sSDAjrfIoUydRVLIuf8JmnY3PyNkvzxh++43Vr/MGnTyt5nxj3PXxG4q1x1/l7x86ddwrYsdpxVmDHV227TFRMl/f5Skp+vGdkVe441aXoxWmxUDZVEu9qa6KN88U3ro3t3d3xru+7b5zU9uW3P8+9NkDQFL7aJXSRk4MJp/F9ogQRHmpyP33TzkHUHEpE+UqKgeSAOzUk0S181k2b4NF6HOwttvFcdT97pL4w4bfjiD0SHwLtHPMKzEA4HUveqyDNqkPSqy+j7MGLm9Anwajnh7aOisRJpUa2JdgHbwBcBscmWCU4fnSQ6n1xAERf6S05tsVFosDlJnJ1VA3+5hCt4GCENw+7sEGYkL7/8RNO3nvfdmrsnjg27nn8bbrddUpUItYLrIQF33JAYd8wEwMl45VflUyDonYyl04Sc+nq9ZS0Dlop+IugunU8Ll66Po4d3xnv/9C5cWZvf3z62T3+zh0gbTgMdb3IUjd3x9hBSCU5f1eBEqdLckQmqWWoc0TiOlUCtu9oqTLcHBbbzlGpXUDLQBAPjSZY19Gv5Wrpqu6LhhFqGt/KA67DCewEkXbS9wR4dDGLKROTQRJSMxZN67sbsFR6xSw24M3LTAc7cXiYvqiDDcdG8q5woY4vT0LF5mLGCwe+umeqojOIOBZ5mLTnfefW+Mm/8Ph44FFtF06fGHecv39sn2a/q1+WSbYMSrjEi8xBpR3nOFkdGGqSnZzEolWZLQi+O8GlJ5a8qgfODxOourC7ejfu4sU9Jd7ueM8Hz42TN66M3/ncNYXRyNjrbB6XtzkdcBFB7EMVfulOt12LPEqfrZ0rLDG504iFJcmKNDyGxwaBIBmklbw8RgLApMbSevOxKV23lMAnP5bEKnENCq1lgDKgnjSST8p18tEKInLSpkCJxR1MQhpbHbaV6xCqVQ+/b24fINquKUkCs+uMTg+7q9K6+OfbHRy5CKjFT1sHRSu19z++Pf7Sz71zPPjQmXH81PFx5vGHfJ/W/WaMw5BVlIYG3rJKRObLWwJUHPQHRAL06r2tJCRxifzq/sF47tXr4/QJ/irojhZ3thzxk3Oc8odmWPwvXro2jmlr8f7vf3CcvvTK+OSz3LqKq+Xc/uIfOTECW6CKyjFFmXwExcrJQX19NMNK1hB4JnFVirvf9HACH6HIBQFfE8XW5xaVzWzOC0dWFmqGuQvhxCmidExa/7JwV8JgoUew+M3kwNOJQji0ekWvpgoSqWxrZbU1FwOaWYbNHBMXTHCtx+hI8howT44CH/ZLWfGD4FhHT/1DTx4fP/UTj47zj909Tt55xzj18INj6/gJITWkSiwz6QXYjABKWvByKJPMuZrDHm/LgZKFSpIt3VPG6lf/7gvj5/+tvz5+5f94YWyfOD7e88S5rNTKYhKzqGD3qq0UHxcvczdCn7f4wYfGKb3b98kv7PlJIYyG5kRcrI5uVYyJeIISenTLuS3apugcsSjplA3X0TWGmNfyxqLflK9ba10P55oxdc6KyYOa8UFSKzDJUHqSCZyaSV4Pf81/6cpLBi16zDlg8kUAQZO2LFpa+hESnno6DjSaJDR19q51lM+86IkOZXypHQKDc0EhQG4QNbctqxbR0n7/YyfGL/xrT4zzj54dJ/Sq/+Tb3za2jmnb4FHWqqQNp+nNfuSk5AbWe1sDyT7GkaNnymViwSePL3z+G+Of/6ffP37gwZvj3/lPf2387c9cHH/kBx4bZ0/kmYN38CaFKbVSi/bCG3vaGyuJv/++cecb++O3ntkzX3m0jR3XXOIuTN2LtADWsC4VngLW6DYRyWJVLtDpkbFNvTQSHkVvtnnRvnlkATBhKYDEqmwreVF33FqBT32MSTYfZWssyZCg9X6NkoA9OZYigQ5Oszrpqmlwr76F8/feDC3ummibqJ5YaOWigp/wp9wY2RKrBtvxtH+XvoSwqHhUtTyRUl96NcYHHtsZP/0Tj4yHH7trnLz7znH8bVp5j2nlTUAawX57WFUoFUyYqCCgWLi9dNJ20HK97AkIZDlk9/kvvq533u4aH/7w0+Of/ENPjuc/98z4+P/yhfHok4+M8+eOi4rPUfTTOjsQXSzi3dGe+IJe2PEmygd/6L5x5sb18Rkl8Q1BRVsH41YXl4Nc5B3tlFQ/3B/ZeH5xpCPnroU9rFZPQE2jKaKP5ToegxHoYfqpJKL2RKkHmEBXnWLmFp0aY+fEsVMfo+I+cMLSB0mSpm+yM+1qW8QEGaNy2qDMw7qWr1/wkJSS55/HgIKnOIwvn0r67FvNVH6psxekE7hKmTS3REy0kIcTbhtH4nPyKfIPPTHGL/z800reu8epu06NHSXv9q4+mINdMlV1TahWO2j5kq45FauTFhhxEHttC2SwHIy1V7TgrYDXV8IYX/jihXHu7uPjnjuOjdNnzow/+OF3jjtuXhj/+n/8a+Pd73vXeODsjj5HwVu+ceG7MrjSPviUluILF6/a9Xs/cP84c+3C+MQXbhCtf2SiQ2CnQeoeYqrIl8ZEWGN5rHMuOMo6LIfaV2mEeSGHRqkoOVEsLIBRSeIq/tUOwKr1RZGcCteyEgTerDbSySswjfRnNdAOAUd54K+TtcskjzVo9ZsEbS6vomlMHTgmHStembhP9mEH5qHzHC6hrXZqanVSTBxoEjfJhHXHiKbtKfvnfY/ujp/6Vx4b599+1zitT4btPnD/2NL91mWQsaxBhANSXBAPJZU67K8bPSngbKTJVAauxLZkIp790qVx19nj45weuyf0t/E1Ho8/8dB457nD8Vd/6TfHI088ON52jz7sc/yYX7yxGu/qYqIPfNKNP9v0+uUbeut5a7zvw28bZ27tjc88uz9u5B6bI0psS6zpiFQ9L+s+dh9mtCQiR87pw4pLAlo8siUogRrLKrzuOVyFwcoXQOvR9dGYbqdcPOcCwT5bCPTw+YRzasxSAzNoqL16Gp5UyKwiyOwur8Jpe6ZrrMJpqyyD0iakmWweVCEqwcHmFxyP+PA7YWWbqMtXTQp8xSybIHKGe2t8/ztOjp//S4+P84/cNc6cOzO2H7hX4esf29iewVuetkk+cxW3efxhpB4bOegl0t5A1KRAhR3N1cPfDZPomecujXvuOjHuv1efatP2YFcfrWROH33s/Lj/1K3xH/yXvzF+5IffM04fgyNJy4rMVuIm/81dLypPSndBb3bwLue79WbH6Ws3xyee0S02fDtyHHPQCx5WIJgH0qkrad/SS+DSGqSeUXG9eeBHTkHP488lUMuLtHRuNUfJlltzaK00zGw06dCUq172GwmMtzwN29YGWe2UIDKwjTCVlmojqUeWJVFEGgalaPVgPrWTtsha7iqnJCdJ2k/LhsWr6KJ3PLbFc10CvEVdMqQ5iOPozxjf+9jx8bN/4dFx3/kz44779DmD++4v3wxQJSuz0fExwHlf2NQwHupPh3Zitrf4lb3gHmvGWEongl+Mwa2HAP7mhVbPZ750eZy777QS+PQ4uHnLqyp4kuSBB+8Z9xxeG3/vM6+PH/rA28dNfcYYH3xy60Cr75WrWmnrc8PXr++PS0rcE3qz4wPfrzc79I7dZ798zStx4usoiQGOOgjQ4z4lUXTcxkbH2UNi6+ZDWFwGFE8VjGcfDVvLolsw6Ijv9kfJXfRlsvpWMpHwYRfPXZMwG66H2P2VpKVHHS2uqVVyHQV1e8btabWU4LsD4eLcrCodQCagcdE3eoVtP7LhborerB0feWpr/NRffHyce/DUuPOBO8exc+fCTix6QO/bRHqnyosw+21dHK9evDl+67eeH9f1uV+y08MnPInq7YEq3BX4A997fjx034maaAKoKPUU77fO2g/3W/nFXj5ISFQ3r2sPK65rfMZYz1L/1I9+ZPw3v/xb4zXdaTi9w4fh+Wzx1rim+8e3DvR5Cb3VzOeMD5i3m/vjq1+7MA4fvGv8Ez/2dm0O98d/8T9c4KuW+uGiSDwE3WM304Akrn+/NZ97PBhgGTmkZlEdIqLN0bXJj86+0KsifxkoNZ1c8i7ZXOHtJ1xvfa4+FCA9SPT1t9HQ0MkOjhKjjkSlfrvrG3KTFs72FvjkeIuJWV0zmrp7b03ZFRWqqpaiipXC1emz0ZTy5GbJVLz7oe3xEz/x+LjzPiWvPuV17Nx9Xi1xwoBi40lQdYuVjaRTneT9M3/2Pxvf+NKz45Rub3FPIlMpDGZ1MCG7J06P//Df/dPjB7//MWh1QKZifoS2pl9iD79WdrYDe1euKokFkpx9rldh7WMv798c73/6kXHh1Wvj5IPHneh7e/ogvD47fINvfTg5xjiu95sP9UfCrly9Pl78+qXx0P2H40f/1BPjxvXPj//6164NXQ86CESJyMC4vy1zMDSqO+jV8FMJNj3rRJw22PAZmCpGNAszR6nm3Zco5n30vOmCdFw6TxtzABRhx9uuc6VIE13+NhrYIoyP8lQFnelu4IY432p9tclyglkmPP1ToihSd7ZlVnJaHcHFc20RbB4OzKl1XEHHvMfGLTUevXtr/Kt//uFx6k694n9Q77Ldc05JpclkL+5lUCW/jAmcC/m4fPlgPHz3ufHXfvmfGfc+cFccFGa7PsTN38i4pT3pc1/8+vhrv/h3xmMP/+h46Pw94dae1YSVNP7wtmS3lLDkLP5OnDw+bmh1v3rlunjyoXeS2C/Uju+Oq/pmxr6+ksQH5NlKYMss6M/rewWmK6za2oXo2x574ytfvTWOHTs3fvTHnx6vXHp2/MqvXyZi/bp3qlNydhq42V8obRlbJH9mgv2+V+e2jeW6Fb6SmLpZ0nU7mycDHAHDnARFpk74SJ3zDLc1xKRxyTYMocagdKvCponJbmhzbfSRlMkcL9LWusRzq1Q6CXE+xaWUIDyc2fuWnEIi65BZrBisDwZdO4kk55ZZrdOdJ7bHz/y5t43T+rLlufNnx/FzD2TF9dOmBs0laAaGePCD8/T5hFa3dzzy4Hjw0fPj+On8B1Nj+Q6csSr8qv9wvP/uu8bPnD41/ub/9Nvjz//L/0guBM8L3LLS4PdXjVDq19+V27t6zSuvvxwp2a62Fdf1lSPfQtN2Zv/mTW1f+EiSRolnhv18TWlHpPxcu35dPEpuJTaPa7oYnntpZ7znyfvGn/uzj45Pfv53xxdf1fbE/XLY7p9qOrikGDs+GFRJ5KHUyWIFpAs0X/2xQeQ2BSD96rCEE8ZzwhUl/b0d1lCwMfGgyDZYiCom1Rg/L6YU2Infn0ui3lElHNSGWNOnTOlaHnSgkVuyhmDs9m2EEm1yHsGQUPVYwimfCMgKHUjoZmsok4hb40d+8I5x/N7j/r7ZWe7zsiLaTCsaS5dWNQtUcifA2wl4PeBScSihGLs4KC88qYBhBZfCEyyzR558m1bSa+NTn3lB+2iiEL98HiqxDlkiqbPKyvctTQBbh+vaFtzSCstY8LeTb4nX+1rpmTRur2F3Xasvibqvi+eG7Pau7Wt7INubSmjFT0+I84a4X3v5tfEPn3t97JzRu4x/8aHx4FlWUn4zZjylG1/tbB/pFAcYognWOp6tfKisIWD8G2Mb5qptCt1FTFYcrXCJFt7WI6QO20rmeYkEC+AzLEw4NgzKGLvNowVdLlpLuoMWI2lc17sdu/hsmcruiEWRL3HRpsVgp/7mQYvN42cPxg//o3rav3FpPPGBd3PxykRokk4+GG5TuIyNI3LiqQbMD+lUIRl7v8y/OrWF5LkQhFdG8GGbf+FP/tD4yV/46+PKFX1uAQIR8f8c0LPVYBvgJJaIhOSNIu7vBimMEpDvhHnFlg3X2HV9EXRfe+KbugjQsf+lfX1PSa1kvqWkhnff+qzQX/vaK+PFb1wZDz11dvyxH+S7e0SMF7rd/e0SNfUeV8OCM0SnI4kQjj6Hd2XlarMv/iRuYcBtUq21Ep/gfXKyUuvP52DAn/fS4RMVHT2MVZeqQ2tUD4Hh8TAprGtg8Xazy9gdOROkAWv2yBArBXQ2QMUih6WkKpGndUZvqP2Lf/KBcVGT/K4Pv0vfHr6ZBFaHzdQrr5LlUEk1E80Jp6ZElpFAWJCAyEhuEgwZROtDPFtKrvvuv2v8mz/9x8fHf+XvO9mwYQW+pbsGrJYkIHvam+KEggeJxws4tg6stHva0+6r7D0xqy1f/LyqW2Zg9nkhp6TdZwVX/bq2GdTh8FZCfq7rrsaXXnydy2589KP3jPtPE+xmgiJZkouxYwyRrg9kGTdLC+buT/naqBhrLm5DuBq6shOZ+cp5uViCkAA9j7WnrMAlWRQEQCsPVi5qcaBKHwTYMMla3ysiKgDkxOyLZX1q4yAtrecEX1gyqqEwT6yYgDzirzmi7fN7HtfHIc+fGHee3h136du+JJbThQQkIGJSuaUk2mI/C5kwBOvtAAmODYU76Z7QcDJj6z0ZXDrMA615Dscf/cPvGV958VV9jveaklYrJ8mlJCUp97Xq8nci2EKwHdhTUu4p2UhwVlXuMNxSXNd00eH/EIz2tft6sOJe0/fxuaXHI7baSsj+Bqu0yn3pr9WditdevTBeeP1w3P/g6fFjP3xaI5d4HXP1ay3JRGlMPWEkbWlVlChjRVskaHuOJrbkbYqvoFMrxlKHIZrwdb1t3pw7zUAmLHVVjyQDTY4qu4kIM09gNyh1hKPrIScAamt7Wu2aPdYMEiH5uXH0ECGMVc4LI4huUX7gvcfHSy+9rL+Y86ha8qXPDgSDJVGqdLaFyckrjfktipynav5ucT5II1ldAN77kvC0lZhsCTwedRHwvy7/2X/8vePn/u2/oTsZ+9bxNH+gB1js/LSvNp86Q86qe+2akm+PpCbRk/QHbDuU2CTlNbYNSlK2FCQvq+8+f2dC9qy+vI3Mas4LP10n5vj0514cu6fPjqffd2K8XW9Tc8zxTkvnpIJHMZDS1LhqUD23DK4fGkGVVIFn3mnlsNXSDLCVXp0aGNDCgbxZg6mIS9762NXdsPYkKNVVMxRvDrBBzoHCt1nbbJQKOkEuUjrpFwgyPDoAfuEk6NKxNXtLlenMhArG5LBW7wdO3hz3P3RMAhyVuwAAQABJREFUr8LP6EM69ydPlSRhk4mqc9+KWIefZcDowWrqLYPqJKpjI5HRU2o1VdZ5KwHeDkhKXojxHSDi0O/3vuvh8Ye+7/z4+N/8nSSr7LJ9yAsy5ZxXZq+60u1pdWWFvsGKfTNbCS4c9sSs0GwjruqOA1sMVlySmIS+SmJr1WVlB0PJs8Z16VjhL71xcXzt8s54/NFz46nH+m6Pxp6FgvHjtzKa3vqYBfMmAEcVlFHbMDqrAyjTBpUduui7mIZUSpVyMhhilRNtw8IN34XYgNPYEMRogx8vCChaEdgSiJR9FYbuKOkRQ2XQ+sJMEHGyDimvluNsDrYDqQCUPD/ykTN6Gtbfc3j/01qC9EJKyQUTCcgLOCdix6vS2wGvnNQBxiNYVkfljxM+Ww814MFeOLYmKdO/QyXVoZ7ab+7pg+Yy/DN/4iPjuS99fbz4tYtexa8ryUnQrJiH2Uqw+upOBO+qkcwkMXVelJHw+GN1vspdB1ZpJ7MSWIl7WW8p076sW3HXK3HZAsGD/709ybVSP/sVfXTzye8ZTz56TG98KOS62NMROrMcPQ/LuJPEm0+L7r9OxjgJwHCkdN2g5o2WkUut5asS/Mpww9w+jlgK4Kh+D8rJ3qZdvnUU1amOpQNSAFSnvWpLfaWbV8RG+EYzsJvSEJJvvlxkq2/njD+oD3pv673gO+7QX7mpoy9gVjTvfXGuOhFxhne9BVATCblfi6xQ4G0vjbcNaitJWM096ZBoH3twg7sPSiIlDvvaP/KRp8Zf/five0VkL5x9cJL4Rr3YYruwz4szJS0le2RW0AM9G7DlIFn3tCdmtb2iL3aSzFeuaTXWxeIVW3YXL121/Q3FdllvisDJx095kfr8c18d108/NN71Ht0T53NL7t9yYgzWx7q91LFirvRQtccUu2DCyogetVlzp+7lbRHLNNZdiR8DJlnrkKoueV1Wi4Lg5kF11ZxyLL1UoT8K6LaYrKO9dIhYlBPuYDRqlL4p4Zwxz26B7gc2quvXOJcZtofv2VXi3DEe1ecddvRWLUzs7kjaHSWfd3oYqZ3VNqwQZYWFWw0njjhlw31ZXkjNbC4+r76ERJIoqUheLZuxEZ4Lgj3th977dt0bvjH+t9/4otTaRrCV0IOdCsnGftWJ670sdyuUsKzEevBijltwV7Tysi9mH0zy8mBVdnyFv7p33UnO6k0fWL3ZF8PzxoUL4x8+f3088NQ7xuMP1hsyNXcMR42kyywGqm7MbVAg6XIfLUVGHc8ckReyQVHlvCZp456QwkfcuVDCyZWKErgB4sWiSXAzwamumhKsI1g61VL3HQPzRbq2p+42yYEvjjZWJdfnZmzLNTuBtsGet9SVMuNtd+2MN168OR5/Qp91aBijyiqpZJS7HF1KliVWYmQA9LBnkldJoDu1xvj+sdp+U4Ls09OwX4AqAUVuDKvxLSXlde1JWUWhJIl++l/66Pjff+OZ8fLrrJJ6oaWne95wYCtxjcQVlnfQrvqzDlmlseMiINm5A+F9r1Znv3EhH9hd9ZaCC4AXfMFzMfAC8XV99YgLaI/E1p+t+vSnvzzuPv/UePKxk9XN1divxpwBYgQ4em/sBrI5qMLU+NZoua8Tl0p4wGFnPCNy9GgdcoMMSHTCL6LwtLnkvRMKCB7zL4lDG9Gag9bSDxtMQDole+za2A5hWLPgA4eLHKb1Iy0bT3lajiB0TVlhPHD6+Lip/eDd9989E9YxlRu7IzjbEUERKDFZYd1zkloJyorMaui3dEkmPZLE0pHISpItJYuTVxEeKpHZd3LXQGmnhCIxJdNN5RMnd/S3zp4Yly9p36tVlMR1Aishb7ICs3dWCLxYu0zCaftxTbYkegVrrr2r0mt7sCc8CX1FCU/S8yKO1Tr+MVHP1A10+pqJLqjr44VnnxuHpx4Y3/Puez2MDBkPD0GPY4+HR8LvIxrbp2ljnK2lSqqFwrNq+OQG4YRADKqcTZ8A8mgOtZaj3SySSbE7dVSK29Ui76usbRvmHDCmgWUvQFJz2Z20baIsJx1xd4Z5kklfdcs7bbHGb5iByQM0+Cr3odkedx0eGyd2boxjd2iVsQW4GlSV2CWJKxp3BKAUMvA7Zq6rwcKrpd0roROc6PRDnUPJih0r5OeeeW189Ruv2pe3B8KQ/CRqtgRaRfURyDN3ndQbDvrsg5L75q0T1l/XKsrtL5I9h+zYauhC2ta7J4eaJa4pVlkuJj5qyeeH2R+zPaB3/rsTiiVbhgN9S0OfnTimv7RGouuC2NdHMC+8+o1x8erOOP/U+XFs68vLh+QYPF09jE1/qIexo6/LwaxuSspAEAZVWMZS9U1UOISYc2bOHnc36mT/aw6s+jCDGuGzVCL9kYIGVCl9oKpooIgrmKPAI3YxCnZCqczGyoAhz8+aPn1KcmYYwCxHBiarQpK4rAVqvjsP9P0y3jXlQ+iadSdss4DzIMM5PcdBDT7+XNUJBEnC07FvuylROchvNnskET5ItM/+X18d/9gff4f+GIq+xyZc9qZ5WudOBncGuO316stv6F2zbBl4Jy4v3tgHZ7W2T/km8dkHbx2TbyUj7WO6RXegRGR7sqX7R7z9fEP7b5aKfPFgSzj5lv1NPh+hC8h3JpT0vjguXx6vvnFznL5Xf6ZKn0O8dhNL8ctpr5s8cxBDDnUUpQ7O/XCuOjFaw7hGz9AsUmoe0QyaueRJ4NzVqIWgPXpVinW8UtexJtXgZ2YkF8ifRms9WE+4FHPvs1JCmmZqxONPbiEtpSd3AcYLxAZ4qN1qiVPU+DUzQeZAT8DrVEbnTthupRPFyVvb48479a3iGgwGlpjMofpEY1s8/ce2mYWIDXSSkrP8/V5lqYzR6qHEcEKrzlM2iUJC39CHeG7qk2Ikke8MSM67ad7f6uk+n99VYomHFZjVNC/igme74NtnsmMbwj3cM3q9RZ19LEnsWOiP+scn01h5SegT+tgln/nhNhurOZ+ig8t3L3ThbCvZD67vKYGvj6E/C8sH8PUJeY8BJ0Y/vaeWFnIOxixHar4Fp4syR82QTWLXmgLcpgCnAVsfEnl4JXvz1lORSYlVjvIgwW0/TskN7qRQn9uwzSudcCqRiRd2C+xCskW81CIVB9nlYYuODTl552Qrl6wH/jbu9PRmHjruC6diOXuWv+nQ06EVW4MNd4IRmLFzVpd/6cwKT/klmflWxsYWgg9IYKvEI3FZZf3BHIQyzD1blVpteVuXlZf9LZ1y0sqGSzi30pS0apPA13RHgeuDPS1Jzl42H8rBj4KSEVsA3z8WJ3vlXADiJw4JbunF2u7OrvbH1/QXLU957yyo+fkAERfLrr7VcUl76ENd33wRlJFOjxnlowcS+RKM8Y2+x1Ttlbl1EvDcyPCg4hw09eKi6iNsS0vYQGzjbwaVx8ZkvugrQHkgd/S7mcDo5kHkwjmahGRV2U5YCeHtJJo4B9G2TU676oyCLxaJVHVs02nsFnRqfUnBsOEPVvFd0a2sU/qGr2kEWgax3RZj6DPYDl56DhPrxExIfkv/H4trn4Rlu8DKyyCSNCQqD/uQzLevlPUk2kvfuKhvR1x0giHvLQLJCS/bh9cu3D/uPaY3LbTHJZFJ+L5H7P0zb0ycVgxync8Ea99rW/bHxJGLk+SnfWvn5jiuvvPheLqxq0/G7WofTGrtaf/MezpX2UdfuGRf6aw7XB1HQptHn1VZJkFV+h79Ws6AYdvQhSf8DGc/w3ndKh+I5yFj52Ul55S7svLpdjxtJrBlApJYkHiVEhr56mCJz9NuJhdVQxKuKOikv4lRq7UDblTI7EZV802GNT64N50rNgaFFQ3WHrDLSoSdm4pLydAfdl57Ze/oGKW3J7jgUDB+6qJB7JWsB9on+t8AiPdAiclKhrdb3AbTUzB7RpKbLZcTWqvdl1+6OH723/tVfU1fCaT/TtTDmMSPX54Vjp86Mx7/w0+PrdP5ZoVXYvnmI5YkNG8Z07ttyfj8A8/43KIj+elEPqeRPbgTWLF5TNRh+gMPFxpvfugPQevr+afGZa32N9542QlNV51Y7pEo50CpIv46tVZlASisj4gqw+hbiozdxnG0LeOAhcr4Oe3hVDCub9gvjcmPD3HA7ASmUqG9uTIVC5FrZI6DBRAGzrxRsARBPbqjNJbKvpPXVsz0BlAoyTZE1cCeI4MeDH6vaAW8/Mr+uNeJFgwh5EWO8BokXsjx98kykGbx4GcA1SZ5Zc/lSfJyMXDbrO9G0CYB2ZuyUvIgdN/GEslreyfH+9/79PiJH3uvtgXXszKLliRkJWar4NtrioUXdFf0P+S0SHtVZHvRnMTdq90+FwsxCGffSuKs/tgRoxwoBqaERDfGoiwycB47fmZcunRx7Fx8Zex5N5TBXC7ccGReReKDsWV21gd2kXjeqEvElgvpgsWSo84uwrUw+uX4ZirZ5jYn8sXi6qjqvo1GLt72SP+kSpjdZLJ86ZahSSVDbBepmJJqOtBeVlwmijY4g8WRhFxsJVcj/+5U5RpsEyJAeDi+fuu6/ii0Pv3F3lMvVMwkAycCiaswHK8nXLFoIlmVzcnVICVY7t16VA/46zi0hVWW8CYCJasgCetkUwKBJaFI8qce3B7vffLsePGrr4879L4tdxN4SxcdKytbCkz4vxe039BfneSv/9xkyyAF2wgw8SGZLrbe8+IT/xyduMTnZwCVCmNOTYYpOvp08q779D84vjZ2Xnpd/6luScyMnAi74rL14UwSq27PObuqk1uMT9cnRpINKA3IFX/52lBb2z5MsjrJoFduyjqcVW5CuD6OtDeajNIULGQxRxHZollk7QIdoS6Y1lCu7duRSqqrZtfDFcULepHy+s0r44Y+TMOKdahEZMIPDnS/lDqy+ZB/65R8TL7kOlmmbHSyksikCwnAyssPCdOJywrNbTNiccKZ+9b46Acf1rchLicRJSN5sem9bm6T8RngA33dadfc3D/mRR86tif+pkX7JKGd+OKRDAxu8/UjYop8XmiKlwvhhrAKXhfprv5r6D3j0qtfGS++cI1BroMebR5C5wudiNWvZcFYIWseWoJNjpb0LJYYLxCRfEUYJGdkbR1pWy0lGF1U4FaQXhZL1kFsghaSqq1gR3VzOL6JgBJHRxNLr5R239pF785Ph8jr0b5UvvTGwXhh/+J45SW9qcDkO/G4E0BiZpXEk59+tQXopD7Qiz8+9JJ/haWyV1oliu2k42CLRJI4YZRBftNCSUgsXADsjbkY8MftvIuX2UKIT/a8uGOF5eEPuMsOnZNaXEnMvMDDJ3Lvqx03fcnF5YtNMv3ahnj8NyOkD577v3oXz6s1vRVwmz8WqFdxl18ez39Vf7lHESdqDVqNH/3rDPEiJ7n7LjH4dZLiG1mOaO3HgmigrVzdxGE8j7Vz4SsjN+0KzHzidWXST6glW4h7Q79IlmD8bg0bnvUhYLArdgW6tLq2MLYEy0hbVy2NIj/xpFqpw1rWVXS8/G/AT760N5555qt+0cWqCQE7As22k9rJTPJpwiH153sFI3n9dXeSlnfApPNeUnaslLw54KSImRM5yUyMvImglVNJw8qH3eMPnR2f/t2XNYnaHigZ4fMdCfT4UwzcSuMDPmwfvEo7ueFRfEwYfaYLjoVVPknrZwFdFDPBZQcpeLrFRYIpJ2THjp8cr3z1+XHiii7uqxIwbn4YFSxwO4xONJUs4jUCbPCoWjZtEK5m3NgJ70pNmLGgW16CKjqMtT9T90QXblmBj/B03xZ3BZAgV0drkEcXSROpnJfRgnEH29R2jSeiVqzxEfNhHVbgdJihLbtp7uG29B+8sKX/6POq/p/b637xlVtgWp2ULHwM8oBX56xOSkjvO0kKtQ/U9rckhCNhmBhWWpKEBFZamMPvtEnGxYGcVZi4uGdLotpWbXAfft9D44WvXfYdgWwB4BSOBMUH9qL2J97wRxzlk0T0FoFklI2TWBgSm4uN+JLkGQSPjmQMwq7eiTyuvbPvtQvP2G3v68XbBW0ruJg9UpQ6sOm2l15a2MiHAbc/Zbbw0fN2FHc7ObzBtf30XeZvSWf9ZkRJYDHd3hXdiIFrVN3cJDGvCCy190Uf+2ZH3g9b6YSu8Ud0HljUmhqpSCEQzabqtLS0Bv9rV3bGJ794Y3zyt38390Q1gdnfkjy8eCJpkox5WlYySeHbZSr5anteG9dKhk6rK+9qscp63yt77zFJevgVi3kVK0nFu29cDHoLY5zWH+3jPw05aaXjxZtXSGIRtxNTsrxAiy6JrLr0sNuG8dDDPz0eFmlEPDg0aowk8sswtfnbbqd2b447xtXxla/p8xHIfGC0jKF7gY94SF5PxDJPMW+SxGMWT4zknofCqzDv2hFB6miG2bC95Ciqbt2bm9PECTwdNFqlyUXCINz+2HAfiKFreddVOirBVnR5NlhhzLICuJ1VABSrHKWHjOXJh1o96CrRY/Hc10+M//7vPDe+/pWXlGB5McMLGpKI1eyGEtBbBtUpkbPvJc4koJ7G9W6aGoXDnxJb4XnlI7EkYoUmCeFETlLzARt/6VJ1tghnz+yOL37p9XFS/0YAbjixiR2r/7JFQW+IXbunTvAeWvpHPW21WiGZD7VZQxCz+lKe1AV0Wm+YvPrayfHaFb1glExeDF+fwGZ0i9YkSHR4yxjLWickT9tWhdWVX4etGM6EiDQO1pXi2BCBLGg4aLvWPhBIQtPuCIhkimgxipXRdVrplmhMNh24BXxGq7oGa70yT8+BTVbkazMHgECIKc+kSihpJqEQM1xueL9y6cR45uUx/tv/8RPj6qXLTrAkCismdklUVj/lrpPRq7GSidXRe1Zlkl94IeMBVvtOkpS7Bf4bD9oysFpmJEk+LhIltAbU2wlxcOG9+53nxxf5QyMacbYkvujIVMdRbdliz6z7Iuk2Hez+Y6JGmirdhqUOKnq40IlPpN2pW3n71w7Gsy+c1Yu9Hq1sxmIFGptO6mWMiSVHl2p1LLZBK51lhVnNdXtbWU+rydOdSNTmmm6hryMc7Tzx582qJnDZgCNBbZCkMYPCRLY4nTIPRnPJ2TqiBknNUOW8GrTy5cLcQsg+ZmVs6paoRE8MdTf9mj7Uc+ny28bf+sTL4//89c/qI4VXncT8UWie2r3X1QfL2ff6tlrFwV/E8TthJLFXZmGpK3Gv6TO6JC++SFJvHeSazwBgnhU1dxv29c2MJHPuMrz++qvj7nvO6EPofD5BPsWRZwDZui9sNiR3HPQ8ywlN+3GyS1z9znhKWUdRdNMw3rw5w/bl1v54/qVT49Itrb4CMk78yy2Onpf26/xGbm2w840Oyyvx4TGqkRgQhdqIHNBRTGPFYfs1TvVEHXu1lgsKXR/haCZ/xqXjSJ+kms4nl61xiqqNmzLKtNC1vgfFg1UDZq35G4Vd17HQj/SR6Mxq5VafJdIVzlqR98qw19Gx4UcPBv3C3onx2tUHx1/5+P89PvvpL/rft/KUTkLks7XcumIFzYrrj07SZoUmwcB6y5EXXHy/ja0CK2v2u2xH2BfnLeabqnvPKgwfnWTfyoVyQx9aVzfGyVPbetPipv96D76QsWWQKyc7q4l+qy+56D2JHjvaDguEx4CSxc6T6DFNu/PglP5o4PHtW+ML+irRy5fuqTG1dUFEuBprfNuHkUWIDwkdF6aOpeKkvXEUyhhs9HPkhaB9IJ+EqcRbbEKJvKWRpMUFVBe3xP7LPH3VBbacuwuLL0z7yFNjWkhJqT4aV6XU1OJnYWj0m0rwGgSQfdEwcISeY/G1xqF1zLUKg7pxcO94/vKZ8Z9//DfHpz71jBJKbx4oSb0CsrIqSZPU9YEbt7m9paSV3tuJSnC2BWC9f0amuxmspn7xpf6T3H1hsDfj9hgJyBZlX8l/oL/he/oO3rTQX2JX1hEDqzQx+3PK7qMa1RFe3Xvc0As0k1VtQH71X5OEzodKEvq0/s/dKb3P+tyLe+PK/hPjyg0JwTA2lESmsueFsfLoWhd9STwXQU6JAKs5iCVGddTcmX0SutUMAeIxPPbd1pi4w+FpbDD0G0la+pBoqjSdYIs/K9YUufo2g1s7LoOi3tQ4iHklt85ercJ2/bQ4w+BS5aFRjxVtTDLk2JDEObpUC5l+dU9BHx18cnz+GwfjF//GJ8YnfvOzWhH5tnASNO92UdeEOqG1ckqXF2f6HK1G6/hxXnyJS4nPausth9rc8wXHgxBZsdFzp4LE5JG7CQf+G7439OJuX5/JPXZMT+tb+RwV/fQeWv1Tnqdv1XkmakfvoHFheNI4cadf5Y5KEthvlitjrdKJnxP697jHtvTnXr9yQS/a9Oe19upLnB64jFHOjFMukjhGyrjSqh89TTgcqTzOlPyYwCfjc6p2lAICbkwzYn/7I4hmWqPgKRuX3eDDPETHw46yKswPqZcNBSaGVYlskaY1QVPD038G1ckpguRVTchcXps9nJp6Wfn7w7amY1mhuh9wYpOOxLrODLjfzlFb/wpAJyWGPh978NT47ItfHL/4q58ef1qJ9oEPfY8/KeancE2iUlYTlB7y1J6LaYxzd+hrQKf0f5J39fUfraLcTuOD49zZ2FZn9lmJlbT0lA/qeEUXxkkuIv+p1EPuSkgnOX9V/cbNPf1vjDPj3Pc8oe/H8YyQhGDL0XczROUPoR8f18er33iNgfHK6h5r3LzYuP+s9YyyzkrkE3rRxr+mffaFi+P1a/cJdy55JH2nqseN+ZaR++m5h9nsOi91ZKgt8fwFc3usKMoao/Agm9LE2RRmtdKYzVM5LWH6q4YTCObM1c4x/ZstZFyJ+Umd3vFTvwh9lafEOIg+gyNZCrRgsYtSsqpBa3xX3DAjLOgI0BjF5hKo+SmN8rmIVGciDSpRUMioHfAp7nFaT6evji+98Nq4Z3tf/1JWk0uCs4Iqaf2ulpLIg68JQK59wHj16rHxyJ03xintYdki9PfVWDn9NrCy7cJFXSb6KpO3CkpqdKzkYLePyQeJroe3Dt5n3xrH9d24k9v6L0P670KHN/Qvs/THqbdu7OkTVtf1kVDV96/or+pcHl/40su6OLgw1Rt3kT7RKx4cuZxPauXd1oX1jFbei9fOa4vwiPrAnHAhM8k86F6nFuVKR6aucbUaI+tnOTxOaydOOG0GOVrzpF4Sy6mHPzUP+krSvNFutrqnsZdPB1J/4DoLIYFkIPo8x6f8NXGsaa1tlnZwjSIQp2M6phlwMHQyo9HAeJfeV5sHWYBcXQUtHjlIjHhiArRa671i/lMPISFhokOslldkJd/h3fpazTvHC68+O/6rv/3M2BfLh3/g3TLnH2rHb+9JPcniOnV8a/zQ09vjc194YXzkzrcryfkQOc8QWXFJ4F6BSVh/LUiJuquv9Gzrw/CntBdFfkmJ7O+wKRH5uXJlT5+au+JEZ1/NCs03kum8PkKsxFM/5IdriIvBfzfYHdMYKCe5zvirF3xjhPE9xr8I0+r+zFe08u49oM//Pqy7HNExKPxokDQmqlWCdekRax3DFjTFxFpsOUFI7rmDr4+FO9N6VAfOUbTBkTL2RlUsAVTsUSQm1b0Qy1FWYAkIiEl3emX2Y6/6+mo3xgmBunXU3FSFlVBFCZovHFH4xYerBpUxAj1cqFL2FVQUVrLrc0Vlao69pW0nCH4yjJp05J7Q45rYU0q6V8aXv3pxnNYq+NDD+pcDSmLfnyVpNIC8qcEdBVbhXb2S/9JXL4+79GYA/wScp3zfiWA1VgLzbYlLlw+VrPw9shui4l/CyiFOFQAvGr1qd+LInjQggdjC0FkiJV6S3F2xuOMXxBgo4eV5wyJvK/jmxc396+OLL17UhfKwPpr5dvl0h8XK5kbc8uWxqBgcWKKIHD4fwVWE0XkRQSkGaC01G400VxW7tlh+S17e3coJez2KZlO/4l5ZuKpYwhmFEzgKzlJ5gKgBSzsGdXYhLTgjNhM2QvSuFU+QptOpw8teVcACdyI2N3jH4HN9VN7YGZ1yMvWOlbIjcwVntiFBwqdPxirx7tDjlfG5Fy+NOw9I4nu9QLHa8WKNZPZtMK2eJORD+vcEv/Q/f1l/3VHfbNBTNYlNUnpfq1X1yhXe8cKZ/HAxsHTqINGv6q/2kOQdmz/HoMTNKi8b4lLnGUmmh29T5NZjWViPOX2r/ikmxMe05927qg8vvXBhXNrXP2vceVSxZ05g46fNBdeR0V8njC+elc4YJzqxBW8S6v7l1Nzo8+DMkVLnss3F0PJgPNhCtk1ujJrWDPM6K/hSTHZfmvqmSf5bPaPHBHuA6LEPBGn0uZoST1BswJtAz3+uwxW+Iu5WrfZKSHcQx6h00sA3bU1T5AYQeHzGd9iRuW1VZEEJ3odIW22sqA63+JsM+pdYh6+O5/W53d3rV5XE+scsCsf7VyUlJcPO/pUXZe9++pz+O/zFcUb71m3dSfDtN+nYIlzWJ7zuOEkqyE62/MMWr+Syu6ZEJwJvTxQLL9SYuZZR5xadk5eYFWznjetGpjOMT/qSsbqkv77z7FffGHsH55282fPSP11AIjEWB36EY6aNnaiFuvTRWbCyQC++SlqwRoQcpQ54kEujiz+l+oQP4dwOzFiqSHOUnRvIWl5qipnRpcOXeHeOHzv5sSXB8JWoXM5sooW8dCqWJIpN2xljaLAOwdXmKBpzB8NKTFg86zYbtcSFMDiLiETNdTyBgoFlwS+JXXgZkiYmoLZ1WnvWu5Sgr4zPa4tw4tob4+2P3Kepwgcv4jRIDJQmhDqrxPn7T42/9dtv6A+oXB2nz56WLauw9rhagU/py9D8eSgB3RlWaF701RyKM0lMvMTKnMDvvmDjQxX58+0xtZ2CIuivRLkn4uFZ4bXXL2vP+/q4esC2oVZe85BseQaQF7OEmxZtDvRdT5mzko/ANuxoRtsrZcJd86luYUqjq41t8OJxhVP7UNVHtxP3Io1f46kymHU4gXePK4FVIykgT8GZdgvT9kCXuO8IGOdTabHph7HFQT3RTz3tvhBmuRCWzoZ9sjbYdKQ5XSZMYfIUShhGEZKkqafG2dKt47pzcErv6Lw2Xnjlyti6dmU88rBe7ImD7YHvTGgC/K6c37i4NZ5++6nxjT39D7lXrvq/IO3qQzovv7Y/7tAemNWYhOZC8b1l7kZwIcR7JYdicTCchJwTrKgs8shYR5wksy8kdYg+8fHNr79yaXz5a1fG3uEj+vax7jY4ezCuhztIvQ9FEKcSLMnLxZkDbNdrrErjlhInfQhnVvgCOKlKXv0kziUWRqNioVAc3lZMUVVqlmaYZYMWBievCqPhkA991kMJDACP/u3Bs1VOiUZqR+VBhCZ7WKw5kjTmMFdhI8BB+M1FnauSqeGoM+LWI5086IOZpXHpmmXwWQYfR3My6W0bTVNlUDU0Wyf1DYYzStJvjGeVmbdevzAee1T/P1k/vJBzIqtkH8uzP7fDTuvuxKPn7xy/85L+du/X+Pu/l8fD+ve13JFghPkrkmwZWCmzNJGEHrUEwQSoxoPo4O3xtcDjm5U2/dOZPgr4vF58fll/b/ja4cO626CVNwyyaEaIu05JM2U8VqJWDAaIJfYgGmtLrP3rJAo4sq6vuPMeQjMUz9TLgM6q3VwbMdvv4rtrfg/AvoT2VGZXTVUJfOJjGhkRqmklyFTmxFcClNTqiMrOFtkGWM6d/jCGycLmj83aftZVsQ9DF3yFU3EZMZMyrbp4QJhsdl2SOuKkqJobHYOpY/ukEvOkEuS18ZL+r8Xh1Svj4YfuspYPlbOF4HUZ33tjZWWl5S9DPnTX1jj90MPjyafuHZcvXvIHgKDjb5ORu16FCUcPe1ISej6ty0jPaBVj1/2tl5gpPv1Iwd9Q+6LuYb/wslbeg7eN3eOPzeS1Axxz2EEnEW1LXVFP3F+v6MahA9Cr7wSj0KG2cehLRzDzoI6vlFPsSnCrSIpBl9ykmJXi2GRYWsIB9WSpSqlHVmCNdKWOhcFI4knXoEoQ/YIzpk7AjJlJgsFknDxxvnCkF71yS972LrtdUdsX3aGiVChMSyKn9f/0dibMkh1HFW7NjFYv2BiDCYxZIhz8Av6ffyAQ4Qgi2ANsAzLIGknWYsmWZjjfOXmqqvs9LTNjUzNdS+bJk3mr8lbfvt2vG9ckguwIQ+PET7/HYhRVAOkJ97pe2LGLvnX52eOPL7/6xTuXH2gn5tmFRPQ1sdq8eMui/Up/n/7JB3oRpYtg/i6NxfZup/XmAztNC94mdtKMy+QOx4hCD4qEDOVChV5iBsOf5//TTx/7Z7M+uXxffyL055O8gIcgpD52W3fslkgaTWKHH1uSOmVi9wDOjV8iMm/cpaNBQjWTjz/OZbKAyzwydnsVuPRwMhodfMb0E2fo6adgbVMNswMTgWaJHcNdN8hiwMJnpumNEIxs+GeHhueSIGNwQduiFbj2oaevF3H7aQLhYDg+gZ0QYKJSnaTfPCy8iYZvgBZtqxBkvKQh2QYPdHfiydf1+xfvXH7+vn76VffH/uR7v+dk4Z4v08hOzG0y7jb43jFxisF3KzzLjPLCz59j0MgzJXGOM94NdSW5RJNvg40A5Mf8cKI+3Pzfjz/xC7aXX/2B5jwcUqcMT5e5Ws8dibgSRX2wgz8H9R9ZktfXyCiwt6fWanX9HH7PysEJEBxR0G7b9MJReUbBCYyrZU3Hx8K1ejpRwiqRbqO9+qMcbGpAUHmkSeKfJ2sJ0UkLwFglk4eSIlu62FqEFKUB4EbaFjMTsrPChz6PuKXPkTSJqx+osVhEbrQ4embHjaT5P7j6nHbFIpaHr+qFne4w/Pqty5vvfXJ5/Objyw++rx9M5NJIYfj2mK6DfVsMcwnps855UaSxNjV2Uq6Bs6Ma6GP3Ikq3CrEyBrjigEs/+K2fDfix/jD05+9+rHcOtfO+9qcCcoQUjPSgSTUzgAd7EZSFn2T0aThQssSY0V29mBteEJJ7PhGtJI6c+BR5jtkhjU/JEqNaunuk3sjwP3wOpUCjQbHLxrh3PggEn11X1JPA0vCfydN/uJJkR0p4YlEaaNiuSEps8E6nTTquqVYJb7E+i8svnLULn86qR97IoLw6IRKED/I8Bg66XhvG4nTAJhqVkA91Tfz0a/rBlrcvb+nXgz58/N7lT7/3Dcn5+lR2Hk8TM6pLixmr78/5ioWlLS3zSdGbe9PNQsNhweg9nuPjxeN7731w+dt/+h99llc/J/DZH15efv3PZMCzzxjQ2kgiF3jDbYwTpMlbJwN11jR5D77FoEB4qpmSpBG3/DnEI+GxjqwdtdZfRYNwxysDr7ukKY1ToyHLUsaf/Y/v9INzAkOQ/JklNgE86uT/9EdRuYeEn1040yCrm2RcVofcxDaI1nUinmBoqps2IMJdOvNoYoIVoRdGwMVltG0IO/izRaKJxoR4jImenfjTJ29cPvnorcvb+vacf9c16Pe++ejyur790TuudkySmY3TnyJjDXgXDprhIb/AQozMdiykSj5XoVZ9IDzYddD+9KdvXf5OX5r9nr4n4Dfeef9M0iYvCJXBqsNgWKPTqWSIYaN347iEmQRMEsW+PA7EfOFa8mG8uvVG0HaitnO3ZKMKQPVghdupbePolrt0vB7SsD4pc1T4QSQ/K4E9wZKdSUtAjC3DwquSEf0uEqiOLXM2mGxsx0YcTUpMbOfGg9HRB6fLhYhBDI/auVDfuoKGm6FFOalsXPsEF/VcR0c/HGoaqWdI+Jce6iNmD7+rLyh5rHfb3r/843+8d/mW/sL369/QHQvp2aRYL/KhOwq3ktYaKrvpcynBZ4u5dlakTnimlOT3TRs4dE39wYcfXf72xz+9/Phn7+tL+YR/9Jd6ofLHgup4THokKn4mdI5DFDDrX5OXPtKjOHGJQWWSOFokQjfww+6aAe5gjY9xamIx53AtjsFfcZ+s07d9I5bM69HxeDNG/WkfPnz0yo+yaKpZMD1cbCyOjs2GLvrWUQOOxC1D4+CDLSP3ZmzZaQNqKKoLlDqPqs024PqBmy10eYpxTK2c7nISLPVVEUdK5L73qg+VP3r5O3pL+HJ594N3Lv/8s3cu//uLD/z7GPzBJJ99wIql5fyiTyLwZSrsuF5yC6VAL0HWMonM9wz+8t0PLv/yk8eXv/mHn/tdwU+ffvvyyht/pc8E67c+ZBZW6ozcc7eSOsBbSnwM3o10HJ/+d1dDfPZjSYLbYNrY+EgiNmwlexyFOwTrRCi8fKjp12R3YnjGnGejWPaZySiTmuXy0muvfV1Dnpo4ELWsAP/14BiudkJeYEnJPxbeN+kxVL8vsLL58mILAlT0auehhPGXduNMY7t5seZduNj45JMW/gAPH510mXjsRwLTRUZMfgwSJf+OM0UaeBKDteoyP8a1jVojXcfql+/ffvz3+rzuh5fvfOu1yx/oV8X/+offvvzgz7+rH3J5TXPCM4d2Tq2ET34uM5gtTyjk+Vwwb0Ejeuft9y//9pO3L//65oeXN3VSvP8b/bbzt3+oT7ax68bxuaiJToEoyCyhw1K1b4UhuXqaN5ijspF1/esKRDn1aIPpC9HtFzuSrok9ngEEhLFKTh4+2koJGz3O2DmxJHyivxaJX0CgasewLxo5+vgDgT3PVswZVD55ZPvSq0rgLFYmK89nPN1hpaL2gROXAQmBIg8WxUNUSwdE8nzNe7AGJSmxJKBwbq4SdaHbRp4k5kTICYIPZJPo6iVRxef/5S2uetSjo3GfFq7TxkpLiBUbT6J74HXv92N9y82Hb2ru37289vDp5ff1WwB/9PtvXL77rdcv39EPufze11/19zHwos/LrUnn29w/0Db+3i8/vryra+q3Hv9Kdxd+dXmfe8lPXtcdhj+6vPHG9/QmyOt7fdVLNLBQVKczDYuPYIRqszOeoGC2HAwmtZlLCmydbKPXiCPnX5KwcuFr29ZJGGSTFa9JTtkPLgh4xrcTO7xnfMGHAXnsRDdUPskkdwLjJouk2rvWLHPy5khgTeUko21IVI8ZCeyZ7uJnJ0KzbcIbEX2wcMqW45nn3yQn3Eaq1QsjfBWP1RpPkNbKYJ15MCemPAPIgZPepPa7ThLcLO7yWTia2gxsnTha7ief6Me8//Py0Qf/pc9T6Ov9+WD5Kw8u+tsIfSZYH9zUX2Pgh92Dv2TmT5D4SS1+JuvTJ/po5hvfuXzzm3+hS5RvHDGwShxjFraRrEW0QACvpnazTJSGILLosYFnxkcSrOQR+kyalbyLHxf4EQftcDgOywEip8WPGCw/I8U2MdiXj8kGktNWh/k+kdIfXOOEyl5Ua0L5txK4C+gk4WlQQK+3Wiao6WPcSgSlxpEwSWJZ+j8M9+yQZoIUWpJFzF4A8BSM6y99xn4RM5CdmAga2fRPLsydxPgQlKN3p0lae8kp1tFJXFifBU+dUssPX+wIn+rPgn79ib6+/7OP9PhEt1/1uQj9XZ4vq3WsfMXpw4ev6LpWu+3LX9Mr6K9p/vLHneadql7j6/RI//YhiRIhh1esWsm8wLaYsROGyKVxv1zI5unaFFhSsOMpXa0TBllwBiw+kjD+wmvL2JOgjgVbMJOFHsbOXTBnTCvpsQJnGgbChRPZkcAsVz/PwIJnkafxOJPEOh8LrEV0mnbWe20qeUSTxF7s2k1qCBBrOqBjwZmTUWJgV/WEDneYg907ce3Tmg4W/xePxVR0c0JkZJGlyz8jK/E/MZig2LThGTABLkI6LEgmHnROUiDy7YNB2nIKzn715UmSQEB84SmeFiFYJVljmZ2KeDKJaWECRyFBPEY04/b4IhigSS7wHFdQxniAPZjyVY9tPBnWv80LWKDgMe7ObX4J8Gs3qu17YYTw/elo/UVZva6MKyLRJGvbcKKA82Spo1ljOU2YFcbfxkqXoIQicGPKg/2QGafKQypKZ9zO7MvxkMwc/XCBQ150JibSnWxQK/oB5az30WxeL9qcXPbfOM5YkPXFURO5bcJ37SAEddZgg2P8ebYyROY5Of0I5kmgvS3g+kCnvuxzTJqBRbM6QighPMcj01AvfRyN2Zd/9Hl4js09PgycCiemKp4hx2bhtO0nGTuCoTEiW1YMrNhI8imraqusN12VFYIHFh2V/qjTydAMdmB1xU7BhDFOoUeYtL6tIR2OLbmKckBqKLWhlzRaVrKOYZI0ePhykmjMWd0Y3CcpsOegE9viWJ4myUTtnALHwuKKh9WdtPBJqlJOMYJjXN+Lm2tOVNgZpDZx7HEdSUUZrt1376jKM61jrSywHKNkI6bJLKBnlIdx7qo3PAxdVnKDusGPZDtg1XRKyCZrLXyzybwweiJsmfmyF9tl1et5xxJEfLs/kDTCkXOOLe4cD6FQ7G7b0tMFGORNBcMcUH6JXS+ehMplbg45yPRtK9YcRpcRWjxqgTmqri0dVH4a6S0wjS2jogyTbXZ/a0c2J5xNIdCYiPaOL/++CxJdYhBmFtC/sKRjxoZbNfELtx0TyC5eGcltu8VrZ14JLowDggPeWYYEGd0yRzgl8M1/lQnBebYPE49lXi3zvfrq5OQ/DHBlXlmq9U5t94Ct9KiMZ8ty9UQI6LSBi7FJQjW8jkH9Rc9xuiAJnmHi6Vjz1vlAyZzP8phPw/ACyjOLdmB1nBCZ8Lu1magS5xFIsT2AtVM6QDzvJCZELyoHq1nJAg8Zk8pJpHbveExNZGpyzG15Wp/bdOGVHpC5iQppjtweGLY0cS0TVpNkzOg3lAjj1rUVVJEHPj49kO6YfU80BCXvCZCnhC0n5qui6JevUQzkGsmoD3Dql8u+GN/IJcjcVJ52y6Bh3gaH/XCZSvIcDiNljv1VI5GLbCeOfRziNEyV+Qd52BswY7MffdvWfgYMiUW/mEuTZKNfRTxKJ4F9quvbOsJg4YITHaATTQICXwlo3eAClh4S/uOFspgkUQx9xYhqAjH3cCUpuG7FbnN0ARJ/JtlaV5LajQZ0zJUkj/ez3yMhAOQgikJGYYHSQxUtY/WqqLC4gacZ4ZUunI7kSn5aVEGb/tpJPYy8mjU9ExNzB75zFX3QK7xJrswz0iTzieWENwe8JPe6O1GW2Jh5kj/20nd+jm4iCGdWojzRYLswPZaBMPQlBJM/8FkQRpIJ4TVnNMlHEL3kGJTp0q/NrCATUgKYffmQXTkbURKmm5InDjZs8l+t/AFwLGkbCjLv8uB1BIyoeinhMYug3RrEfcXHyLFiKJ7Y4B4Jp0Qs6aPr2FzMhWXL+6CJcykwSpHMsTvuJRplTNZgdfBR75AWB1n8VxIlmOAyP8DA3Ze8gwPvmOLL9hPjNMNYfDz42thOZ6xnRhC1iWpshn/goGI0zH4NNMplX3cI7tgLrHmduxAA9LQ+t6mw61Ji50WbRPJnA6zvwgbNaCWDBh4ruKAyslSEOQGwY1LnelhDbuLltZHsZALC3jmTJ4lDzEQrKSdxDWwfk53hDJAotkniFQoclKRqYwPP8eYkIL4cgaHuM8Zmp3J4gnDfk61xFW2BqH8OY3XW0SY6+h0Xo7H/b100jHtwmDFmg6S9SV7PZ/QGDTYbCPLoMtbwBu91lk2RmSF8YKraYTBiN1axYvoM68/KAgyKKf7Yd9TsW3PR16QuHg1XnNpTwikwLcEpAeCQ2jaG4UEdK0DSVyOAF1h9Hyy8zkhacMiVAOgVqXd3KfhGF5+J4qt+c0XGOInb5CKRIOXBnQEKRw/ZOg0jA4mceMCfcVemFi1+XIC1Y93IJU0PLQ9GG2mTK2kktb47qqbtZrBkV6M4ceo73pHR1yNHMsdTOuLssa3+xuY4gAyX12L6MFoePF00uZRJLzOgvl/94TTyui9v2yDAHOXmsqRJDFeRafWtSTWzioi8k8Vtl8jJhDHRKcv8e8MwGKvO9L2Mi8LCWVLOPpLLCLUqmOVoJ6ikYayC3wzpOeFkxME7iSfe/UKMe7bHHQ77kW39gO/O7X7jATMgbCaidrEqh2VXQ2srtiaSyv28cujpoqvvG5W1Y+sYb/XlRV7cgZkXLNz/DaJ4te2Oxie6wmhSFtDkyt2Hzb1wiguq0O0eglMTy+iNved4wF+J5zrcXPixMnNljoaDTseoHZi9kvWjZudi0J2s6JvWGFezrvR5pPiala4oYXUhEAZkLS27HyYLMLs8EKCjP3dygyVnFyX8FbO+gfEpPxdrMpJ44odfBewuHCMxsBsjnXhwCm4lcgNDrr714FO8uO4Gt+skjm2s73gMVxN/w54IGbisTgVqb2SNtwiN/c/y+qyN2nad2AwiYP2zg4ao+ZDkXUaDj13Zw1EM6yIuT6pkFgvpeJa7NcQbfpOg4ciqjqkJuFvFGD3rW11lmuUHD15++vAR14cy9yqo17eDZUBJYiAXgIWfReYD2vsFXXT6Y/LYoJNfsAM30zo5EMoh+lxvYiZb8GaIrWrLrzkkwhbcfBbDI4NqHzsg5jD41NmVdbxj5ikUBgT9Io/gIbopJr2RPe8wXvcS3ccjzCTETjTFKhl/XEo0OQ4tuTuuRkifBxsFvUkIAyVRGxspB5FedJEBw7rtTuXefhulmiRv0MLzhoIDHHtHsBOcWTe31LggPjrxl5jNTaVj9TuMgugSQkouPlciYMcLunMXFrIlWe5gcNIFxyWFs8oJQRQkp+VNBzActLitrxWWM/2C9KTYWmzQF5PWSyAe8vYGAaHQlWpA3NodZtmsJYT44LO5kGyMkRrGrvEjOIsJRmCw+md7Yu/rn/bob8eIMoPomjyJgqQFT4ttitE5sIOOeQgobIkRPkuLtzic1DmVM47/YRm/41LC8gsLnGq4ofRHF8od10IUG5aJxObRqb71Y2oyLKsIleke6Ifw9KcZTgSSB/X+vG5AqbWQsmhy+897YJhdlx4A265EN0CytMXYZsnQ6eHx7tciO35G+M7TG0lVmzH3WH3uOIgrZzUxD6d3eEeQavnHpt7UdzfPSgfaPEwuJ6ghq/Kq1fA0UR/dwX2lrd0hlGjtN02spZaSxOBp+o5pBdO6oSK5KE6L6UnmBJN+4Fuv4xu/O4FyknAU5wsqGxs7JMuOy7gcNRrzGBKcU3DszEkQGkdEm4f5j7jhxD/2TAG28yJOIp3GD/huWhTsVCLJ+uY8TA2FetZVjozAskg5SMZIBquWaZxNniik1MNmOQQbnBUHoWQtX3MtEyipYwxNQPJlTrxykHkGiV3i8WI6UbGXM+KgQ/84hnTFMUndE8ALARTfNUlPFPAgHU70LnbUwXU7JJwSsSMkCffwWj6+2thmYU0Wfh9Xx2lb5xjO+DGZsVpfxyLhWdhs0sk4bsppxU01Or5oHPs+HAvQ2sKn/oAsLUYDIuFfy+6VY0vI2fryn8I8fKgfA2mmuGX32pcSgPGcBVVykZH8t4JqDUBpnF2MgLxrbfVgh/vGp3lsDwymfbJ4B7YYfneoBo0DS1fc0Rz6AmjrNybmWd2F25I8azCB8I2jQ828sDhufcwoi8sseDQL6HVDMGsSRBbR4i7s4SNdGSy7vaDW2aa7LpKmA7so66AxmLG3do3D5U3CPPFmFo/R159ay8aXVVQZezjXNudxsXvGLtwZ20P2Fy5HoLaf1EVm90WZxOWrB9Y0AHr08isSSMRC0EimL7z3GD3jFCUmi69H2kJ2slvnXXBb1QYUBxhfGhlSXHidLOMtXKMvDOuJIfeMzRYL5Co++eQIXP1tVInwTx9Ei8ZLVFx1R2vMxHGI73YX2ajKyTPF9H0deYu7ZWqMbUfvIVXlLPzZZ82rV1vVoLrbBnMk5KJPUmU4PI4XyfBNMpeaoU/mcRYreIbfZJEaS7LbJnondhwGKbs8s8YlSfypfrZs3QcG9Zm+WZFrYa6D/aN7nlumOJOMO4qnWQSd7p0gON9J3EnEPlQwKAwNPE7EUFaQvmu4QOkhXzmh6A9kLiEYhQsVySTBYJgEPGdhclKO9YAAy895qeAQVY0sZBaOab0NhZyFf9Q0BMGquK/K5hOYebNIAQzOg5v+mARHfejdZYYP2fQjIy5CoR3MtLWJvPa0XDad86lBbZcf5mtH5L4x9dowWY0A0Vi7uLBHpxVyk37Q1dGmxDpzZgoZ9Q9HrxLYW7SuYfTzJKavObdo+oedWb7tCkzimuQhIUjiOSgWM6dAEjtnO7teDoFJ6ztxSdIhjCPoVQDnMNYlDSFwzcl/sGpX3mgcc3wbGIA5UJLWMQoumCa6L2VlYULbM2jh+GJVyZ1xJiRqqClLRqCMLb2pboRrOB03OaIYIoiu0rbI7aZ+3Y42itjS93dVhIchxcja2kf0cYdWY/13kl6dJLHu8QaJbR+jh6EiOvRTHS3d8UXXOYwdD062OUbpViFB+DutB/qyAqt9RHNnYRauB+l7umQNcuVkrngZjqysfjFWq6RObLOWhh2YdRtt8dzy7bEhIcBxrsuJR4p6jJc9SljB0C+ybfDRtM5JaDCiPdeLdnVi7gUJzBqqkTmw9k3W6jCqaIw2nF5Gu2aRKapJhlWmTzNnZU5SkIM1nr7/C9iOWhfaPtQr/2pzx6Fo/C+M7JYfc0BYmckz8uWDGCaWcrklUb0pxjeH8YRfPeXL51TOaQ2jam6r8eCH87yoQvEibO9cMUwtZV/MQafEyd2G7LiLdCWoGIXx2SOZTQpivASTTs5QwuxjwJYjRa4yDSdGYq5co87I4opJauH833tJbE23CDWCANbKsDz7QphjQQHcKWFBjC0LCeME1xgtrynCKmKDxklxtMY0oQDYRvjKvENGnuSaZ5FsaTGvXW06NpdicBjbM9zEDt+o7DfmSJBbo663TsuQ+7Kh/L4cEM6GyyJac2PrrdR3yp7q+zSe8MeyU/asVDJt7w0/STZ6qr2ETrKAMM7qS8N8+a+ZI40Z/YwDpb/2aev2bz8Ues+JcpV45VM7SYwPS5eKeBjsx4JKipypHStLUglvDlcLcRdXk2sc0lky07RfdFusqivDzdINtMhoa2PrWfBypi0ibUfWJbOUJ0qI01agxW6D02r63gXrSWiJfWNUnYUmEeNINX1GeozfWOcauzifTIYoQc0VTbCYsstm/2UTesqvR2n3zUkYVGeoNqslAfyCjp2X7z5SYSH9b5K4k09S8t87ijLXctlLZKvJCo+SdDuJjSa7hoxmnwgRul4ZyChyE1resdjaRclufOjTt5UrpivRYpTR1iLTY/jAbUSswLJQe7Stv0rv82yz+OG+4nEyEMV1Cc/G92gcMBHKzi/m2Pqs3BxNorye2PLMh+q1e+ITT2DE14S1SXzExvuyutk5E2lscN9x1JE7PvOGAcyTSV76HDZ/pdzk/UoJjCFfk8T1MLuw/3kx6TUxQDEnCppE0YOk5dIDaXbh6KlXES7IkTHGvsXmMIGLfNULd+JtEPwhNt3iLkasw+H5pLLN9mW7VUl5w9mYFuQqxiwCmEW9ge4lCXJ07XfpHNPCa+SkXYKbTtCbY9QWU+WRBVff8mDc7Qlxx8cAlTTp4YFJOHbvQmpbLrw6+eJnxWD5hED2Yo+NHrfxc9PAvqAwjuve3wiaF26IW4hqQqlot929HvgNDhI6i8J26+WeROj68s4Zx2k764RiLMosepEI6O+dGK9+k2LwvqYcjHVmoUfhBErg4ZXI1FT49ABgiscj52iXHtlMgOXqq8Wef19cpAdy3+yZ/1QMcHzAC392t9E1EA+zpHRvSzSqHefWDosPAExoSAQVwEfx0K+GkqCxHYyUDuWwgS+cwszO69g0XCeHEbf+4MRyh2C8uSUXVz91SHi2lq4/eeDLBhlzufKpfrOacu6+jNdxM/i84rsSfVHnyDEkWfdCZ82knN3XzBYmFejGlJ11Ck/xAVrAtPckMZZqXa544MmILuMwhSUOrMXQiRj9rn0bjmCYVceHTuOaWS7RoUdFbIVg8aUlRoKtzl0Tx4GjLypJAI8yNjgAAA8iSURBVCO8uBPqGYwphJPeh2SchGpvy5lwPkYBQLE12V4tac3Rbs9KLUDj35xwL36QBhwyTJLQhile+O2fawn1Tw9weocdHmzIFL7E5DPvvvDfLV8wuxvMjpRba/miui58kpgk3MuUeeXzuZIxm55RIaMwNqEN/+hhcIrYBHAM9k4cGfU+FI1kH2RODPdXFc39OzIuejJ1uQi6nhOfJ3+iwW9jRBv26x6j5y+TMiy0A3HNWnfKF/VOxMYuFUAHvGeoBhZPQgVzziMJOr5tgH054ERI8lmpyHInYb/win20gx18TMYQH3R1KdDPXNTGyS0bdlunvYBcZ/tnf+eWWbFnyxoM+ym+228S8124ZCNGSR2SE5pZTjeqRpYkhi9JjN1OtbHB1rtxcB7KPstnU4nAjD6jFTgnkt/MOJkXFnusLYDguhDnoV+T4TNQUNRYSNFbZSwCZvlLlYPOwIzTpYYxo6RlZJV6QW2yJIYfI1szThDuSJaEM5uvGVEHFURqSywfhsGUL3cTYD5t6c8YfP4P7QyG07vscNYjXGMWntH7pDOtVlYyd23ECcFoX9JwqcJ1b39zOtx3687wXc09El7U8YGffOQyixgYv4nW3SzL5eQjMZrsrLim3Y16QY9NhV6qSTZk/j8nC+YRpGVovDszEtZx7HQNtY0Hv2PYlvTiL5lZPGL1mduKNGby14FgOsXiDsAfdsvkkBVKe9r6ZETQ0r4PRnKraItpG4OIK9tt4Umd210TW7CDF5ge16GUNKp5+tco2iqrHV3FteIEkyxcSdJRWc5JwCMfNgrufLPCAXxO1Wn+HPUW92mYSdDvEigD+ZCP/wuUpOvbvCbtwiuBGXvBvQAZuzuW2HPM8QE6fOp4t2ccEkvczbt1ZpawLXqwjDeHtbtaGIswuS0NbvEKWfAsTsYVthURUB/MJm3i2EYDjhMZbqIrqWysGNuKoXf/vqTbfujtSwtGOEjChIp6HnEMKEVjP8MM3kJB4zrWSV4YGsfIBUYG1pe3NZbUbqjMRZvUB9LLBpT+Jx2fwSHmz27u95rynmpNzT26zxWRqA8fsROzCFBQaLlM2BcI3klGnkZJZXxsbOFubCOFhuSDR5KlRxwEx2iVhu4Li0ULMo8tEo9axteJhbI20qkbu7KcbXEj87CytuhuGdAlwrG8aYo/W0w0rg/64ijihmBrBme9+7Ia97EOTzLqZEnyXMnHfXxKb9PYm+vwxZjtpxDaHLNk3q17OEr6qkCII/8iZ+xD5kdz9E5bTsSYfFH9ZTN8ry2XEszwA31yzdfDOJ/EdOI5AbMGK4kn+Yzr4sAyWBwlaS1kqELazQnBpYhmp/b0jRDXdKULFrvRYqCREID69axVG9SBWnfBb04g941t6qp2ANVvMBtw9ByEMGqZwx6EEVpOjU9fZx9Ix2nFcWU/bpApjibI3JySEvxgPMKXdudmOTJMDTniwMZ+hGUHUFIiCg7KJmDpbXCdvLJbb3yYLqlLbFh710Xu5OV+LxxfrXROvhr6QJFI6zMTYvEhq2X5/e92J2Zxe9jqe+gxaGmoaJWwa4KWTThjHttMcWzGcAYEMfilXuSS2Jtb90aFfPm1XW3UTlIsuv/3jiJbiXa7uCS+D4dF8DFcJ+013ulnA8k5RNRXkBm4mUQrXu2G0stoNtpFFrh0VtMGJ4CTMyy5tCmGBP+i22XY3ld6CPfpvlSWJNbf0mk34TO+lIdKHpKLRPRuKZmdUK2EBCmMN0wrEFiNKMkZQtfYjW0+eimMr62DYXrSOztD6MsL9RdC6PLl6UFDWZuEuDcbvRY0Axqq7HI9xuKeq61LtQ3FviaAps06xuVEmmKkfEnvgM0wCA+2xG8QMJxDwXZzBmcVigzV5FNfOIqIepTqncnrnXMCKtoveAW3lXWsbnZehl5v7bxPn/IJs7nMSPRfqZ5D+UrYe0EsIH+Gz4+Z0CcnMinUSuPbnRgtq2StKiViLEaGGqXr3bNNuewEXzlVmJymXk1jiaK9pGDZT3lspJ+ELodbKPQPH9clfPG9l7TuWJx6Xp2SoGh/ung4RIeraymj8trCaio9qlxJBM3oqh8RUkpCyci86voFmTgiRXD0KzUOhqCMGRxXGqzNA8ZLDQeDc+fV0B+NJIGfPXnxfjOViJ6tdAfKXzVzPzZLUbm/Y0Jxezwzf30HQTonMcFgm8RwZA6F8RiKO72RkdASzBwdgRdvtU8qlFiB7XdXLAOyDgVm0/fJaNGkVpNbGLMbP8cayaKjUzoWrVEXgI6VrQ/QcLLYdk8LxhWdLD2CeJy/NLHKbDFeSLPJSklRLnQDrRZzF8sVg1q+ICbb6iTc2PRaF74RyZSecM69SH0dz8YS16bPZxtyjP7JMUlzt4E/C+IF2+zyRj9blWN5Npt70SxGrokfXD5jFfSAfNfqIaco73I4GRtnm1GqsUbVgUC5OYbL18wB1co+s+RLYSJMmObE1HYwVko7vPhyP+sCGAGVCq0UfbopxrpRDwZfxOL2OoOKvtuSSS10nVkIDvkaVpYjDkayEVfb8VJgPyVvKhAjHGOrWGM7ssH2EOpn3WmwXhwCeHYWDdkN0/Cp68Nbt8qc/cP+7M2sxLMb3lp4N1HwvOX8kB/EFjOLtpOGNztwx2MajTk0cC4aG+LxyKRggw6OK6YU20gev9gF743S4G1/+jxVQcBUbNt6UTu8SwIkwaCchwRN5gUcnDHSl3rZnkAW0VeDNVIrg50tAXvcABBBRtlJVolVaxDUiR8zJ5wZZss87wAk5UKyQ+lY7QgT1iQvYiKycJJ2rnnxw2UFO3w+nAPyxco5Gy/GtKz5HLHe5Jg3OpoAWb/cr22ydVH7/Q+lsH4lTizXUEYr4ST0AaiKlBPCA8/iftYPx8qim+Hyq04Y7wFYVPlYMLxdAwJlkab1CXaCjB/DK7qxazDJCvGMg9XQmcG0Hd2IhylaP7UjaXwH2Dr568l/Ji4mDoWObcTH/xHCDp7E7BNF7YH00iMYjX2rLB9UL4epn7OamXxO688xY9G4M/FAL+64W5BE4smeMqk2L8hGJAyhJH0qS6JHjoxeKjp08xmIIGZ3LlyfZTg3RSba9q7TM0mIqlyiiIuj5dTouEaFRx/1ian+bFlVYWxCVLflWpbRKUt62OpaPEQSTpKCvI4mBrlkEFwZZraTpy+yot6cQvp/E9dD8XMo+1aEEzus+kNgWfu+iLC+tL75c6Ahf6HG0/hCDJ9jTPLlDQ/tutqN/Ws3kmVCk2x+MdUZVtskhnKJPUNIJkHRVYnYyDk5RpFdLzo8ki8z74u4kRwCs61qfFy5WlEFZW5WVWXzMcAhUqprhiQVstgVdY6R3RYnWoXb9DCrUMgbt45Awnjl1VV67IC18psaBz8XNbYzYjhnEmMTvrtvUGAZXu/szIzs+GAOhW/TOYK27EWqHMmLMHyJLe+OsRsniTMpvRbOoqtuRmbGlOzpcMGRIozz9xjTnYWiAdv9BvNyhwLw2Erppy5jRCHj5b8YnA7crTF72qsCNiFMi+aUgLhFV3aLu2sJ0nTuTIWZS+xJlXgdPh1Qp5OD2zpRcbAqJBRl1zuRRzXa68TFhptgcPrFmgjgyIngnsbYqC+Qr36UsPwt231/TQHfi5Yc34uyfAV732bjQ/HJLlvgPKmng+0lhYSeCuHyz6BUyGwUDTjKQSlbAOipxWUbkjvj1NJI3gWVapV7k7laCClt6YrYG5oV91eO41B13NbBoV8C9XfA6S/QDM2Hc3eubJ2g69pZACZISWXoylCn2nK5xKZjF1XBZvjHeiV//Z7Jyyz7hphs+JpxPozOi7W4HyIT//aqc8p+e6z3MJEY2Y35k33datPBckjsxk039zhaFR+02vsuK6w0Buzg1ZsuPZXyzmh4DYqJMbZRBs6zajg61wdudUMXW/p3FQp6QKcO2X3jYstlnKo5KzJLAzqxxUO7bMYHWUfygaFOx/0lu1UZFKwtlw3meyf37/SEVS5yuQCV356YbPdJzZelPMOHcuB4nsKUHqE+D8Wz2ZDIj/xJNr397KnRAkiWK1ySThcDK9nErQizloSaVI9H9ZkpY6NrJKd5ZHMxMkfrN044agEjop6CsXT3TsqCpeOaaoEXYMjspMw37TK6ki9pt74yEWtlchNPg7Z8AuEp290k3b6WdYqZrTTbMTyy88a7IpjDCs/xnrESl5QGl506H0ZPTLxYI7E/0wu25313bcf15b056i8H/rYQTU524we63dbr3SX30pCcJFeWCd/8gQRTGUnbRGVbEm+V3d/izcfUI79iscm2W74AzppOEy8buvQ5mYoKgNr+po3xQVgAirN/jMOEoNxqJSSRrDvori+LUNQGPBwtGQQvHg2rTnKCG/7kqQ2TvDkZ+k6fZxJyEtt//iPNc3yuoZE9S3s7Zc9i+8JYEo83Pl7S9xJ7jpwsuqdI6/SafVnjBsqlMt9A2+TzAjoSSWI2trnubZDGqYpddMhYNJupWkkrCXdNvG+jpLCtuW9gFptxV92gZ6hqe7Yy91Cc55fyIaOQWI7fPscxSSPATsCmX/TXSRsWk8H2OTsu+rXbi8aM0677uhDPej1Ul7eL/Tne45Za/Pxu607f79bLF7D7upgPA+m6OLts5oWFarK55+wU0aym5izAQS0XgzOsNjUqiAWffnxk4PRAB/myTe5u0zkxBLKtsLUzxmPs9TBPLWkjXMlWjIGoxUhC2iTG6zQcXkwoxlxhl3R0hh3VEEibpDaD9enN2I2OaA3BzyBXuuZfCe5PkvF1T8c2fXj9XXfXFP6uHZ389zn1TswCajfmlWwwelfPK0blq+NoLAujv0TF4AgP1cI60a4Ue3DkaQjlp0y0LJ1bVdU0Ogyy+wXZj5QG1wQXg5wkBZBhpAeOmxgxP3bSoJ3oo8NsF5LcJBIFi6509GNWnVr+nwDwAFWXi6Rs4kKGnh03CNUx8OsVcPmmHOmrMN//b3Xv9DxPCC9K5GteEljXCDz4eqlMoaJBPkGtNCYBKlU3dysABVl8zDTKf3NFNliALMzopxvBqoEAjLkxrhSXWr9JI32pijOvrVLleIZn5F78OT5fWYqPuWhSNPWBdz7smrGxaYfOqPSlzP9bQBJxMhVOujOMD415gbb8yRH7qy/ocModBmRf8OfuieG3W5/zW+b/A9qUDBizw5s4AAAAAElFTkSuQmCC;" vertex="1" parent="DZ-_d3KtzLlh04xcQ-5O-7">
          <mxGeometry x="2.3700000000000045" y="26" width="176" height="174" as="geometry" />
        </mxCell>
        <mxCell id="DZ-_d3KtzLlh04xcQ-5O-6" value="Genesis Key Contract" style="swimlane;fillColor=#FFFFFF;fillStyle=solid;" vertex="1" parent="1">
          <mxGeometry x="349.18" y="770" width="180" height="200" as="geometry" />
        </mxCell>
        <mxCell id="DZ-_d3KtzLlh04xcQ-5O-32" value="" style="shape=image;verticalLabelPosition=bottom;labelBackgroundColor=default;verticalAlign=top;aspect=fixed;imageAspect=0;image=data:image/png,iVBORw0KGgoAAAANSUhEUgAAAK8AAACvCAYAAACLko51AAABQGlDQ1BJQ0MgUHJvZmlsZQAAKJFjYGASSCwoyGFhYGDIzSspCnJ3UoiIjFJgf8bAzcDIwMkgyyCdmFxc4BgQ4ANUwgCjUcG3a0C1QHBZF2TWMVEz39r3+3Nf7D0tVMgu2IipHgVwpaQWJwPpP0CcmFxQVMLAwJgAZCuXlxSA2C1AtkgR0FFA9gwQOx3CXgNiJ0HYB8BqQoKcgewrQLZAckZiCpD9BMjWSUIST0diQ+0FAXYfd4VADxcCLiUDlKRWlIBo5/yCyqLM9IwSBUdgCKUqeOYl6+koGBkYGTEwgMIbovqzGDgcGcVOIcRKtBgYbDsZGJi5EWIJwHDYdp2BQXQmQkxJhIGBewEDw67OgsSiRLgDGL+xFKcZG0HYPEUMDKw//v//LAv08i4Ghr9F////nvv//98lQPNvMjAcKAQAAQtc6+ym2ckAAABWZVhJZk1NACoAAAAIAAGHaQAEAAAAAQAAABoAAAAAAAOShgAHAAAAEgAAAESgAgAEAAAAAQAAAK+gAwAEAAAAAQAAAK8AAAAAQVNDSUkAAABTY3JlZW5zaG90QkkbJQAAAdZpVFh0WE1MOmNvbS5hZG9iZS54bXAAAAAAADx4OnhtcG1ldGEgeG1sbnM6eD0iYWRvYmU6bnM6bWV0YS8iIHg6eG1wdGs9IlhNUCBDb3JlIDYuMC4wIj4KICAgPHJkZjpSREYgeG1sbnM6cmRmPSJodHRwOi8vd3d3LnczLm9yZy8xOTk5LzAyLzIyLXJkZi1zeW50YXgtbnMjIj4KICAgICAgPHJkZjpEZXNjcmlwdGlvbiByZGY6YWJvdXQ9IiIKICAgICAgICAgICAgeG1sbnM6ZXhpZj0iaHR0cDovL25zLmFkb2JlLmNvbS9leGlmLzEuMC8iPgogICAgICAgICA8ZXhpZjpQaXhlbFlEaW1lbnNpb24+MTc1PC9leGlmOlBpeGVsWURpbWVuc2lvbj4KICAgICAgICAgPGV4aWY6UGl4ZWxYRGltZW5zaW9uPjE3NTwvZXhpZjpQaXhlbFhEaW1lbnNpb24+CiAgICAgICAgIDxleGlmOlVzZXJDb21tZW50PlNjcmVlbnNob3Q8L2V4aWY6VXNlckNvbW1lbnQ+CiAgICAgIDwvcmRmOkRlc2NyaXB0aW9uPgogICA8L3JkZjpSREY+CjwveDp4bXBtZXRhPgqge0OvAABAAElEQVR4AdS9Z5Bmx5UldstXV1Wbau8d0GgYomEIECRBwtEtSZAc7jhxV6PdkXY2QvojTcQoQopYRcxvKRQbq41YmY3YiRntGO0Yzg45NCA5GBqQ8IZooIEG2ntvqrvLdBmdc27efPne96q7AGK0o6z6Xmbee67JzPvyy2e/rv/ut39nzpC6urqYKc9lc1rQweR/ToHLBBRKWlkODGn883/PyZPa7EOmhJhyyXZ1p3Jly+nUIC3Yzrkf0Ned8IklevjlebSpnksnhfDfTb+kOjB0QYTUH1H23Lko819tQhezl1EWooIRCpq3SZXmpmvW5ubQojkqiA9BLFdpbpaUiuZ40CAXsrOzNEx9TpuFDNMchZmDMJt4jinkRQ++jAkLBEGS92LlA3lu29mxdXiFyxipqtNZc36iE0NDSL0xkKphk7o3qiSkAahILDXlJJkGhTrCQGDpQAQEc/GFZ0DQGeZCc5P1J5U2ByaDKHSgQteU5At5ue7BoMAFUXzwJOtGMo12u7tjh3AfCAkZ8qtyYS/0JatS26G7E++U2PogVPq9BdxW/ee+VQMOTgRLqCFeMAYmB5vBGAHP3IHd3d7PjoEewGbnZmCrB2XU4T/VzKIsDwCkLgY5bc7BSBfy2dkZVyhctTOwK7qoJ9nzvpMqFqWDguymCsN68pXyLEsvPYhUlWQjta032MzViVCAEjHWhQBxDax5g8jzDzImGCOlTHA/V2NgmJdI1ZNgF2ZHsJEammifVMw8Mfu5HDRlu+huwCgfPMmIiFkTgdm063jq6OY+kOTdliokuUOuM+nKemiLfzLqZUKYKjnVnJaKWb5iiZ80UDjVmaX+Rtu9Fv2vqtNSBFTB3K0AYZBF8qBjQPmYVDmCDrBuzur8U9A5jkHucvAC/K40+2tWBo5tZFDTXfJnEd3YuscaS9jiv2y6fm8Ft+5H+Be563SeysBxTiOF48SSN6HC1GZeCqmDYSN3NGmy7B2isnDunDsVLlR56Cr1wbwaTpTLUbd/nJYaGrRkJzDMKei6mTMwkaeZM3ihC4Ck32VED1qeuYmp+CgR5nJSmMoEpeT+sOK02LGcQho++ve8oqPjZQyZRoV96CQJEJgTAfxEIKKs/6AnIBSQopTKHjRO9QH3saoCl4HQraDLNDgkTdQBUQYk67Mz3ofEdZGGJpE/N4fZWrMyCGisZmWU5hRxkCNeOOTsDKI8A7aKAzGwCT9UB44TVhJLPB+nEpdnXg1AoKlBhlxACtEQDhodZ4hlT5wpXirmTIOcZk8S2QjSIqkY1TQFMhz9a7ywDSBhISu9nDWTbqcnTNJDG9Tfw8CmPMoVjhX3oq6TOoit8yuMy1CYNH1E6sSXA0R1YTCZ1aznZfRlayKX3mBgxQ/JikIyxyNSDGzklIyvYAZTJPL5YT9H2XMEJ2dgmGDfUmS2a8ZmuGzIMy6XDcClwNU3GxoYejzoIZ9orsTt0X7hRrijPPqYetRg+CAaV0BsB7cSjn6YMwWvCwZRutKGRjlIrDrfy84Og5ELBQD/aC7ontM8dbk+96Oq+9KBku60ZKQrNcKl5QZn2tjZ6I/rlGTW7/rIk1cpj3LYFTPLy3rSJ2Quk0MZOiGU+8FZkZgAM0fy9qayE0hN/0K7LmFjrNg/nckHDHSJe5BklMa5kssDXw42XCQdYeqBgzIlHOszJMv+ASotGQjW7In2chnBdTAxWiIgoDXTajlBHKPbZ2u2nXViOfMizrUzsNWieSeyIj9YRZFcbtR3zvEy1jXcg9THjGPuNJF6NSje/bmDyKwNgAwmEZS9+70eONJ8beL0OMoP0Xzw5KPAXRMdCinqw8e/eivdpOVPkpGtwMpegeESwmNJcmyM8N5FqUyzDopcNuhyssdi+MIyU/ZDGKeJTr9UCFsc6Kp3QKUbObk/Ua12bqdUgxcIinLAb5RKfgSBJNKGfM26qDMoAq8cNCweFJi0wQMx6UgyPDgjjh+ue6mBZyz0IY1TsmgpWNE/Cm5MeJRhEHfjM4suBwwftUg8dQwwTBADTcVULzpNfE6G3pWcTD1h5o2BSZRaZ2daFDh4UW7m9CAxY5CUi8xNZnpwYPYUJeks/Yhy5FQs9dLhgeI8DzQeWLp6aiz4tKBOhy3aKT50P9dTmUrCJ/KrQKxkpRI9SVmVmbHMWRhJGqQk6E7l6DlOMGxYj3LCUFcxiKRqR4qRC3jCKJMOJygg4QFDSvGSlgA+9CAiQiIYKeFlts3l6V/wGbhMrPts6zyEuNrRTXrCs9UxI1KHlg7gc93K8xLd8AOAvBMxEuFJ7g/auGFiG4WpZGizF5+aIhI7OjVppo76ADgjZjFfqxJDOjYo+ETEMkjwUWskBi54JIU+rzsu9FVf/UQy+QwtOidQ6hCrPgA+c0bA9riksK4n5OiB7Nd4gie/XL/jE5ZeyKjzElo0pwe/ylECrOx4SpHmR+yslSkCmJOMPE5jq3IClsPtg89w8MTAYvJJiksGlEnTv+NYb37Qu4CQ7jOp8MD5OPg6l20MPnduLidI42zsPK9TN4OYCXOvyvSfH/qlD/2RfhLIFBcFT5mX6twZZtE5QkGul0I6JRYSjZz6YlCCxTr/2FCVUY8FvuxTPWnE8cN6+jrNNAeCzCjkP/4SJnQyF0d6qJIByR2gotMnx4UvHrQxa1Y6HCc7VCKd1FPR5Yc6J/ihmzqpX+gkEzyn0TdQhHGbQQ9dFOYIEZXGKpdEbmzoaWdir5PuYeF8zpIMeGRIHNBUBpE0jhMBDAYyuWXZP85nmYGhGrLMA536Md8UAVqeqUgzMQAzWHbMYinB9kfgQqHqQdMMzY5EYLMdLEK9fGKdibaZKFOWuRdyCUwaeb0RMEJLwEtkMkUeZdbVrWAr8ApMDiqC0RgNJ/VQpsipWXpAy8FLvugeoB6okIMSWZQOIagufxIXdQLdTuj2nGRZVE5d+q/po5zE6YHjtKNQjh0ZNNaJY+4yqrOcdijnq+WusxvHxD39zp+ZxqDhk0JP2qnLx4qi9SQ7aSDBYQm9I4xkQfAamag4VHzWo+qByGAlJNE1u1IsUcCL4J3FDKezDlTLpQf+4uoc2x7BU+axtJjtxiybApjfslxHz2ht7P02i1N0vJJH3yjPKZi7k1bP9IWMlMRvKYcPvQSrj9QNhSSFnAEOuoj/qe4sDp5/ynpZlhFgOJTVksK7mzwtIZJO1+36ODt39yhqEdyBp29YAmB2IIVBrwBPszV3Fk4csQMx5x8djx0UECWqdJ63KQIvZmuCom3E0bL8CznlHqDUKT41cgcKLPLu7h6bWbTUBhYvt56+Prt+6azNXhuDwHX4iuGSHgpQioNJO17OxMyEvmDBomAZqxjIXC8wyLzE2UoV5HFmgFfTyFdo0hckXh1j6uY5YB4rEI9cSwN0PfvHzzr47FoFr8+iqiMYeXqSuJmZGe83rHzZfwpwGKVtXaNTELvNcjw0O5OM9kUAe3x43VmceeUuO54FbqKMIgzxtBQVx+AJ5eAkAwnU+akCDd0MVUELvvKsy+2UAy487DEeI6DcLXpAfdTrXxkKfBkhnR9gGLDJF+agZp77LQo3DVyqExRBTwz+1Cbpkgbpc13Uzx2Iso7VtijPIXhfuzhlo0uH7KG1S+3i9KRNT14xm+HaknLYpkFyndzWE624XgI9pdCNqo8TG8WUYAxK9qMS7ZCPrEcXFxykwOXMyplWY00K1dFComEtq1Nl6aIGqNgB2K+Uw9kEGJnBhQzqlxwCkmc3dCmaHYMAZopx4UwMCPjcQcDgDkNCSh6sZLiPQc95yMBeXjZosGGMvEjlV3oYdwCdV5cqdxwICnR1k5ylnh4MoOuuGiBJysdMhQ6gDohLn/Aw5LnjNBDAVDTnU4bJg8z51Ks1Kp31f+2EjvMdi2Xq0ieBXIc4yQ74MAwVSmEbRKdJN3WAzb7O/vkO9tax0/aHT71hc6s22crf/Jwtu3rFv/bVGB5IctAkiLxKoS4otEaaBhuBwVTHwJ6+fqnNA1DxKt2gSQQbCOncrTSgChlN52BxVmTg5A8wOjADhBp5dY1+cCbWPicZD1gqZt9IB/sUemY165KDtTD9jb5WzpkYNDQIiwpoh2YGMIn0dQYWVfZ+pLse1Cy5LubpChuEkLilEQJjoGLmYZ17mW7eoAEqR4qv/nCONJVTg1RmABT4jJFOOA5VzieOtklD2YGqe5A6nWSOf+AIdB3Bpx6WoYt/Cpbka9LpGXHsXioAhUqUFbn8IE4c4SooS7RD0S6b6u63Q1eu255j5+za+KT9zU9ftcnrGItLb9m//MMZe2zXNrtz9YgNTc/Y0kEugaSJimvJtfo4ksE6t5qv3RFRqg0d8AFWex0OAsaLkoo2lhUmyjHIZCMRgVZgmQYSEuiajZEDwGBnEPMbmJd+uxFwvEChkEMfx1qXcTKDD2MnaMzpGPtmBnJd6VKzxpY7AS52MGGuVlxBUHXOYlwXcww9aN1HZ2Kr5vJUmZSToJaIz4BkkhENvDtALAc6vp4TyHGQd6dSXuBAkX43AR3EQq8HvrTIPPkedKSlq2hZb/JHdXpCsM/WqpFOMelAOct5WRrRrjRRq7MAkR5RKewEKVHRN9LLotthzhR6OajddqZ7kb1+8rK9c+KCfWz1kG3fvsrefH2P9a5ca3teeMkO7r5mg3essktT/fZnT79kTz6407avXQY9GBjpTllVlW/i5bFLQNnnJjNEYZsjadBRdYoHFXuIAYpw5BTs0gxOgUBL4tRDeV0SJhqBF0HMAJZuyXGigRiDXAXIKeh8Fq58YYnjjqBP62COPZcbvPhBGgNdocsAhs5YX7sv7hosa1zlODC4SAEGNtHw+lLBjTq/wmV8koMKOZaDHoHpGJ+VpIWG1ADndfd4XeTkVHdXOiBD7rqIpd1kG/JoP+rU67zQjZrjyh0PGO1sgZUiyKOz4xuFHcVvE5enT95xDAvut9SQO01+MvxpK+0GPb12YeVG+9+fPWIbzxy3/+ITH8JB2WW7jHlh3R2325uv7LGZaxO29dattm3FYhsd7LJ7bttq/8/z++23v/pxG5qbgj5ao1/cqJg3bGeTRiYDiD67pEO8HJSsolagekpi8SuzbBuDlBq49aBHiWZpmzTOuLDHMw7IEMj42mfw4sN4UeABy6Wv+pIzNfs0feJMBYWpkYE+wyAtUmA5e+O7CssIjByONIkjj376Xua+UbTrf/gf/wXsuZOhgFEfNLYi6JHnIIWcaMCQVs3IhQyNRDBTV5QlC0eQ2AF+Z5jvWV0IXrrkn7DBqGVgUaLQHz6kXFyUPfAqXMiQz8BlJ0sfNyoTK9WkqKB6siWKE4RnUFPg9OBy++vj0zZx/IitG+6xPe8ctGP7DtpQX6+t2H6LXT53zo69s88Wr1xmi4eHbNHQiN3z8Y/YipWjNnnurD2yfsiGbFqDk3aHZF9O5A17yv3KpFzwXkQVBQ1ycBhgURazrAOb+NxpvAx+KlNMR/3KpdgxADBYiY97GFTmTA46adPBV86ZFXSWyQ8a8DM4dcjg5M6TZ9+ECRuUqZYxCHi5gg1SWvNGAKUBVDcxAHxv1I0wHERERBm4VKCgBc4DG0GoWKjqmuEwKsqBjxnLcX4wFzrpmfTRFnV6fNCK9AaOgSlasSNQv8jMU5k5h9x9o2OS8tkhcE7WIBMuLL9HVaEdp1U5eEnnZP+wPXWx23aM9NgdH7/d/vWf/cD2/Ph5e+yxh2xwyTL7+Rt77eTBw3Z9Ytz6Fy+z2z72YRufnrZv/fhl+/QjD9iaxYvtR6cn7Yn1gzYwMwm9mGV8XGiuSnQn6DTPxDzRMgkFzm0ka2bkpEAsCAww7m8okOI5mOQzpNVXaDfXx7p/ADguhyRHVHJAB4boGwYXZ0IP3BlNKsSTxq9znzHRojTBUj9nXOY87dujRQIu8HLZ4AsGucWNxoB4BrKo2KqQvgVBo918bwO/xtUAb66XoYDn7JyOtqdyKKfeThoDnIGfAtkjDcgqiKBWOiNQUVFdBxboYYrIZqZHg6QFPOhOgSsfgFPwJjxpRGqHEY1V2kg+oSyEZwnrNiiX/iXjuMAz9/4YG1pmf/TyIbPrM7bxzk32vb3n7M2fPGv3fPbT9uiTj9qm4T7b8OH77K/+/Z/b8pEh+5WvPWmzK1bYz/YctYETZ+2t02N2346N9qMfv2RPD261z60Ztu7Jq7DpX620W0vuQo1EP5spk1DQ1agEUH8yiFPbuRRgPGp2zf3BwPVmK8YZzAxtAD2gMQtCL1d3Gl/MmHH2ItbEVIAe0t+M5KPf/QyDB6N2U3iGnRV/ZaKf2jFIpC3WUYQHmR4+9vpXNg34xyXonBuN2S74zENG+pMc6ZQlXsGbgjbokqeroOscIPY9QJUoqiZIN9VU/kiOdf4Rl4RKv+irApXaJJsOzCTgyilPv2hIg8acwZxkqkwU8Dx3Om1LA+6Q6rFLy1bZt9+5YLtff9e++ukH7dkjZ+ypv3rKBnq77faNK219Px6suT5u5y9etMGRYVu1YZ3tHDZbNH3Zppb02isXLtvbB39qX8eM/M+++oh980cv2d/OjtoTawbMpn0NXFmnB0ykpFlT9RtvOEMqQAlLyjhbqcgAxZ8Cked9k16dVUA7hUu5AoVYBir7CwQGMtejeQdg32CW5IyKFTCDh52rMxMIWbgdIUvr5DGDDD5c32pvYN1PPiQ6WBDLt2iiwlFlYFOO54t7Hnv88d/1WcxnFDI8OPGVzkBkHTnpOmcLx2LW80B1npcRkMQXB2MMkJiJeTqmp4dLBdIoh3bShuzQHhvmB2vkuS9uv8L5twHt8Fuhh/6g7B/U2cEUhq2wDQOJnzoNvVcGbtip9IS+MsfRcd+g7e1aYn+y+4xdOXPOrsPXn3zvh/ba08/Y1OVL9pUnHrQn79lqx85esmePXbHnn9tt0/ha3HDn7XZ+bML6pq7ZumXDtuHeXTbeP2gnD+y3vcfPImDn7ODZK7b5jp22BAdw3RgYtV9+hg/eH2gBqcxyrkqxETf1X26TBEJXyFMnFVEjebFOc5yLJGz0M23r3+lRVp9LVZJNmGhHTRftyTBNY3yTHDGRgh/1yCGpnYt1XKTAwOJPM5cG3hVSuOOjBjAQHEMFjklBxOBja5A0y3FfoZ4sR52UoQ6us1JQ0QPJprpUeNCCk3cW6U1+yV8QvJHU6x8U+A+70EUBbvABlTXMHJxxRJCMJn/VE9/h4rkA6ZTpsW9f6rMjx0/ivO0lG786bidfexkz7JT96j/7x/bcz16ydyb77Y/2XbMDB4/axLVxmxy7bIuXLbWz+w/by4eO2p9PTdqW0WHbvnqxzSDAj72628ZOnrZFmJ1vf+Bem8Ma+I2rE7YUh+2beyexI/JrtZ68vak9mkkZcHUMZ84yqQpMCaOewPk3EWRiRk7ImC99xk86YY4962coUILyWczC1NGDPprFBQbOjuzXOZ7RkBKX1SVx0PPZBzpJP4iFDGY2WY7zxZywysR28N4JjSHGUTejx6wmIJSxkWxcCFd80qouCDqgabA9gCTrRNHruoiluwxUflyWGGlmjg/t6E8ABqPTiSGfifKkSxtpaYbNLrpC18ttYkg/hZgoh493kwREEgv6uIK7igH5yaHz9ub5c/bEfVvt//z9n9jyDRtt8spl27Rpo936kfttfMUGO/rmm/bjv/6BLcOZhYfv2W63rNpmG1eP2lVclHhr0zJ7bd8Je+vne+znL52BjTn75Je/aI9+5TOYvZ+xc8fP2Iolw/bq/hN27cxV++TGEdvWfU0uVhv6F46jSN9bUvRPxaKMYyNgyQsclw3say0fAA216F0P8IYZeYEO42qAmhnMPLSiHMOPOc8NzwDA+KNm6eSygHXwaZt6mDiZzPH8Lz8IYC5nerGcYRCHj8Jxw6tvjA2Aeh5//FO/m5cDADMYOGspMCPXHuABRVd4w0kPvpaZK8gUhKQnOeRacsCI09xNx9KhStbtkMbYI93t0Okou0+og+YBzzKwqoNGOfqA5Yrik+bIo6/csswGJzwDNb4NpENI8r1TJYu2MT891WV/sfei7dmz33793o12+O299sKzL9v18XFbvXmzHXlnv12f7bGjx07Z2OnT9rHHHrTP/YOHbTFmiI9sWGor+7tszUC33bFy2D5++0Zbf9eH7NQ0Zo0ly231zp32zLeetqGli+3yqTM2OrrYViPwtwyaPfPquxjBXls70l+1M/kf7ejMk/9oD0rp4zRimUoZEZq03AdJA22GLunwfpJsMuEI109othEg0ZI+2iOdG7WHFRW5xcd3JPIihe+qBx3j2fPEpz79u821LQeWgaQBToMeQcpA96ACX8a9MTELBk/ymF2IiSCs8AzSIviECXtOj+BU4NIXYhigSY7yilTkOiMiP9kJ7Erg+Cc8OiHLuw5vS/hNGjCUI5458dA33dVrf3luwA68tdc+fTsO0p7dbT96/ud29dKYDS1fYf/0y4/a28fP294XX7VrE9ftsa991bY/+CF76unnEZQ/sC88eIf1a+0Nnej5PsxE27BsuPueO2z31W47sP+QXTp53J54+F47c+aCfeNPv2lnz1y0W7eutiXDg/YXz7xuG1avtDVDvdnH8FU5dEad+mlFf7k9qKldVc4AKGllPcrM2ddyOs/EdR3EMFGXcOpCbDhtquw88R0KLAUk5XKat0VwhAAoYn3getkahrPrEsgrKmrNq0BT1UEKEijyAHSLCrYyQGTIjShYFCARrJzbqMuDIXcwZLwxDC63xToDBYw0S4YPRFQ6hHMCZMErfRE9bajPESRIL0iixIBL3tXLH+EJEp4yFOuyscEl9rPvfgNXxDbam5eu20svvWFLRhbZb/3Gl2zVXbvsbw9esjPHT9mi1WvsC//w87Z9/XJ765U37O1vPWWLMePO9Q/Ysd5FdgHr2L0vv2YrVq3COu2Ubdq43j7/kR32V89M28l33rBbpy7Zssc/YquWL7W39rxj33/pHfval56wnWeu2Lf2XcQ6eZ0t4VrPPazy5LPo4X+B4TjrzEGiYXTULl86kOvtjKUE2yx86GWOodSyQsokgQ3Hl9rIcT3kMPEAmmtexjCTxpY5PjoboX0CshBjv8/EKQYhvI30A1ctKK7Tfcz9yluylRbjvZy1mCgQwcqyfxh8jBOfiXzGEjzxHcfGuDxdZNmDuNJBOjjZFhte6VQzaJ9UBjISZTMd9nWQpYbTJn1ynNrMDer6kxhLkuYm6aLWKFMHEY6JsrCicmi67fL4tPUvW26f+vJn7YcvvGH9A4vsvo8+ZJ/ZtcNOY3166E++bdNjF2zD7Tvs0a1L7S/2nbaBK9fs6tnTZji3+82jk3YMffHG1//cTr71lu7p7cJZhse+8Fn74pc/Y9s3rbYjyzfaN77/jP32bzxp9z52l/3ppg32469/11697VbbsWWdvfL6Pnv94qw9vNJ9Te41MgxqmvHE4BizeTi9lduWSApOjEMELPEcLx3UodXEBy8Cmb2pIKVOzoqqJ5qCl+tdl6MMvjt1/pdHazydlmdxiMMlrY95zzAXzfjy15kyXlpmimbQnpoAWlxJ83dFCKaNX6SgO5rJOKgMPjaIuQd0BC3pnvi1z0oT742nnOtgHhgXVh2SkpfCwMCWsIFjKMMCOxoF8jgm8gW5mLTPMraOZjGVxaBu56Nb5Aux9MGpqcydLWkinVeKLmPJ8K3n99q6Hdus//qEbVi7Cpc9p3Xu9u2JLrsyN4mzCPutd2DQHt46asNTY7YKN53Pdi+BL1giLBqyN0+ft2O737Tjb+C2yNnrNnN90rompuxv/uN37env/thGt26xnsVr7MjJIzh7cdUuDy6zfRcmbe0tW+3T999iR0+dt9NXpmwlLiXP2Rg89JmpOdupM7xJdF9VZWkiUDCy85By29mfCDQnez+VAexo30YQCww7EVjZEFrsl5JdDztAF0hwfwJleRulJkb2sQ7afHbmYYXOTOCYQTM1jll4JoITK/uQreXZDJ5iZQCnJuSRUvDGzOqBRgcicBm8aaCVuXO+rHAM48A/IecdFDsBGyg+jGstiYrbSTjwaUI8YIjXrJpwFO6hAoDYIBaZoEUVr9OXRBXZQTFQEoB01DUTOJxakLClciWW++yN/lX281N7bCu+8v/499+wgwikqbExO3zqoh2bmLN1A3O2DMuAtTtusRUbN9jyRf34DNjLb53gd6dNTk7ZoRdfsTMIXOmXjV6slZfbRz/1iG1YudzGrs/ad556xsYxMhPTs9aHa/1b+qZtfOM6e/nN/XYCS5KhwV5bvmLUui5c4aSXPHSvvdbcEpT4KCrQ2DkhkmiUYh+SLLVQzv7hbiwpEL1PifTkQeuKKONo3/KbkYFYJk6I/vg7LwYjFNHHONTXBQ1q0WVixRcvZeDsAm74kaOYlXlxgoPCsw+hlwGMeUbxT24vLxoweUAxcDirQgiGfLAZbBXflwRQK6PAa9CZE+cN8+VByFER8NohCj0garaHF5SlMzQkHMug+dLAdZNEPagpJ5bWuA3/BEk+hC8VjTiXcRq3SFDCjlczUJ1E4M6sXG/bsVZdZJP2/A9ftOvnz+CMwDL4OGuXzp63//itH9qVw4dtAjfr3v+FT1vXrdvsxMoRm8UTPtcvXLBZnPvtxr0Kv/Olh+z1zz1iL7/xru156ikZ23jvfVh63G8P7Nxur+N2hucPnsK9D9P2f7x5wbov7rV9py7YPR+63X7y/Ov2/I+fs/X33mP7zl+2QfgzNDuJU0i8k9ZnYLpfS96JTmLnIOUWk5doYjhTMyMDQp0oBkIU02DqRuejkmffJEx+7ExaC0CG4x438wgGjB4p0nlfXnvzAOYYU5/GHfHOGOTszNjVDJwGg+eFZ3jSh+4lPKJaBNrO9zaQEgEYgRsN0KCDqKBOX7HsFF9qeGs8WNhomfJAQZlVBWQKdtdFGjXAKoOef8J6TiHKBY1AYrQFgw1UjTj+sUKuClEvcqL1HznBEsk2VEWHDKLDZs8etauzfTriHxkZRH+tsDs+/YS9+NdP2d333mW3rRm1d3AW4PXnXrbxvhF79cBZW7F+DXSN26pervEMFydG7YL126ZbttrB3iU2smcvBnLWduFixAD8nJ6+bpP4urx0+AgHwca2bLKps7icjGXIcczyZ9/di2XGFC50XLEXdh+wy1i+3I1TaOuHMHh8Ds53d29EbFObohptFDR4yNlnDB4m9RloqoNEnqY3lLWYgm9x2Zj4kAtZ1r3fKcA+91mW0iHH8Udoch5FThsesHySggHN+yI4CbpH3FIXCLwEzcHGOV8UaFJZN8718sCwN2ZJBRMc9cDlVyzBdIZlD2xhfKoFDbqhH1ugHKvgTzOj+NJHHfiIjrUPy/gwd/2Jr+AGhfYU0CzDWfpAM5RTLimVpYslMQhhgfoSEBk7TqmC0WWinOzghKEsO3nOhnB0v3nTWjv6wpT9i//2N+yNuRF7+ds/sE8+eJc9tnOL/a/PvmtdL7xih/fus8GhIXuta8IuTU7bXpz35SMwp44cs3/5v/2BPfLVJ+1DH3nIzmzZbJvWrrTxy1ds3c6NtvbaRVs9vEIz9ci6tfbFO9fZykfvsv1nxuzPfrrHNu28zR58YiXWvVftIzhA3NU3botwebnrGvvaB9KdLrdsUwvPm5qB9Zk2k70fC/FKm/ehB6r3HZcQEbgse3+6sA7YEJQcSwU7xPk2Sj6U6dGCECaNGyZOGAhknTwARsdymIZxEtRjFnwGMHV5jKEMMSwjGJicVVFigKTBVBnieezZEnWCB7LDwAfN5Vh2EOPQZ+WST3HYASZwMeuCKOVa27oR6QXRdXtBEwIZ+qOI6J5RLxvk+0D44jy5VWCTBjqUk/uU8MgGMMJbVy5F0CHQVi62//Dtl9T5Zy9eNpyCtV++Z5Md/Olqu4AZsruv277+7QNa301P4bkf+oIO78bX4chqPFFx9JQd2PO2nThwyL78n33ZVm1ao8nk6J5T1tU7YBt2bLG7l/fbJdyo/tyLr9my07ip/b/6qk1hqfLU0y/ancsX2fCFi942BEHEF9vBVAUPy+QT4QHlZcHyhpOZIJni/axAA496JQc1ssAO5Myndjkx2wadfScfEp8yCmAGnRIxoCHIdIMPuDwcY0YcYRw3rnn11Djq3MH4fNtsuimdV9S4LnbJWdxLj4M4P8FPv8CkBSTm+qonjWiIiAYLhPi612ku5zLYJlnKeZk0OuY40GSAQSxDmS5DolFCIPEkTwr/9UlcVpColwltRZnOJrvEksHEcuBVcbJYie6wSmgAxVFcGTs/PmGzvf22GpeBR0aX2t27breu8at226b19slf/6rt/tkrtv3ObfZA1312cGilvbTvpO370Q9tEqfLPv75T9vQ+vV28uRZW74GjwAdO6EYeOfMJevH1bPXXttjfbhBfeLgfozUXfbS6XE7d/iQTV0ZtyMXr+LK3KB14yzE7CWsh9lCNhIp9aJXGnW22fkseTkCOPLEUJY30B19lGlRSIFLjdglsYWmFLSUUdATq0GIjLNsWufGDEwMxPGlxnmZNdUZkiBJnHeLKcihn/I6IqNexSHkUh9QtOeLTz75u3TAx9AHnpd9FXzYU8ijMuZcZ/jMWQVuDnI4w0vG0pUCl+5xNqUMP/SXukhzHNxWmXLgcYNEp2U3hgGNJ0sywnN4ko6oE5No1JFUySblIrWVQy/ElVRHaQSBtXdsykamxm3Zzjvs8L5D9h2c4jppA3bN+uwLD++yMzgL8OyeQ/bwpuX2+OZldvvqpXbL0n57YNcd9hnclH5mcLHtf/uwHX3+eZvAzTxL1q633qUr7JYVI/b8My/Z9auXbWy2106MrLYXXtptJ158wVavX23/5B9/xf7ir5+xjXOX7aNbVqFHOB1FKxaYR3u8Z7SdV7JNN2n4sF9zSn3p/eiRVPYpcdHdLs5Z2WkR8FIXRAkkG9pJSCA+GYc0yxxdivBbI/zp+cIXIng5GwKE4CLbA9aVUNhvPYQKBSaDKT4JEwELLPE0HUEfjjDQPYjBpR3ZY2CrCIkqcKWBMGCoTDpZRpI+L6Ls/hLvdpIu8pNcyASfjChHXmFcH+uDOGAY3nKr/eTlt+yTawZt561b7NjRE/azn7xop65dt/M2aB++a6tdvnzN3jiB5QTO9d61ZsRu3bDKbtuwwhZhipkaHLFL+OqbwGmwu3Bz+rLNuL8BN6q/8Nyrtvfd/Xby7betd8U6O/bSizb57uu2Y/M6++e/9Fl77vBpvFxnxv7hg7facF/VbnUHNhpO9jkd9YZ6wx0gkliNDSXKvxo79Rlp7Jf4RF154pWxRzoN0rRKURDVdfnBHIIvZmz6jHBkvHKNUI6DKyKDLOCSX0m96Nz0fPGLX/pdD1oa94CMoPMcAcdO4uyrAGWdQUgspnYGJOvpQyeoj8sRhQEbQpr4KCMXL+HIlnMx2woPmmxRzmWlAzxvZPjqzYnZnw0KfW0d73zKEhe6RM16veY7Dff11T3TtmzdOvvpy3vsgS1r7PH7b7PpFevtwL7DeBPOYnv3wDHbsW29nT5/0Z7d/a6t3bbRRnFetg9nCnqxmFsxM26bF/fbyi1b7Oqq9XblnXdwV9nrOs22CG/ROXvsmF07+i6+Sqfsd37zl+2JL33KXu5ZatcOHrD//MMbbXk/etHHka4hpQ7zpqvB0ZbWnBLo84YSKlJCL+gv6onoZhKRepmk3wcr9ZeIied8VRKWZcmmSNfEmnRRDS17UqXSCSKXOJIlBPK8UlfvB50qowEEomuTgJxMRthuryec26HlFMCUTRjkDFwZlT4HK7hSnXzuTMwl6NLFttIFRaxAK6GeqxQ05NlvoQRM9l1PkJm7XyUl6U36HKOtQNTdhzXYh4aQ37vDvvf6Abtj3VKc0jpmo9s22yrcZNM90G+7D5+wMRzIncEVtd/786dtYHS5feyenbZ1qMeGlyzGLH0V528v2aGXd9sprHdnITP11pv21V990k4d3GfH3z5ni/p77NCla7b38BXrPfKu/dPH78V55vS+3LrL760WfcWphPsBzrmyH/I6NWnz/uXuytVnJuaAIV9r5hgGxFLZn5pBU3QFNtvhMALPONDrpiIKQeekpnt5U4DqgA3m6R9Po1EHJzC9ZQjfhJwS6QdznmLkCKZZFWZBII0fD7CgAQ4P/GuafNBjdkwCClyqS3UgHCd9qQwZBi8T+dqSzzL18Q9FtMVlU47M9RKHxI5Qok+k8Z+CSJGrQq6TG7ygS5pCVFFLIccT5HdgHbvy3m34Or9g53CFbWjFkL307Cu2dGjATp4+g4sIffaZj9yFpUSf7dl/3P7869+zIRzgDS1ZapM46Lpw9KgtHh21R3dtteeff9F6hgbtlbf32yQeBerq67fe5avt2PU++/zglO165EM4Q8wgoo/siUh1HzmI5WwW/kvCo0ntYm+GFp+FqTnFZeBQd3n2q6MlFUrFR4Us0liErNwThjsEyIlHXCwRgEaV44Rxw5/vHh6YvHrGb2LmeglfupRMWZ2FSMNMHTx44xkI6YB+nOd1azRafdhpkAJBQaockinXXEs51LnnSAN5gjA4XY4c3jgMoHYEBrtAoLDAP2FVJc91eNXLVSC6HvIUuKkaa6LARU4cE1TmVPGgOzGYVVYp4HWKcZyYgr9ysNs+e/cmG8A52x/+7Qu2C7PrT77xXevGs2vD69fZ+OlT9ksP3G7/5Uc/Ya+eu25HMBNfOHvONmxfY3f/0ifsjmUIyevX7drJw/ZtvE3nxN63cJptwLbff7997P477Z98dKcN8CV8bjZt67WSJb+08zrVQ5RB4mNXYb010R7Ri75moERya7H1iwiOx5YwsGg3AlNBqdkIdqGTFxyYon9DN+vuX+pPyEg20TURMqpxCmyOAYyDf9rTrRARwFLtOwH3FMy8OLPAhujjgSHDqiPG2Q/yBqEImipcZrAIJvWGvGDgMWgDq3IKdFfkex/L6mYqp61gskQaUyrEbF/NtmA5QgXZEjxTxXW607JO6U80ylSaarp8CECqBOVOPy4UPIEgHrr3Fjt1fsw+96mH7HvPvGpvvvSqnb31VluHZ9G+sn6FfW59Py6HrYP2dfKF+sbxGNC/+8aP7OkX37DpiQlbvG6jDW7abg/uWGe/gvPGgwjc95rcf2pnie2q90HoYzvIiWCK9rFR5AWdQVEmSkXQZdWA1OgQCB0cq/IScfRfBLvrhyecHDm1Fu4y1jABU5tcYADP8bEi1DX2FEl/3TgI1rKBBnRQRp3842zKMjcMMeV+2ouMjKeZVKc1Ok6JmGFpULLSRQR4Cm3m6BTNyl52E9SdcKkQtucNXFmEjhCk5oYO1+h2gqklUWJk2XnkBEs8lnkB9GNrh+zVwT77+sHjtnLHbbZo8VJbt2W9rVqz2voXLbIpzKjjWA7wHV2LcartwOHj9m/+8Bv2Js4wTCGI6c3E1Wt2z8a19ht4y84S3IAzb6Jtj0/PCQSNfak1aj3eXE3IeC1vo61kxyxJZtCp159PcxGOEy3V1sISIJV9DR6viuHPsWQygBk3LFdJOwhoTubWA73EMST4yDxBjG/eyMPpV8+ugch7JcjmFWMEL2dXd4JK6Ix/khFqAM1PlQGAFGtd1rzRhUzCMzh8zUwQpZgR5yUWQj6xE6/U6dgIXJeVIulMGrKc0KEsjJKoBEZS4D4HHXmWKWhlsYXfg6/r+5bjaeI7brUlCNaXf3bNXvrhj+0wnmP7YzwZePrIUd1wMjSyGOd219nq7Vvt6ihuq5zBFTlcoOgfXmaPPfGI/fNP77IRvnQvEm1FoCaa/E0++CzoLdcpJjjv8CTINoKgYEJZ+Lbghu5yB64CGboRDwq0WALID3dA+pKp5J5PVrTJgCUxbaQjQCTnASTRveb3NA/igqX7f2GfM7AerUdZ9/7qph0cqGFipV4uN7XmpdLqk2ZdeCBaCmxpBy4HZXLG5XzG1fo1LSUApIdFYKBOO2wZWfhQF+XL5PVkO/CEBwx5yGRdSUGmZ7AzYtnBWh4w6QYh9KLQEEvCnkXF4b7tnpu2z21bYX/186P20I5Ndt86PGSJt+SsWoW34zxxv60cHrarONPw0u599taLz9r5M+ftI/d+yEZxte2d45ftazgwW4m37VQHPclK9F1pOpWjjSWroqXGIFPfAJT7KAVwM6BCj9rOAGzYCXzocz62yVQWoC34zVnYscTEzAoKDPCgjLl2APlGY0RzZ2GZszUmS3yzsQviAE6TJaZb3sjjwQ29lPy93/t97S7V2hdEHQQgIKEhBxiMNgOXhn1pQBnO0B4csRyIMQDKeXSSvYT/uMpGl5k0AGJhAwDr/HOeMskJF1XqapRLfugJTBW4yV7I0k6lql4OYeTuUQnk7NCNpypW2//07/7SfvW2tfbo3dsNtzqwxUXyA5+ruH/36MVr9gdPvWC/9aVP2K3LBqSTg1n3uxBFUQNVJ/1CNQWkgqWuRnQ0L024Yjq2DuYpLGe2yAMaAR+zeayBg868+jje67j3LHjYCSivU2ukoc73mendZpip+dMBfFmUBwpyf5MNB9bXqrpRpuDHsKmjSccQIdPalbQIDg1cAgdGgShdHgRls2PghOFwSjfzAoVyDZd5FS74lCpnW9bDN+dlYQUPNlUqy5lKz/hXT/ITxBXjl+xzn33E/sPv/bG9uvewfWjnZrtl3UreLK2vuUlcKbuAR4p+hieQz548Y7/2xEdwCRlvx2GCfKdmZ8WWdsN2FUakVLXALiQv+4l4BgxT0NnvEXhBCwxx+qpnADecIjZmVbrGPqce0Yu8tKU2cBErIiMn7Rgg8RQl+0ZLYLD05kh+TXEWxsyYT5VF4Pr60gORsyQd4EcdTIUo02v+aWYlHxR+yFI3EJIwpIUMSNIlLhhOZ63CkKY/6XAe5QJLHv8jUT9T8Mmsys7LgVvoqcs4rtSbKNSmYmEyWDSqci9uPP8HS3ts4jOP2//9b//Avv+DH6Ohc9aHc78DuIp2Bed5e/CIyzAO6v77f/41uw/3QVAydFcK6yW2g0EjK9HQNKCJmAXK4MrEVKCdHFTBbDRIGOiOVJhTOwkvbeQApkDoSuLym5GAfw9g7yqXhyXgS11uK7UVFfJiqaBwliruBEkfTyhgJsYhLg/YaJXugwuEgpVIfOhIDgZEqzDYKiCCz4aJ506GLsmqcUmKOlNduZtN+l23kAnmWOp0QuSiYxP1yGU3sATRvwyu8M7KHIq1pvCoyZS9aAuY7L7FmBF+9cFbbPmq37Y/+vd/ahdwzpeTxDjWeT0jWAPffov9ztc+b5twsaM7rf2aetvqVduc26yHzHz04Puskmu1Qk2WY4LEtnsxCKmTigCvBbCLaUwUfOgfSTIQIaqbyqkXnRIqwi53LGpHSGKm9nGKANYEDwFNpAhaKp3DrZP8ZsXZBncuApYK4yoMaVTI5IbAI580Biv5rOMjLYKmwJaQBKVBcsDVEqqkYws93MdUBA05FWZ+4AiYr+x+OF9b2c146kzJbUatPWcb+VcmyTXbAADpfPr1laMX7U+//6JtxMtExvC6p8H+PjB5RanXLveP2v/12hn78t3r7SPL2Kve76V+ljt9ow/t2KbsjerUW852bdiwrVkaJmlZcrDPgMv8iD7wPYDpXxJIOA9gWoEWslOctekJG1oO0Ci0cvkQOwH5FOdzbbQn/zAB+HleggngRy67o5pdaTd4XAunuoINFfKYmLlspUPEhA+cwDUa8EkHedKmxha6k0/il9hcrnTIVwKZ3LUqJynLCFHjJYra4W2RAHrNv8bawG4CBxP4vbVL0D2Mde6Zi1fsyqnTNtnbg3O6uEFnGL9DsRZ3k92+HbdDDuBV0mO4/MtGeurwKRjIU1dkStQjz4wFFGjnZgHMPmPbI4Cp1vtCFFRSp9YCmAekVXskE7YSnFdC5bPovq6NdkeQeoQm27RLLP6YS5o6EMVxcQxnJBm4DpQyADXjIg8nJFwErit1GQcJiQ2MJDnNzKoLkTfB99zx6hz6EKjSn6AhD1mSohx6gpZ1kNCwHzJiOTsXverS4Y9626cKsOuahaefic4nfx8ZmbYHn7wLr4c6b5eOn7DNH33Yju/ZY3O4KPGPPv8QbqvEPcJzeISd5zUp16my5o/71AiKhFiAaIcu6YvxKbhtAU3/GCjqAwnC3VSNfizlGEe6kEHHksvERWB6rnkAAGgHLuQDF/3hfVq0EEXOuP4Sap7r5fICB2wEanFMbfg0A5eG4iudRvRJSwa1nzYY2HBYPBKJYz1WAtQtcuTOcDx1iu0blEnHtiAGLUGyQIUjqS5BmZqKeqWVB18CFQPAdVZLIq5AS26ov9cGBvBjgXgCed2HP2rdmzbZyNmztgW3Se5a1meLZyekydtXV0p9yWSdUdRozzE3QxZCCyq2WCcpHfhThdoqWPsMTBZR4hbq3Gf4C5rfh0Lfq6CmVASx4oYt1CwNScgo6BFvPFWm5+CSDcYkHprwgGWHxlMPVBgBxCsaSooOKvSP07hFHfZ87ctqwqQAj4Fq5kmSWZVoinaqTOVyE3pKjEsUKHYU7JeplGNHNhO87iA3T7eFDMVr+sgQ0fA4e5+NnbtgK/B2yGtv4mUjOE32/De+Y+fxpPAsXmQS7QtdkXNI50/usA97E1U1xtvQ1pKmTL2uoe1ovbdR7UxjIqmiTF7ZD2HfcclGcs/1sJucUMoRKV0hAojzK/3i0x7lqQIfBDAiBkQPPlIrQdFSncKqR1BkHW4AOwt2GCd65roqfSwxOb6azZ3qPsm1WocEXpJUjOQNUaSrLppaFLzCdrJXAHMxCvxKcsuJAjvqvEpNQGv9lInE428cB2a7z03Z4JqVduTtPbYYT0AsX7VCj0ftw1PBc/jloBaVWU1ZcI3csgfYLviYKmo/qM71sPdygKmpaalZJ6ZIYKvNBckNk14RWYy4ELVkVjAvJbmmXhdxptqSdKhFUUbudbYbpfKD8aJvjIDajOueFsEMUJzvzbNZcoonOKQUOmiIytgwpchS3Ts/OULLSAFVNeOSoBAVhnaqVJVZqvEqltOLeiVflRi4tQQ7/Kucq7hU1TZDhonrPVga4EV8J85P2tzErN36sY/a7NJRHczsP3jMJvGuhvec2G4ZaFgmjSz6Gxjh3IKTnJBa9J5NZ4G2KZ8GUir7321VvIxhryY/iWEq5Zwgqrer4GccxKoy4k17UXKEDP5xVhRIxlIgFzOumyjmq3Cq0CNMrnuAuPZwnAik5FCiOi1tw9HIBY+FtIsWjYGq8LGmpai4kUTgztYIXOokpoZzuMhg1liBdaZd7Rmw1946ZJvxWBAfHTqO15VuXLXE5pauxH0NZ3FTTjJ9g0x9RCdC9w2wN2VRTaGL5fibT1YYypQp9BQ0uRcw6i1kajYyxoUD55OcM0ubVBMYSkQ5MMxj5lfwdoIkRUkNcCjwkaNr1VTuNEBTIbCRUzeTGpQamDIS/SMEitFQkjO2IgYtwTMm6pETV8M27BBXac1SyYEWTpu+JBZ2eKDCM7pnDx6xSxfGbC1uznlo2ypbumTIRtZv1HvHuP6dL3n/wXan+flE3je9MYfPo6fFEZIKcoy5FDT6qMZrWIg+c1VpS/lCuZ9EoLkOoxpbfpNr6snKOOPSv+SIDuAwm6Ganc4G4jxfwhITekpf46An86iLKeGpL+w5o9KTbYWAvHNX8vKk0OXyYSBpa1QTtSXj+cROspM6h7vDZ4ri5XqTOK87eO08npDos0O4h/fgqcvWPzmh36eYw/NwzaT2R7ta7Dfxv3AdNmimtNums2088xgWAjWaOrBqBCc5pUTK2KKeaQSK7vGQ5UAjxpediUcaAIgBSTiA8qmuMEbg8kDMlTILbMKhKraTZY8bN+YGox7MgIadoEcedOUBDmbKA6MqMPRLf2pkA9xSDXxmsc1qd90ga7TFv2ZKJ4xq5EE8vrJk3RrcAnnARvG2nee/8U1bbhN2x8blepNkL06lVamht9NEBW0tybtWzk2JIYq81pc3FezES5X6LoSrHZ08SDgjshrWueGD+jpwSY7V4Lsir5OWZl6GKv44UOmDsJZ42Eo1p3FbYgsDbih5QHr8uYjbr9gNx5zhOsJVmkrLFJBaZ1yItQWTnK3UqBT+lGRabdokv40mOtsUHUNCSkMI3kc/fLtdPrzfvv6v/g2uqm2yC1M9tvull20HXs5Xu+e86IM2P0Pn/DmDJAJFLZgfelNO6Uwd3NZO0QqRoojjjvpxRMmraU4M11+hsj2QVIY6cuM4jLT4IBZ8qaAHKQtGfWwo7gakULgY3GogxSNS0AJf8zrkqpxsBRVEQkcl4npUrztVQSjf5BViFVBWUrUVkKGt3ESMkMngVBhA8N6/fgSvdlpt45NY/16dtfP46avreKvjbfj5qvTukMpX6ms11NTcVve2sN1S06Gng9CmRDRHzo9v9i3b36SV0iXPvaubls/0O40ZJ6QoO7LUVsoWdBQ1v4ZgU2l0bDiQZz0IVjKl8ii7kTbMvGcECr9CC0e20hFeJG7hQ4WveE0apX03DU4KQXZg6sTgOKnuUPjBPqlzXCr4K/ATrNtu32m3PPKoPfGFR+zCmTN2De90WIOXSX9wyT3Qtw2aUf/WIa/qtwXZzG1qa5lriPZ5TUZrHUF+7sZcSLLRY031tTorTijFNeoJp0x2vH2Kx3DMHQCEKGUU9a+BEhNBEDS6GOXIRYM0JnZP1Je8Ys6/Knk5+CEQdYqVaFaCR05VhmQNWFroZFCuJpvFO7ERIMI32JUO6MN73h797MdwB1QPnmM7ZhcP7LNtd9xut2xdT0877FUeLrRE42nHS42lXm+4Oxb+uL0YgJvrdy2uo4nOl3BpKQ1I5MR6/7TL1nQlSPiYmpBbQGy0J2NIk3NqUVaXWxbLhlDmCLfk0zoomKdrVpKayogsqHFxBS36ORqasa5aWDmWXWIBTtaICdxhLzWqJruwir4BajZcjnbr1mjD/an71GmHV/YHZ3CA1nfdtt+2xY7glaYz1y7b47/yFRvUzR6dMu+V4i7Tw+bZEa9XviPABYtAv4mlSrAVOH/bXbAeVlBR9C15refUy3GmGsmgwH9Xm/ueTsXIxHggLh2ZzypQiCRuWATfeVU9hIMfOekKdFeQfcmeEDhPkh/z8Gpkd0Ok8DHzC17QvNvyPupk9UwdzFqbD6LVoaFaeVNmvHvAxnoGbeLSZXv32edt86577c5VQ7hwXNzlUtNw84ofsPpBK9E1XzV+IGqQElMzBlCMW2SUdylkN0pSPD+g2VbqV1e2iDSx8c0lKO0wFXmMZeijfOhQHu10SW21AqCOWApQoyuKLY14ucK4hppySPlsmzyKHV4d6JXAuzTVOjbyoJd5zWfAa9hkSviyXCrQCNYI7ZXUxhqzZrzGUaXmCygTvYP2xmS3/dsf4Vcyv/t9nB5bb8vx01R/ibeoT/Uv6lTwnijRoewExCXOs1df5U6jOp1+L6ACgz5v97T40GxXCanxQmnkAPrklSTS+JbybeXQSdk2T3VnGVjiJgwjEi8qQkjizjImxZlKXpfSEKIo/5NDkQsOhkt4LUGD1eS6hdywmqRjwwaQpea6zWSLWV2FGJQrZQPtbaoLeKcFosrrKNJJiciocCxN42b0l09etX/9nZds+uIl/CbFErv3vnvsIl4y/RZ+QfOpbSvt86v6rR9vg1xooq8eoE2baFnuv2rUNAXJ6cA3WzC//zWfQrxGnL9S+ZkwyYzTSdNdMGLWZuAEVxYyCR39rDEET/2AXHX4p0fgtY5NSnJ/oM4BjeVCKKg6LAkgy7RCmH4o4dsq+JGTHmXmhZjTE4FZ4KQrKwWdf6WgAM1NIVCybipXgGsqOKLVqNbtrlA/YQAAQABJREFUE9htp/A7xZeOnLCJK5fszs88YeO4i+w6Hr4cx2+vvYIXTE/gBwTp/UIS9cdFzMDXZlrpcbuuk+Xwj+X4UBp0VOs+kz5PIlby8/DbyDSXU1GpFYtKwnb4BEiNlkW8UMWFL1FdTQLJaZQZuAoScDvHOxQxd1RurLNIFif5eNPMHQ7hhqwcqHjUfbPUBql1SlLQRmvX3abRkQyZQ/ixv8P48ezB2Wu2Au/iXYlXm47jHt6hVavtl3/9Sdu/+y3bc2EcjwsVb8dpNyRqNePSLmYBxl/nQDQ0zOdjScdILWQNXIp0WOlk5vEHtuQ2fc64EkSZ3LaKETTKkK06OzuV/UhGeEJS1ZEOSq5kReBlOw0e2ximAy9aJdDqJDGVJEoFXhw5K1AHLxt0trZtR7ZihHMFtoXk3HkY3pF15gQC8g8OXre3dr9jw5u22X/zy4/gV3/GbGffhK0dxlIB7yobw9siXz06ZldHRqG/Ll+401H0ruCIMS1czvENOUzl0lBbGDvyPW2bbsBMcznQhFT65+fQuYpblQqiAMHJx2AcFKZY/wVAChvBRJzvvcwzEmVyQOMptZRCL6tt2CY9ieVsPl0CVGYynoVmRzqW4LpAvSZUgnIHbee26e7lk6x4svUQZtaHPvVRuw1vkZzDD//tPnTSbt11G34wEL+QOYqfZj2IpcM1fxSosual6CfPaZ8TCXxoxF/gmvLz19mOpERtQh35QvTcGFP0j4rUW3hRlhvkrDdhcl8XbgYtcqrwsgtRh6baasZNVtQ4flnVPQhFOVcXhAchm/IwVlchZsgXyFxk/7aIZP7NCmxU7pwC3LT5fm009dAEfxVsOc7jDuNX2z+/fbX94esn7NDB/bZzxzbD63jt/Ni4rcFb1A/hF91fP4E3oxd+RZE7Bf1WriDjYGF4UjnWvxHLIXfjvGwly5BGFgc/N5YFtxRvgJNbBRW6C+fKMSgnoEKgoxi4StYdKPtcdkFmzt6REgLUeaAwolXXDOr8uqVKJuhtqOAxDwcqx5wb9MCU/GiMI6kkl1oL3oJOUGkjCwLWSiegU4XESt+yngQfXrLIli5bbG+dnbTX39xnF/Do+5LrV233gZM2gR8Z3DC62GZxa+Q0Xn1avzGy01i13q2iIc/EpeH3VKYut+XtZjk+8yuat48aIsQ1xyvL4gAqlyXX2easLrGkr4DV5R2textYFA4bDVDqM3aiIp38VGguF0gOTNkXgXczxbZwyKkVoSrRYCHDajaS6E1+abwuSukOSjttHmhIt6kBbxK7+3X8Vhtnx5+fPG+ffOg+W37L7bZ91WJ7fONi24B373ZhWXENL5S+ffkAbtCpgtKnq0px9K/7V9HDhfefa0qqidfGrsapVzr6PrFb6W0uN2is5okg8UJXzmWjIdiwyxYpMLw7XaXvQdXekhUWAZSNJ4WMD+L0V+BCv8PqzlQDVa21hUu6suqGvqDXc+oug8K58r1uVowWkmaOaGtd941r/LXMVf2zduHkKfvkVhyQ4fH3ez58p72JJ4kX4cdTBqZxM/rgsA3grPogblYPN1NvQbn7zSVDNeuWNtu8Lfk3K4d8s3+CfjP5IthuCq10sjTf0HXET+htuFjGSECUQ7kHL42k+xZi8DqNyhWX62TW9M5XWahY+BB6fECjNl9enQivI6rODHpTP+lttMAHfz4/9IMrA7A/NWHDE5ft/lvXYDaes1ffPmS9OGU2c2XSLo9dtX68aHpR3BcJpQzWSBwkH6igdfod2PeXU281hq4D9TD3/pR2SMnrwvUcpBr8giHJel1jUJCKItDQ1AigfEWO32RxgFaCohxy1Wwhfe48rATOCdU26JEH50Z7VGAib8pqDIJ5gzx2yCak3inOLQOpiY96hx/BQASswhmGlSuW2G5cjBicuGJ9eJcsH1nr7e/HLwL12zn8YtCDt222oZbfnSj7gjb4ruQPPkWrG9F6g7HLPjREMr2tEGYWxEuKazKdQeqB6wpjDBiHWvOKQAWNhmRgudckQySp2JBp87lJC71Br9eTgcSs80Kintd2qJIVN6sUtDgVWJC8iH6MI/ombyE+LMGvXd6zc4s9/eZh+/6eY7bv7X32y599yE7jd4fxzDuC97xtwO8X9zamOl8q+EvlvEfr7U+93HTpfdQZKPxQf3x8mTLfN0o2AngKs0xSAcSOvmkBRos4TmV7vF5XWQs1VSp+2FIOVZpsfdDCRAVulkK4Roez1awFdwqDZbmSqdupN4edUSFbSy389k4AsIFltfK1U/tNbXeKFJQ5/fLlGM7jnr84gfO7d+gnribwizYvYTaexlr3Il4Dda1jh6L37LdQlQtB+IDypl5GmS+1ypl/PmOVfwUiqayNc9NMAffYbYnuEhPlQk+23RD1N6NDIAOScDjkeergFA0ltjw9UtLDB+ahy8vacpMviKiCTYkLWi0vGhR0etaR6EjDGa+2omV3vqC+qU8wTq187H3X9nV2/te+bMcOnba3dx+0CytH8GMrvXZk7xFbhN+n6MIPr/Bmdbx4y6XoOgckNyFGJxPA/CBTi151TNj9YGyxz2qzebQT6tlX8/V1aT1wrosc+Ag9oqevSB2whVAMVOROTw1uaXfI3Siv67oRErzCBp1cSJoXN98aoKFU/sFUu5/Jh5uNLWBcpd62YrE9eQ9+Y/jKRbvttk36eap9r+/Fbw2/ZsvxVPHn1wzYIvwISyQNcNrJfLBpaGHtDh0Lz5uNoJ3a8C9A1Ty+NVU3mjHfGNXoTdWp3iSHkxwvvwyBwg0HDxJhKPW16yja3pRv1sNoDE7TqQ48ADVaUyApbN2LGbg1RwEmqXKiKrUSK7YHWFWftwSbvWPnbdG1a7Zm0aBdPHnafvCdv8VFiV78Nvy0bVi5xNbhjIRPtdTCciT2Pzuz6NBgfWD5jRp6I17lALs04qCitpRupK4xLgvRR3W1WEgmO3qrBJVl4UunbtAQytW+NpJwqa8cug7dybmclXYz0QsLaTyRHfYaejr99WAvfW6IdAxkF95F1nP5sl2Y67Nzh47YXffcobvzruImnc/efzveJ+sXhkNn5G22m7b+rusL6sf5OrExPm1ferUD5SKAabdpO9dDr/BeYZ8FHzpJDFTVRSUoOrkT5fjgV9K+p5T0ZDpDao3JVHqCv6JxBaujGI0oGZRtvjuA/FaVRYNabRb80kaUm7M+Xxnd3zVtiycv6waclatX24l33rVNd95l6/ESklDnwcqafyrbjI75IiSsfpA5bSWvWjuoxVY0osEqx8JVzQNsyLGa+zGJ5HoLVqSE08zb7nd1k0jpWAhHh0cedqIeedCjj1jvaFbhwN/F0FF9RxuyY++vEO2LnE8LH+gatv/lmYN24uJVe+yxB+zi1LRdPnnS1m7eZEN4jXcEa2UxeqLkBa1C/d2VSlvo+WIcWm2W8CYAvOgLsqSqgY9q5E0VUQ89OQ9GI3I6lg0ZlwoadDlWcOa1Pi8Dws7TFpscpCiXfeaom9uiX60BWSrLajq0qqNb5bPM/IWQi5zIGTwlwScldq0ftaFFw3Z20aidxoWJadyMs2G4x/qu8/Eftpr3i4QklxG5J1D+T5HcJ46P/uhbax9+gL419MddjaWF7EPCcgQrMfcVP6hSDayXK+eDVyGooKpRRZmCVWLUKcFI4CwH8cBGXuprqBcrZCMv8W06aLrupUvwq7s8zVfqYblNV2D4tSb7heLeyWt2W++cbXtwh63DmYV3xibsuT1v2eiGTfaVxx+wnukxiedzqro5hwoKJWHg/9P8Rj6071jqG7Bu9vVOnDSkRTDrtKYfFsRroeZwHzST90A6hcZKYZbjR3HpcmUoOyTPvK4YysmRQhpCOSNAZNnZjktl4ZNcBpCIFGTmXOeGfucVCoRe2EZ+NaDxhnfX68xoUwOq6vsN3Kyr6GDR0MO9s9P66dYN65bapXPn7fzhY/aJxz5mqxDUbGkOXNWKzsxK/z4U5Kl8rfxt8WueoSvHl1Ia/wa2iomK0TqmCRg65VkIQ7deW+hMsApGFohBQl+HgeC1NKlUgbLMCRayIVMGT6u+ql0h0qrHiXWw76ng5EKhQs2s44MrH1tZJPrXfWDb8hnczMAfyX57vNtef+YFW7J4yFbhkvC1K9dwRxlnmXImaNPw943Gwfe2t3nG/mqbfTme5RmUjnrIASftHCdZap99wwXXQ6SPRb6f1ydixi9P/nonK/ZcK+R9VMlvpqBF7nzikkxDoI5rMFntNCFi27NpnHFLfXRPH3rc5muLcuKEbbVLh24euFO4THEYr/I/OdmLn0mYtVP737G+xUv0CPy+Kc4R/38LXLab/cL+nedGIfV1e6d19H3LWNBCmRhj/CtTUw+58Y2QbiSjk02hSkWTV3GoyOUiJ4/lUl3Jk2+FqRpPwqX2qpwcrQgoNWXVsJYOyEJ0qrCd6TcpNO20wXl52HDAtnbjSuuensZVtgkbXL5Gz7VdHhjG+d6FG144svLk/chU0vOVQmvMwO24ZsC1odT1RR/kU6WihR0OTypXJFdXyCYCr7Ax0Ij0XMIh6OTsS3MQox55BqrgSrKTiVliy3IhUleDWtuMW9s7gJGrHQ3MDB2ctbE7jDUIHT42+FHtwi9f9uDe3aOTc/a9H71iXf0DdvuDd+KpiWnbd+6y4Y2nC06xUisFvH08bujc/7ynUx8koaCVOt5/mbHBGZjfHi2a5VMnvaPvGpCoNnGKQTqbAKzH2AWWLHpEGDJBvKytiKKzGkIVq5ILmuekJ16dEeQmtRJr4cwXuPInWgQ5DnjroLNd7k6L9s52lSDaKNduJa9Z7sX9u+tmxm3twKwde+cdu+/xT9i5oyfxDqgJO3LkNOblGzhRKKOv834Sbl4+TeDj1/xdT6H6Ayj68omR0pFE6qTPFzeUzzyI5bIUN/SkamCUoxO0ECMvHGLHMBEQKqpSxfNSfSuZpEA6QxlhIIRxVUteXU2uNe0Go9QjXdhQXfgbOOVtEZ0ATT2lXNi+EcbxbpUHLn0TV+3lv/kpnpy4bAO4c+w0Hn8fn+ux8/sP2rGr9ccuS1ssU0u0QeWgpRxZLZWYGiNVMh8FlVNONuvvL6WZd56xm4dcG/fsTHIg+6LGey3TCic1DokR/HQUEdVCY0kqyvMPJkE1YGGaA1PxyrJAFasuU+qrcaqKN4qh1qKEpBYypTt8qFR6aR65Dpja5eCr03P2s5+9av24GeftN9+xDz1wj0339tlZPNv29rHzrd8MoU9jF5VfIG9zO7o+9uPIfwEz8/Zf6zjAUNnf4Q/t1+iFQ/kbt9mgVGfmM2/SlpU2BQqlZbFmuJDR+dwasFG5Se/xC2EhneBa8VVWqo8yiKV/QWbeqbuuoZNfStfLc7o3V+cjbN/YlJ0/fdZ6h5bY57/yWZs5esiGh/rti7/5a3bXHVtlOaRpkV/v8Qn6B51Hy8IexzhsppnrfZhkD6VZuCkdBpv0hdQVgDdWUI4pfofNm1AGbjl4JfjGZTfaZrouh1aUoLIsllsvfYh269xwdtSpbTjqb6VnRVHozOVrw6dOVEXhaSTCx6/P2tef/rldx0OYO+7bZTjJixeMjOFB4l5bPD1pJ3G/Ax72kSCb0GhGpfDvuFRr2i/gB1vCvirHNlxvowUvch9LrzUP6jMmAiU5HXrDborcBFdjas0LPbU8lJDo5UKmKCqIdPRQE68qJTZTW4mddmQ7C1UFiMundjWUqrC5lIKqlZdBHYU43wiDNgMVM7N4Pc6iERtcttTuXtxvK0ZH7MihU7bn4Em7OnZFN6wrcDs0JUKba/Nh56O/Rx2E/2I7EqeJTqNljISrnbRKLnyoT1DyLsSrPInp9GmoKJXLpdCoBgaq0CF+RWepbEhZplSpv6W9kq20JTuwUW+Qh58vTTrQdRtJRWS0XzQpyMrlW6e6Dgzb1HnaCGclIDs+PmmL166zkcXD9vyBs9Y1MGhDw4O258c/s368s4G2b2jC96GazfdceY86Aj5fv9zYPlvDRrW3in3VTGUMqD+SrPo1gQNDaQUo6UlV8Fivlj2FHRkt64VzWTi0hUHqL3Biz6OjISoN7nwhEHqls06v2SlwbXRnQ3vpW0OmjZcgOXMM/MjnOus+HcHzEmdme+0TTzxsd+3YbD94+nm7d8cG++qujTaHpcRyrH2znbpotvGfokBXys/784H927IGhuLc5kKx4ivqYZx+YIximEq55sEb5cmvgjd2QSqlwpyqSqnQy86T/bBKORACyzzKUlmpKyzInVyPgmbcqKS8bX0k/XKiAU7VFpNsfju4g0r/2U0tg5OwnHV5mXoGC4NezLavvvGObdy6zi6dv2g/P37Rzk9M27uXp/EwUAhE4e9XziFkr+jDzXtKMc6dgh19LUgnjuaIzZwipgpq9qpakVZhXJyYhwg0SWGpKB3kyRjoZXAqWJP5DoPZq2xfhQ4cqP40RF2gLXBpqu3mEPlGz70BdYOolftqBzMR1Ja2GaVF4N2z13CXU49dHZ+wy7MD9vjH7rKLR4/rDZFbtm+xB0YHrCfdgNIi/veGpGHWmGMMUr5w5yIW6uPGMSpjhPqkW8YSrxRxpjBhuxYjSR9u1gsnXbo0knQDECqY1yr1mowW2BJalmuQYq8JejYcBPexqlWl0t+Kmkrz2CS3xYSEOMvqXl8BSgXqqaS4nrFjdy7HK/sXDdiRyS5bvmTA9h8/awdOXrSuIyetH2vg7sE+/DbbdeuaXcBuA9vhX9uNcXXrN6nB3EKvEoYmtlpepibz1mPVA3DDvPS9LsV+mneiQYPFg0j0up8EresQM5GqmbfFoWoQg0nHQjXPF1ZlKi2rlQshW8/ZEK5lCg0CcKlQ2iBxvoOzDuFkgrqbOhKLnHl5wiBaXLbDs1BRy9lmflbjTZAr8bOtc129NjN53Q4eu2BTeAxoDD9ptX50qZ0Z5xU2P7ALBXr/SFJAm9UnEFWfNoawAtysJP+gm/3K0cb/QhJhco15+ixEzjEuAYt1EVSbtHKcxGuKYDkmR+RDYqbMzzbQSzJTrkpbPRgtvIKVBqGgNBwqOPWi7NfBDZcqPGDNjiBTbairqGQEqFebtc6ZgWHTGTqMA8UCbcHJRZhZt25dg0vCY7Zl+xrjXenDS4etF4/B78ALp7dyZqYm4SlT+Ioy6ZnXHHSHU/z9JdpM6ab9E8CUq+VJvlDTQLVVgca3WDOmcrsLkYyhSBpw5mEv00CpqH4UUqipihJOikiVgqwY9QqqSjZQyJSQsuwu1DSI3UkhuUFFVb6R3mCVNprl+Ww6LhQBJf+9Xm2D72gGrRLyWXwY8IvwuxMf3rbCuvEg5tG9x+3q0RP2yUcftOUjg/buuSmbxGxMH3TkzHW01tJcMvFDha7Ud5XOnUX2PqAN/VhoyshcWKhk4BYqWOBS0cfZ9eT4Ct+BwTeyIyMntCxXdcc1v8LLr/mmnMwmR1Sm7vQX9cjVoY3Ap2hNHBXZ6GC4llb71EG988i4pAdLdVahpHo5tjlwQWDgRuJzWdeuTtmaVUtt8uq4Pfyph2z/iQu4o+yM7dywKj8KVDlSCGfn6Gf61FseZj6YXCZK+x+M2nYtGNnGuBJHmsY8CZXetOHVLxnraD0GlGiZlesc01IrqpxlwmiHkRZ81nWzQsOOx1uDCP0y0SBTtXxptd8CbvFl3qcFCiwDV1/t6hQaY/JZ9KWZYTuA2yK3bVltV06bXehdpN8e3njLNluzdpld7Z2yEfwiPKVwSGjdCPYZHhxqYLuwI1C53/TLg7QZVnmDO23BaA+MD/DGyrnq7jS+F/h9J6hln80t5ADSvZArEMMBoFtdsPWFAKW4aE3U1S9JQSpH/OFtAmxFJUQ+Uz0wnchtCIpfyOWWSVrAKCnPcqWxQNBoGE60wAckKWnCauxW1XVEUaPzcXBGMjuo1iASc6q5J1F+3Xua6eu3V09M4LcoDtqpY0dsYNly6zl+xmZwg87AyJBdwRt0/tUbp23bhlEF6+ruGXt0cMpemOq3w9M4Nwx947NYUODxoVkEE39k+9LUDFYWvqzQsgQ3u39i6azdcv0yjKbjcDilh5Dle3jz3nIdxFEjI3IhQUb10U0LxvtoetAXQupHbeS0dqa0Z0S54tJs/WwF3hIpuSzstYKY2IqvElyJtZfoY6eaDqzvBHVgvVaJCFtVf8FSdCKtzWfRTXjbHeYzr5c5L56f7bMXL2At29enl+v1z0zZ6X0H7AJe8TQ7usL67r7F/uR7z9nEXLe9+e5h68HamDPmT9atwPlgrI/PXbH1q/GOB/yWxRTOES/qx6v/McOeu8h7IeZsMYJ/7fIldujQMbu4aZn91iM7baifHO/grvQI/Xs9HeYt8+17CtwQhHn2S4q1oM6Te/86PvrdoeSUlAhacqPMpSqXZXmYVMRvD7uK+pZGqpQMZ0lXWlRlpMKjVJN3TvtMCmDdmIs2aCS2ytNUE1s4IpkWXwLSekkzmCmneqpg0ObAZQH/Mz199s1Ts/bNH79mV48dsy88crfNnThspw4d0o06hp+weu7pbpu+cNaWrV5pc8MjNn7urF0+jp+6mpy0lZs22x234+euZiZt3cphO7n7iK3cssnefO5lPMQ5Z7c99nEbuzaFH93us9E1K+yZV9+wx29dZbu2rkreRQjX++G9BrL6CZN8liujqdEfuepdoOpC4N6L7me2Q2nqQX96S7J2L4CnBAMRwH4e3pdXOXgjCCJPYoqtMj7ED6UANfEhV+atgQelpWxWSXpduIYrWTct1xTV0W6b3X4DUCsXeP1jvTowZMuXztl1qFm+dqVtXrPMvvPNMzaOAzadnrw+Y5ff3sPbzWz8wmXrGV5uM9cu2NzENYxGj41NXLc1d99ud4z02Hf2nbEl27fb1p1brH8UP8py+oQdeP5lO3P8tP3Wf/3r1nPLGrs6MGl3b4nAZXuqQb9xK4i9QUrC7JO8O9xgSq3ZQoWLmwUunYH0cfcATmEPHWUAR1wQk30CVGXS0Ll8YYmCtxEuuZU+M6EaY0yva55naFVo8PNNFRVCpXAwk9mAFuVttJDp0BEM5Dfkyc6NG8ODszL52lKK1R080OKTE4cuTloPfijl9JEx++ZP3taPpnThhSP+VpheW7QYv0E8dtkWjWIdPIDuHl1rU+cv2LK1q2053unw/Kt77W1cxLhy/pI9tGubvfjim7bpls327okzuiq3FL9j/LODZ20aP8a9g+9+YD8xyBRcPvgpBHLvVfyyBQsrs78VwGx/KL6BaHQTXHoPS4gIqMLADeyFT2ErpHTUEVN2fcADCs/pWSMR2xFYDVgHP3Q0WupiDeGEDUdDNPK6r0Hl2OKvxd8KgZL47fYYtB2BC/xcPjPAmQZrXJwZGJ0as8+s6bNliMluLAMWLxmyq1c5qwKBmbULy4rBdeuse2Sp9S1fZps/fI9tuBuv+x8csLGL12zb2lH9sOCBF161iTO4nHz0jJ1H4A9C1/jVCevFr8Yv27zeruKnAnrwuxaH8QYef0MS26ihY2M08zVbc9M+qHVIvaKxZR81ldZhtRqhN+v2EIgxavo4b73wo8TkZUMojrwEFbLB9rxklOWEopMdCaRSt/jztFq4NhXz4F1Xh8UawW23KK2hUgUw7jxzmHb9+J7jWckyfNbMTdhtt661kweO4kdU9tvklSt4TTpf0gFkb4/OIiz/0F22ekkffgloyk6cG7O7P/6ATeJHB/cePWcT5y5iVYGDtHXr7eSpS7b5jlvtAIJ+871328r1K23vO8fs+rVxG+8etH/0mY9DddiHfu5QmoFJ69zN2VbnV30edQh84EmeYSOXbqC98pRtoI++hqVI6XNZ51kRntbLspDzZQMKPqhusVZ2krZBB7qgotioktmBSRJt9BbxVp1JhQYkfAkac9HYulaFjuTgxRG6U6ptc8alIj8P66Hrc1yF52y8CI/5LB/CgGF2ncQbIbv6F2GNiycq2AODI7Z4+zacQeixEayHt+ACxtV3j9vUzLR2hiNvHcDN66ts9XrMzPjp1+4lwzaMeySOnThvA3iT+incD9G7bNQGcYP7qpFeG1o1kNoYgw0bXM/cIFqin7zdN+iYqlm5FLLsz/dyPhjhtMA1MP2B/xS4QRvkUIpaSihF8LJSNY5sh2ib0RJZ0IYByr/WREcXkHLHtWDn41VtaBHKpIXZp/t+BW2evQGB24Wv9RGc4/3N+9fZtaUr7Lndh+3SGax3cf8uB6QHQfvxe7fZicvjdv/mFTaG02UP37/dXsTB2TL80MrgvffgTrRFtmvXZpvBc2634IzDFzaP2v/8/FFbv3jQuifwO8anLttHt4zaIsw6D4zSqfSr8Wkw1SzYUttzGzsL8/VZJ7KTQt15OEu7ndBM4USw0IM4johPDy3KW0hhpGPZUMbWvA2mtfeR4oR4iFJNh43QTaejHAJt+JJHgXnkAla178ZA7zPHdOyKDBZ8uK7tWYQfxV7UZ1/ZMmyb+jfasXOjeAjTbzvv6eux+zeN2s5la20Y5VOTM7YEN+wsxYEbD/Z2rBixXiwtdvBXgwaX2dahXiwzzL68c7Vdxs/Fj/YvtsduxSk2rKFP4Fc0RwZwdW0cszZk/eobWwVf2Gj6xG+VaOg8ebO/FZjzYEWGwnIiki3vnBtJuSiH46ZYegwLuEATWNqLBULkuWEaElecg7dsFNVlsNy4wUbgOr9sbOYoahpgdjj+mvjSlyyPgnBwPvwveSy36Soxrjd8iLxENMvENL0LDOhcNuAnqhiMD2P5sHPJoJ2bXmnXMeVQagajMdQzZ6cnZmzXSJ/txAerVFs2MGpr8TOufGhz/wRu6sESGcd9thqBfXF6FoHbZ3cvww9sI2hvX9Rlb12bsXuX4mZ2XMQY50UOLjvYCc20wAAuxdgnNw3gQkB4jQCIbT6UWJQ57AudgQvRXGzzj6NC0zl4MzoVOoaMXqTEjiuqQVbeIZe5EKLFJOjaOgNXcOGyYFVILlSeFCzqnU8uwTQzzed4pSqVaGX+1gRvFi/Vm53rxyVg4ufsKAL1GqJyEud295++ZF/cusz24LH3C7jc2w/Erfgp10uYQFei5394YdJuxVPGMxjdExNdNo0DF54z3ov3Pwz3DtgVzL4z17usD0H99tik3Y+lBkJXzUxOykdvOD1i9763YKSe9ywDG95aOMs+v0nS0NwUx9snMf0UB2+hNvyLnHTanzd4Q1A5nSXaK1X5/23vvWJsy847v+/kc6rqnMo53wo339s5sJtBVFOiRElDji1RNgwMhcF4BjBgwPCD34x+sg0YfrEBAwPMyBhYGqUZkhIpNkmT7MAmm93Nm/OtnHM4VXVSnQr+/dc+u+pU6m6NMcA8eN9bZ++90g7rv771rS/tg7SDHBo9lqgskg5FO15ZL/lkWVf/ZLKr9Eng+6QB5V9RD+9t/t7POSoeEw4dFsk+9XlcNV40cqtNJAFTKHLHoKAZzB4/Hl2xbLZgeRQUCuR/HfefICH9q5EWzGcK9p3JNVuBl+2A1chz02s1FXZrdtOq4yGL8YX4l7rr7PEYlj3ZKsuE4vY+i8BYccfqKd/VBB+Mp9x/jM0Dhlr+VJS5MqdS/jNuTK9db1x1Pq11dx+UKldaHGnWNeSlnAJe5ZZtunBZ0sFxWVpZaXdzJ7NOpqiOHuREzokEv/XyAeSnHe4P7usw6ciRB1w1fuYFDsu7xs6GrV9wl3IfFkL2/dElPCf4hBXasG2+NbyXUQh/RDloyqZQ77YjZRheKVoyHrUHU2t8Hb5gM9S9PzRnX/vCoD14umKtjVUmGcW9iWW7wMLt3QfTlmhtgE3YtcWFdetOJey5WMoakWSIOunuxCYxKbvbKX8yD4j+2/00uLjqXhvu1Xw65XZvpuw1uvv4pMv4earjHx9etuyorEDZoQocPq9XXM94CniPtuV1eqkCTZy1qXH3UKcUKG9D2dJTn9hIcvX1cKdln5Lmt3HWdf18tz9o9+DgSPZnP9GNuJuFMkbs/mrO5hc3bW0GapnB5BHV774+ngLp3iNCZA3xGq7WRW0VEL/9ZN6udtVYOmMWixJJhy/F//rOpG3ktq2zNmovnu+w7348ZHWBXbt/d9RqljeAZtByaN/m19cstdpl/+0L7dB57xY8IOh+TiLi8J0L5ADcFfmEl6g22Q7539Pb9UqV/bomS2VP3kZZQa9b1fVnU2CxDYdV1K/eACWtdAk9l3+PRz6oclDN3ZDKlw78jGOnfvIn7T2zvsMS/ks9kwU45Rp+ncNW/gOOWFx99s1/g8fqlA863nIc8VY/ru4fsYAKVeBgyaesAmjGAlKD6Q9lhQQPN9eK1tWQtMamXUd5i4SGyq+lbX0p7SQWda1IKCj+f7/1a6usr7WfvffQ9rAN3kvkLIZTp2SseaQMoYoKb+CX+GuvI/VU/v2e/YSF0BpaQcwv96ro1TMinVPdB4wPsjNb5JK6DXWX/twd6HXxHE6hcDZCvZlc9U80ztUd31vKcO0fgtUv7issPpHyCvU+gP2930D5Xnmn5X8S6I7nufp6C6dtesoz8j6x3kFb/us9vZGTqUo57Ym8Bl2n0bsRylyI7tlrPXUWOd9sLzP1/+uPxm1xZsn24FN3sWt4jvQQ1Fc8q8HfhgA1BNdGMSq/drmLRRqhUQVyJBY98LxN9dXWD5hltNNUW2lzaxkL7qKouNxjHTUMECixxErqeY8CHYeA/6wHD89dBi22W2fb+xlL701ZdD9p8VA1A+GU7qe64zfLSeBhU+5ol4ElbBT5kn2RBWs4HCYyZoSxikpcmjBX9+R9HGvmjNOT9dQTHgUu5ZUeOfDuO+85JZIPJi2s/Gm9XC7r5x9cUe2UNhnfnIav41RXxf22/boHe9o7cY1S5lnpft1Py1c5r4xuuuzGS2flBFVlJVfV8wATnR5uriBp5MsqLBhBnIVRTjWOlpIC5Hl3jzeLtgyVXGHRNo/k4Z8P1hKvATsI5Lwz23v2dKto8+znskX74/ZKlBOAGeCOs5j7aHnbvthU4URmW0gsehJBW6asBovqnAPwudUls51tACK5qO5ScC71Jvdw+9EdO9fVa6nK5OF9qxRld7jLzP6CZYurVhFsQMHSxL15jqFHCpdOvPa9uhvEHI6ikNlk//MP3rVL5y84O44rl65hgxF1AD6zDf/2jhXQ7Z/MAqbHJA7+fai6f6zZiKGn6kenRxVwna2sY/2nBk7bPmMxd7XTyp5N57ia/4SnVfwMN+gB9+gzHjzDsTYxMzh747045QQlggA4yDcoKjEWTwHMOuqtIQhoRZxViWZNGrTnkPHWI+aSdHebl53ELuEaorFaQB3nuvsSqfEFoWkWZX0oKBqxdkyEdt0ATwT3Aa4onKFO3rda3Rd7ERTorts8NbdejxoTbaJD0fr99ff/xr7+1a9ZTVWdhYNQfLL1fnUnRa63ujWPjfA2+o40LvuXSD+FjeDCBRaW+nv3w5840K6sLtqFgUv2xm+8YdW0/Zk2DXih9DNvlNcNuyc/3LnqZc3oPZTmDaWqwtHt9NSjZf6hZyev8uktqFMEQA2quYU5a6xvoBN3bXkV7wOYyu6Onk9sxButrNB9yllW2n+vLot0Zyqgn1Peh6tWegDZNQSCYefCswUrsMy3KGaguDNQ1D30yrtQjzzas+FQEJluwAqkR0gLA70WFnK1TLfRNX27DcrJ3/YWrvIAVN+ucMY3ABUJMn2I7xrXVFoe4O0h+/U71qdCui/NEppc63FBEky//ePv2qW+C/bslet4XiQxnM/CR9MO0XxCwRgDAlPOAF5x+8iSA1lqKN4PdhmlTZT2/Vvv8M52bKuwaLu7Qbt47poN9ly0qopqv9hn2/udXgY+VTwL10fSVdev545LCaSF/uRbf/KmOtXrWDXoHbvr8eOfn7hLV4D80r+T+YdtHslTm/w7sumUm/Hv4UheqaxA9tO3f2T/57/6360LM8F7w78gMk2r/c2//xt75cVXAdLpJNO/f72Q4zNM+XW8fN0bmzvxnqy8jJcFRARcIp4b0+gefB6Wt07hcHclb9+5OW3fvz1qN4lRNoVhzTa8YCUxHZJo1ILIfnehZAF4xQjuQjCNTlsWhR0I8QFCEAJ/q/0O6UV3HJSRj8RjgH1feeUOmLpV/mRH4G8EXLbLg1etqa7FCrmi/eD971pvVwdxghO2vj+MOG7NqqJNbpCKIq4Uhm1m/RH5cQZI1AH613c+sj//7v9l3XhsTExM2tbSnn3tK//Yrl68ZjXVtVzv9Hft30P53nufpOjAB2GpgE84yssfHh8WLseL308auMfA6wFO1/E7XRd1ld1dlJouOz7T2PwUMHngLL8Vr73yax3efCnPXT1gm5lVvk2SxbW8zTraOomH0GGP+TxqM1FqmhqbEPDHzwC/2vGey2/R2x/99V+KSy3rnCN364PagTdqFdVJa6iKWSt+Z7JZ2OB999fG7YXeRnsFz4cYrMOrDQnrBLztKCGqYhEoMm5BgNYDot9Bpb3j9URt9Uea613llR/rDr3yrp/UQe5P6V5fDU8O2+jkqI1MjtjM9KJ9fOuGdXa0WlOyi6pBSxfmLIcncyxYbTNrY7aeWYENIkxVosNGxkfsJx983xbmFuz+zVG+ZlSB7VDCvduaVA3aPpigU/rWu/rpv3qHR97j6cXKUr3nO0gow9tBGgeB91iw6dk9AHkjyl9U+Qs2D3Rl1Q4a0wR1cHJQwJU/gga172Wf9hBe+YPqRw5ceeruQH1CTNOZ7BYaLKKMM9VuYTvb1truVrphXuqJ+yy15Gn3/BdyOtUop177nKi098qPPZ8eRIbmUKpwZYr4uwkAHLEC5W+kd/jSJYssJAW/Iir6HmzDNzqS9nwy4tgL7GlsNp23fHrdhT2Vhm4fSuq4lONk6chb8E90V/5zeIfenfr5h/vNbNZuD39o65uL9u1vvwVV3bff/70v2ssvvMT7isP3zgLeBhta/MAqMI4/3/gFG5q+bX/5b35oS4trdmnwmv3OV75qdXiAVGK/UcXCNKLZ5v/jdty0km48tvkJMIvlpJlksY/alK6s0Le+9a031elex3u8pQocpnnHSjvYyoB4JhjdiDioQXve8anly5FzWMUdufLCiwBDI1rxptNrjldra+2AEkTdS/Xu/1jlg1M9tP+MpRs5yPMO/PtzY9EV0Y+ufqx8WcF9pvkiNgx7DCrN3UPwtUzw8JPwrlxSeQ1Q5J4YVFmaso0ChuUoMqTEEAPqOuezfuTK60z/8urA04ahFBL7AfjuCNKBRNHe/uU7Vi2R2/KcjQzPYHOxYftR/OgI+hcL1sL5hBh8PfZ4/Lb96b/6a3tyb9J6OvsIhh2z73zv39v3fvh39sOfvGUPHt5hjYG3x/gob8S7coxvzf1DqPARMPrv/9jr1Tt3f+7dHGb6wPWraX/INqiS/pfeTvneP3YVD9srnR5LINWV99+yK6U0NX+yrJctYJUKHtuVX/vJ0wdMh09tZn7C3vrx9+zegzvW3tpl1UxnZzZ90J6uoYucfiH/+syq5bTtzHt2L1MvGIBubxeRXiHvBMBvja/Zw6UtTB537RU+oN0fIZLORsa58uzlc1BcaDT8rScOArgaVyc2b7AdJnvAPXpn5HL97VyWGWjTjYNRgJXfyVikEhlzMGOhyJ71dLfZg3sTNoIqenU5bTNTq1bMsIhsw3aCr3SGkE58dP8d+/Zf/NQWJzesJlXnFsVRPD20aFOU98HBfvuDr/2B1dXV2uTUhI1ODNvNOzfdu2lqRI4N3/8fuqk3Tn0Ffoccyz0cAE5UpncAxeXFH9/KgXM8zz9XJ54A5cmmvDsk/Xh5D+ilezi4Ya/18uvnMVD5wU+/g6XVqp3vumZ/9I0/QXyz6dgGD0gCJ1Fo0HrtMG0XC9JOSYYpkRYLETrJvSQoXqGIq04A/7KYt2oOIrnY82VkIogoAbQo0XPt0eYBaxQUL1qid6KconLs9/gWRYHrJcheuTdsQ8sFq8WFB10AIALYtOM9uVdeN7IHyyD2zH9VrlM4Ucr+PuBm9a88x367RZpXUr+yZCsyCGbnZiyf3bSF5RXbSG9ZPQqOwnalraaLuA0t2PDkuP3sJ7etu7fN/rNvvmLry2s2geHQ5PSovbr9PPYUPfbzuz+yyeFlu4ZU4lebt63IrNCC58bc4rTV4Bi6jrdze0unXRy45u7n2sXnXR/OzEzbu79429771U/tc6+8bp974Qu8/9PmAm64tLln83rBT3KD7uDk2IHg4AjwsXR3yjsMvPv2u47n9cm/fwOO76WyDyB/756grDHdkP6Vbx4gj6YpX+knU10GP4csi8oe3QK2nl61v/9//sa2csT/GpuHVaiyf/FP/xv3onehZBL5yEt35P59Gx8ZdoANwH+2tTZDfXpd+NHd3Twdn7H5lRmbW1+3Z5/5Grw0EoA9Vv8QDzADWAEi4ignxwRgReIuSVWbwOhc65SdfaQFCPa3d6F2hPEPIArLF7atJtloO4AqwyBLM3hYllllAmlEIG87BBcJh6CGioqDrVmACDrLC1nksAlrQbgrvnUbxYPejUfF9i2X37QoU3o4lKBeAUGEugkqni7YxNBjWycWxDyOmot8OuvJ2KSNjU7xbEWrTIWsDcfOTryTEy27NjoyzeJrw7bwcj5/sd2eee4S4acquVLEznVegCdetS0+9vL9v33PPnj3rhu0MEPs9y3Fh2HaWprtxeuvcr20RVGm9PX220vwzerLuvp6G5sa4d62ra/7PH0io89P2QDdIfXkfTuKcnodrQf8za+jvTum3in6QbVWgljp8AC4fkufZa8ho6FT2nR0eOanlvalsrqp06+1b1UE7Pjia1+x6cUhW11431559SWrgFsQmDcAbXEnZ0tDo3b33kPLs7jbyGUA1rbVo7EaHb9ji0uVVt9QjZSizvLYxuY2VuzG1A2L8cmpPNqtKMJ8RbLZp514iHgMta02Nf3AtpDJYhRACNOERUmPgPKVNT7HKoocqrR4JGkzq7PW3dZjWbyJZ1ZXHN/bWdNpcyyWwtEdW0aEVoFFmcCeh+qnoZYhZME9u5dtMTcB1cxA8TI8Y4q/OLPHJhSXqDkb61ZdgYcxMlYEvBbLhW0FqzPZ/UaS1TbQ1GhbGVzmX++3517ttmoMgB4MPYQiL9mDxXW7VNPNO8coaAHNGtT4xsqkparq7fyFF0hnUMJaLC8v2c9+/LF9/P5928Z9KYh7vSNgUNFvfv2/tM62VvvLv/orG58YZ+js2aWLF+2jm78gJlu3/cl/9S8IltJmCWwuQqxJPnHzYeWDQOdnbkczfeByA24TRhxW3nn7HZRGPErpT7luyuRcm89OHIDKv7jLFSC9f6VTt3NlS/WPpnvly9P8Y/86/nn5fiubpuMDdufJBza1cs/mptIWS4ato7nB2lLnoCo5zBCRRmB4IuXAk7FR62rFegtgV8I69PZ0WLw6aHU1HbaDze3SzCxsBRqmuoSlE7WoOQFsEE1ZssKWN7FLwAIsDGtaBIwR3Bx2AXQRYFfSSclK7A4K67a5AaXkG2yZLKIjOjwEBc7S+eu0tUt6fVUV1DuJ2jRomztqM2RrDBI5aYpHbq1tZEzsMHBQZuzxfAy0BLYNyNGwa9gizFOYAZm36F4UpUCdNYeRbOwCEq6zT/tLG2soe1F8UK6tsxo6n+fZ8zY2M2c3PxqxeeyGM+tQfbQee1Ixw95UEm61gcH88ucv2kuvXLUnj8bs6cMZu4NIbDONEoMyou4xBhpjE6rb4sRka+srSBt49hriDTN4k6kq2IjLqMf3GeT1NtB/EeVIk1UTVOUAJ+UdeOzYp5x+8unUVxQWPoztALxlxyX1sDIBVRkoPYBrmiohvDzTNffJP8fbU2k1r/bO2txIOuM6S2uER5oZtaXiumXjUM8eBelYsvt3xmwqsmBfuv4lfLxW7IM7N6CERKJBFNWDiKoJ2wCtpmdWxm0nu2eNrPQrQ2iXWPlXwx/mllbM4lmrYkqfIGzTFoYzC2srRDZHDstiJhDcYVpvZmqDEmJ8shvas0n4xmiiEmqOjQBKgPZGpug2qCMshih4fQX2BU/WbG5/1RrqqqC0DCw6obOpxiqA2DrtzjCNL81iFwmrE0WEtU+72VwOFgECCwuUQHe8tmp2rr7NLnZesi2Mc9Zxmd8MrLKAqrItlBwZjOA7LzdafbP43C27d2vGPv7FI9vAa2MDh8+8rNt43aLgIRqOxkLwx3m+B6fpPmmzxA8eeTJhww/m+fBLmsWd1zc1UHSJIoPc02aO69W22auvPW+XLlyHatfY1Ow4kod7FsdLuqmpxfr7BnjHfK528jaEImn9HZfxlq46Ariz+txPd90O6Dzc+amHe4fD8txSwVPYBoGZqQPuzGFNBXmus8HlPfThpSh+MskllpoqL/qJx7tQgnWmxbtDN+32vY8BQ6319lyyKNRqtpC2p0yPIwSkm5xcsa6ebksCpPzGFhQUrRYL0C14z2Uo4a9H4ct4+I2VGy5o3cVL3da13QolqbCPbg1ZdVeLxbE52Mmto0qNWVtdiHgJWeSbCRufnoLvJTx/DtcdFBAdTbikT81it2vW11oHRTN78GSKa+HPFq9E6xfFTjdgzXWVdPQy0xhUjFf54Om845+TKDRqKkJWGQOouyGm/QK8KotMpBNFjHQCgDeOPLUKqy/LVdgvfsGArIhbI4sn0aFf3rqNPXDGXvr8VQZGwf7+735p6wsZG56YsuxWDkoLby1tXImcRRnMF55tsv7LTbbMoJmZXLXa+jp7+62P7cavnjC7MHj4F8bCrBFPjcoks0a0xmrw529ra7Lz5wdtoOu6tdb1YfHW5qjz5Ktj8Ov19uDxHRa9FXwskUGEk+nQzB1YnUXrwKH0kzZRZ11T/7UJLjI+8s+VVr65suUJOqZ84O2fvY0RFW+XMzdSHfKALntdxGMByHXpXiXV1aYR4f+6BJ2pnF+2lOideqX9cuV7/xp+mijVYnrZHsw8hO+csJlHQ0x5NZZEQlAJuKbm5m1iatLWcks8NEbdML8RptK17IZdGWxxtrP723jcLi3ajaFpS2PpJXvZCHxZLQqFy8902dV+4imgHZtEjTuzuovIrQJqsm/jeDzUVwAk2AjFz20mjtjSShoeN2hJpvW55S147B2rgXLLuGZqEXsy7qG5NWUjY0uEd4oQBQd7AKhyDd4PUcBai5x1lUGWhtXQGuTKBVbxSCRm8ZBA0ma9vRU2NZPlo4O8ATq0t6rV1jBED2Os82RkkmvvWQqQxHiRS/DBzzzTZ919HXbzg8cAPmgzeHBsbW66GGm7qKBFaMQmqFdb2qvt9/+LF+H9q+1Hf/trSy/DCqEGHn48zYDh4pTV4NLAiCGTboHdevnzV6xzoAH5cNI2l3H6XA/AovUhOoFFQizW1NTMQrjNkph8Fou4KWGgFOVP191mIErVfLCVAHoqAFVIGNZU7R3qdkobrI5/ojIlZHtJej7Uw9/6J996U6WlHtQmILk/QZM0B6xSulfA/Trgkuvg66VQV4PgBHC9Ul7rfsnDfTlwdbPyjv1g5Nf21sc/dELxOHzby/2XbW0NkM3NoqfvsrHZKbtx567tywMXEVgFMQ4kj+x+/pwlo3gysGC7eX/cPno4a0FWyAgL6OQdq6hi0cRxACOXWaI1VqTgFwn6oQ6dJdBHhAWMFiXVLA7X09uWDK/aQ6bV8emsRYmNO7+8brNLLLa47voGxuQ4Sna1ol1DvPSUhZSm6DDTcyaL4TiLvIpKBlY1Lu/pTcC8DYvAu2CugzZCcbdhFZB+8I5XNxhc3FhnewMsy47Nzc/CH2/aemGJ2A/0DezE6hqKmQj88IYWkAH76INHVgH7kpPdA+uBLEZBMghyMdJgYUjkJe/btRfOWe/5Vvvun71vj25N8WHvLb5Cz6ABuCqid66Fqr5SJDvdApT4yYMxa2IwNrXV2DKs1c++f8O+8Qf/mJmFxe/oqJNta4HWAk8cjyW8xVoJN7JqO7Kp48/qfBX089i7Q/+cMw97IFd5B7gqoZvdwZXcQ2gIuu2ghdL50d1ZcPTaOKyrCx6eHW1DZ2ILtllFZ7c3ON60lcySza3OsNBCOM5CZJfgdatLa/aUTq7km747LGCePHqob5VYJx/pCzPVVzXUWHNHA1P+JivqNduEFy6wQJleIZhdYwLxjb5hHWNpw+KGk01ETRsAo4CoaJ5FzyqxxWZwsYlF6qCQF21nZsWWt7AOW1m0MURoiB4sXotRC2rdPdxzIICAFQdLQFZB3iRgDsYqsa1QzFwGEyxGIpmAnS1i/L1vT8fTToQm2pbgxnUv83NbLM4wQEfEJH40CPmtwMV9FhZFMmZgRVBqKCHA2IK3hf2EtUnxcW6J7OpcWnUdwf3QeDESed6g45V3FJCERaBaEAnT5LyNUfyPvv2RDTOQBVi3gVoPAkhMOPAXRiI8Bd61iNbY0wVrYSH43lt3sAsixCoLsqamJrt48ZJpAZdHmrOFvYlsSmLwuJ+2HYDvAHulAyoqj9tlO0w70d7xLIB1AF4PZipRArBQp1P2BxcutSgSfgKWAip/2rzdiRKl2t5uen3WHsw9AgirVhfLWANOhxUVQeur1LSXomN2bJzOCLVV2jaG3e3ILSdWYvZ4aNh62rqtp6sBkVgOr4Up4n3NWx2r6CBq2nV4yH1ES24KZiGWgCon+S5aehPKQtCP6oYKgEUHA8SRsQWkDvCZ8IXB3L7deQoPBzMaRqqQYnW/zlQs45ttZK57yHcjLFJ2WYDtqD7KiizHUShNCnbm3LlaFmPbtgVlDMv8kFexA6hkOSarMElBxP8W8mjAQEyBRVcQyYHC9OuD27FoBUqXPG92jwWhFpqEdsK2tz7ZQo/oYyxYfQHk5gY0WgB2n+l7gwE7PzVlm2NozZixQCfYFbtADyEuECCeEsVniwWcjkPMjJJra3N9RZpHr7hPdZrq8E9UdfjRrNXRJxurIhxSya878MouormpncHCEOG5pPAR+KW+d8TLAcbrY52f2DyIOPyU5+vyKq7sw1rCFNMO7bsBeayxsN6py6eKBzdVLV1BDdGiD8rDuof5h2nHj4624+dqarqP3HVu6QEeCDFrb69wckwpBvZZeQcBgpQOzSxQ4lfRgrF4kSWW2Jrr4TbbDmzQ6QWbHp6zLGInCea3i0G+NJlGRiofr6iz5golUkzvsokNAVwUC8hxI4jNorSTzjHSMQjfJAqNFko18KSZfBqeMUsdKDWGKPsMa113enQR3g4bWGKIZXNEK+dl1dYnbHl927Ej4jGlmMiJN1TsBURscTp2F+VGAspZg9JgcZGI5xjlqrO3Yb4FGN2zqFwjUdGLiO9CYWKZnetEVovHMOrkVWyVwyHxk1UsECfhv5EF8w3j1RhCsfUNiyFzRvAGWLctlQoQ/xfTSWayMGxSBD67wGJVlHdLsYKxJw4DdlHeMBeXUZPb1I0AVgARaIUerX+4U6elfHRzgvdLEEAG0jpKHYeLUterXBC74DDeJG6jusNPKb8cmF6BY7+l8u66ZJ2Gc7+GygiDx9t0lLcc8d4IKJM2qAU9axleyw799suzXdqpdJeKYxOjdufDH9j5DkIgre+xiPGUpzKO3uClB+E7I8gZo0y9gT0E9rzsPIgYIaLi+z+6Z8uzTFmyJUDjFMfUsMD0bUy5WkjsE/yjHnfxKiLXdPbXWph1QxAgBRgwjQ1NNjUPv7ewBJVOEEp0zcLYIwQj8J+IEjRVii9OQ7lFEbWKjmBQE0deG2YhR1xS5LxRVyaDPLe6mkDRsBUF2shit5tDvCSqGQC0ARY24kuLUPdK6tfUMohEfQFCnllEZGJbH1eBCGZQUIiHTqBtk4gqDFDSaBOrUviYbSdR+SbBF7vKNqwAAC10SURBVOIuBl+RgbqyvMxUj6qbtp2PRgDKDmVu6kTDx7M61XYIJilDeVTI27wfivJeKQZxlgZPBEsAFhg8yRJ3xCNKhS45chjePMI9MbHwGF5vZ7FSKx0e9PmJAx8YwsunbF6R8oKl4/Ik14bH6pQD1x1Tjs+38qv/XFjXdkAWypXI5gd/OEl9XfbBj0r7936QeOxAK8SJ0SFbYLpenVlwxtIpVrRNqCFFxiZZRElQX1VJBBo6e4/pVdCOYE86Q3SZ1TXAwmKoBtlmCzHA2rrQcMX3WG3DdhAboQI5o6hoBJlsFWDADg0bYCgkvRCDt8xnAyyGcFXHQGVrM8uyCR6U6a4C5QQssGNP8oSsWVnKWhyLrGRN1HIshKJIDXLrfPia2UGvsrqhHj40x0q+HWnIos2OjtPzEfhR2eoCDsADztwzBZErr6/xXWLy9mAh8lsZqD3vWSIxgJrd2IAKF/kmxQoLohQswyLXJopOXdhWGbCrsEpZRHiV1TV4Gy+hkGiAR1+0zCIya1gcLdT2d1iwEqVS4Mttr4E42A/33TfD6yRhK3M8K9eMQoHV0YrQI0/iPamcZRFHpwvMAqfAKrYhxF6GRoxkh4RHjx/Z669//kxftSOdLyB48OHgrO2wgA9GYe/o5g2wE21RTgvTsCqKSrq97r60+Q0pyQe4zyeJn9J2KnUl3aurl3HYnspL9z8+Pmb3n8w4tWuK1X89K/25xBJUAruAYtb5dOWhbFtQjBCLmgRAjuB5m0O2G0eGOvA6xujwu2GUD3U1KTohCh9o8GUJKA9qXhZlUbwGolCQHO1E1Gk7UcvwIb8W5LAj9OISLMZODjcYWJLsFgupCvjLIHYGXc2WIA7D0uyCk0jkmXpl75CFvcjBL++AyDBgXOFLPxnuSaDMMAgSHGcZVHs7sDgs5rQXT6gA0Vny9TwJVBQhFmOVyNeyW2iyorw9Ge2gMMlmGBgAKQbPXyjwBU08ISpYCK0vLtnS0jwaMqzUYH0KLEjT2C1nN2hjAyrLwGT8WSshUqsJXp1HFLe3Sh48eQByG4DnTiKumIXdkSQoBkshICDUYmALvLAHMOdyxVdfiTqrxwTgCIO9gm9h5Ha4T87v3r3FQM458Zj68syN9n3Cd2aZsgyHFdVx9coztKgsgZdkl68pg3ICrvDqnkaFjrs7e7grgVqPVI5DXeg4gNW6V8ndAWe65BGAe6IYFjxudc20RoikOWSzVfCUkCn4TlS2UBKxBQoPKnvYPPLSBrRlHQNVUEiikNehIWOlWxOttgA8ZlSRE6EaYQaGIi0m40leepxpnIUTi5hoKIVCIGlZ+Wmx2Eg9E7c/+9GPbQFgJuK7UOMd2mPVn2APQDMYqcDGWgKKFOMeCvCRGTx+8yywJAfV4kovY5OQTfEE10D2pWcNYdATgC2Qh8Qe1G0Py3PNX4w/J84q0m6MgSjpQg3UME/+rgDOwCii/UvWx1mwQm2RGy+xCKtKpqyusc6mJjYsh4REVnB1iAOllXv1tX5rwkOjDruMFOagWT5vtQP/u7YEVd9r5NoMWq4+jRbw9o0xB8YogyUC5Y2gro4zS7TWViEbx2mU97uJyG8D9bpYIG0S6ck9Xy75BQaVlB6yH5lDVJlMnndljv/43S8snbU5ClvKdOVUtFS8vJYn/fAAquKq5/2Vjnlv2hzlVQt61Q7e2rszvXoKwXO6FN0d2wE15VQALqe+8gwo9yVzVais+to2Wb2PjIxBlQQ4jGqQdTLDW4iRn4DSiGruM51JDKWB0NBEBMb6mFVVQ6FrU6hq660KPjcOOFtqOwA6Cyj4y0gYGwIutr0BGKGkUYC4j3gnhsxyA8qXhZcOQ0UWkZ8mqxrsn/6jb9rPPvoFngZDTlWsxdseAyGBlVYc0ARZxBUAdG5TCy861S3kGSAK5wiPLGdEvZ1NOluWXyGsqSLhCigo/CvUXDEbwAgvSD9Gh7O4YrAUUDsnWFCGAU+AMjEWceHGGihnwdowGqquQeQ0COsACeQpEd3VEad33+ZnkyhnEtgQtAE65K8Ent7cylo76tkw8czyGPXs4igZrq90PG1RC8jClj1z7qJ98aVnnWZtEe8IyXCDyKIrMDJiirMno6OWUCAS7imztYxqnecC4DIakrxWTp9aKIutSSLjffr0Cba9p4NXz1kOTp1/4ubhz0HuELg+YAUur7Zrs/y41KgQGxavE4S3lCgiiMleQII/gOPBmT2k2jkciilmc+lHKOynAbh0Zeos4Pm7hXA/QUfE47oOSw0tKBggTXXwsfCtdx5P2W54185farFqpAO1MoZBk7MNwAIbiGygTHkAs8/qNwO/2AL/uRdjIZZXhMUA0y1UHL5zEzXx2OQEvGAS6UCjtVY3W0MKAfyTYVTEcfvcxcv2lIG0iUxY0iOFDQUvtsJ3IeLUcaBkcDqlBgODPoe1YeHEPC0FhLYdSHRe9Rm0EQaMkiUG28fkUQZARajzHjyjVkO1LEAX+eaaKPUOwBIb0IjpolTQPV1NpOcAK5KSeBw7jCwu6XVuFrlEYJLAFQYHbEAVAawVA0KLvypAHdomCAmy4h1CoMa452AxDguQReMI/89sswv/nmBfzeAY7BKLhKUdfFAMy7p1rN9qMaoRq/DhjdtW0xCFUq9jgA6VZ9OsF4DixlGEFBlo+gJnXd2hu7sHVI90CROftJWD2pUtK152SBPCGC+axPI2dVyiney9GkoTqeO/eB4nHdQM7DrBvxlRWg/gNExZnasBR4F1kePsgyrSiC7hW4rpWDRIBuUhRva+7FtprlJiMGelFLbe3gZeZBCtF1FjtEKHGqzNww8jywxH1qGyWGOx4Kmic8XPrsBvLqG5ugDIG6sbeek7Nj+/APUOWT92DhPYH2QAtO4VltY6sOt9/eXn7PrlfltZmHKeDa9euWJ/++6voL4GNQpju4CenoVSioVQ7wBiOe53gUjnWsBtwz8WFGYfkhrm+ptICZy1FgMmyCJTthTNbc1IFxIAE5AglhrB7jgM1a/R83DfqS4MijIb1ouHRWdrC/ayFU56sbGJwRH3urq6brUNdXymFfXt+ATir7y1NXdYe9eAm6Ey2UXk3EMMNgCLJGENS7CW5jbuO0m5Iou7RfqFiOupFDw9vD3EYmZuGZZmFxvmNQhFDmpdawOXLvJNZESNeGGscM013mO8IcaitwaKPuf6WesT2e9GMOTXojfNRxGLEmfyPg83r58Pz08elZd3x2XVjzSlquBQwPFb9ctr78rqR8cOXbANzqIfaDnK62Y5yQEBmzfjubsRoVU5AVYUyAGYBs4CsN+4N5K8B9INDA6ct76+QUb4EyyU5GbCVWkwwUIlQtgk5mVLNaYIWofgG8q1joShli/shEnfATQVrMZjTI8B2I4cdrZaUG0uFbC44lOpLJQqYTC3WWCMjU/jn4U2CiCnxVPyfEuIyG7ce2y9aONa0M1XMPUXWICdH+iEHybEKNZUzc3iAxHT0WGtaJN2UYK0YgyU6ybgM2xEkUVeHt5QTmqbTKPLq1vcE+wJ8cQUfCQEAVibSztedIe69YyaFPf/+ovPwepEAcuGDc9Mewshpn3NRDNziP4ArozaOxnAhfy8zU+vWxUUO8eiLIsdxf3Hw44QSAbOa8NIiIGMUU8Vs9L4xLTdubdqNXzTYgWLt2evDFgXbMFWOmfjY+MAc4tFl8SKABEeLUu83/ff/8hWGHwVSDUk8UjpM7P07dIeXzKir8NQliAsg1OsAFhpDfcQAf5D3H0c8LyuPwRkGXBFJMs3N8MLvKXNr+8D1507BJfATX1iXlCBgyD8mUdheZFMjn5lteVAWkK7mASh300YHLqN+sf5X6WrDa+uuwTTf8q+8IXftJ/aAjzmvvvuQl7y0RieC1hr1aO5Se+t2xy+VHnsCFIVyDgxkFG82wjC8Ep4Mskt5S+mkPrN8H+bdFIgioYKCcMOC6YgKmRFrEkXUHUyrcsIXHPK1jaWV09x0Xn4yAYu9/GxvnaoXLV9/sVn7cbTm3btUi+gIzQTzzS/iChqfdkBrwHKFkXjF2K2yDGdR3BMrExgNghbskoEmRsPnuKWDwsDSCoxJK9C5jw1ucCzM70DmirEd7MANoOp4iTtiouIwX/vInlwhjFQaEXNiTKAt9ahbjl4eAZEAgDl4eHTyKDXtDbA0TSK3fAiMu9aXOqLLKQ20G7tASx9oGUJOwhZqM0v4GEBtZ2ZJ1AIbEOGQR2DJ9/aroItI4IOHiGFlRVmEkJQ8YWiS1eu2uzkJLzung3xxe84fH01okHxSxlmGnX3DjJ4AluhGr7i9fex3yP97EDpfrxSwkYJdErQYVmuUty7Kk/0y0u0KsmC20p7p2krtekWbE7GR+2AbEuVwYuFJB7wDx7V9UkxBUSKS3fhg1MXUMMCtQO2EiijS/tldHz1+nN259HPbW1xgi/cIEBqR36Je84wevrRmTXraMd/qiNrq1Pw4PyTCElSigRGKVvwiXV8MWeHRV6MCDMVUNYdFhxx7B6q4I+3mUoVuijAVN2DajPC13jCdJwszyanxryAHwDv1p1RLMkWrbWT4BuYA1QjI80WmIL3W+DtgjbY3Qfw8RPDBTiSwVGRhaGmWCe4p9MfLTwGxCHr7u63DhaRCLPQ8GWwq2DBx0zSpOjnSAWC8N4hALwMmNYwV8Q8mNkh5qQq+/DGYqFE3SSPBs0szGTjIZ84FoNIVuL7Ce5B6m7qwTNL0lUNsGU8L1+zICplmStIurKFAbsG6tTMPLOSAuDx3nkWXoVTVQcxqIfN5fp8XmCgn4VrJayAVLth6+ntsZs3P3R2wHGkEoo3ofgMgRgzDgNIgQJTsCJK84FFVx7ZTk0XlkqgK8HlSB1yyfeorYeUUvlSvYO6YgXYXBm/Tfaoh/nF8kPiHfEL4jsFVjHo+0oTT8t/QdO5h/injpfgpIRpnxL7N6EaLu0YgKNMU3/4jX9uf/ov/yeb5mPRrfhTRSMVdqGuCasveEPUo5XVYfv5W1hNoWFb3cjaeYxwBvov2NPHj53UYQRKIaqWAqDbEiHBT0oLleVrJNWs0Dc3VtGGYa5HWhQVbVaiMDRkmW08bfPr1N2xWURQqwj6+y7Cp0KBbt0Zt9E93Hu4az1/GjsF1+tQyrr6lLU3cH+om5dXcB1HnZpK1tpjKPnGGoZAGPg043WbhY3B4tKJ0VYBWB0GO2KzcrzjKACognWQzcMu07dcleS2vwsLUgG1yzNAZYu7zb0JcVLLtmNltsI7ksYjDPgaebZtFnv72EhoYbKhb77RD7qfBBQeAQEUm08LLKzADog67yELr7WZBcKbQpCKDMBAe7N1MehSBL4u4M38+MmYVTVWuCCBCQyNtAgtoDlMEMshAIuhdUaEhjPYVQ8PPbFnnn1OXXtyE0Z4Ngc4hxevyNmgVSGB97Cwf6y9y+XHsRMOtjopta+alAG8Wu2zbuMt70NtRT0lHhHYBWROdaDS5HtsgEdZeWm6W3pDlFUX89J1Dc7I0nYAYN0kaSqbrErZb/32N+zf/ts/5QbgdyEtDQlscrGvbQC8wSqmtKZ5Kyyji0fLEEa5kMUoJQOLMYvPlShxBfxtDqoksdgqQv848t04FFRM/4X+Qajwti0zTdfyIEkosMLhBxEr7aCB2mfu1oCXi8zs0IpVtsVxhyGKDDxmnIEQQpRVRNbsBivPch7q3lKVgVrnWLTlUA3XQNV4LbAosKrYE9Au0XwaWfHvMECakKHuVwWtt74F3jJtldhStPe02zTG88s4Mu4CxjjmkinccsSXw/HYBq5HG8R1EC1R6NACiQuLqzx33tnfRrkvhZZKNbZYlMG5g43DNDjf514rkf9WQJZl8dXAB7ofPrrPs+N6xLOvYVAjb45dCFEz/HsWcV0etqsO/miZ2SKKe/z0Il+Uz2M/zJiQQbyUKnmAjM0p7wkpCv0o+fXd27cA77OuV9W3rtO1U99qY1c6ElxO33jxHjSPZjvA8vCq5toT3vRX+qcM/zo+OxH64z/6ozdFRB38HOAcJOk4L82f8nUpl+2aP4SvuwUaVnlvE8B15Bpwly5lkEJa6aFq65utHhYgB7uwscpql5CcRbEHCOr3WXRpMp2bwXSRFf86hioL6PSXmXo3EZZrRS/q0Nkqj12mWRZfIaiZeyhetmwVtgG2PhPV0dbhpAYrfLhavnnViN36utuQdkgDx+oZZcQ8BukyABCLQgL1kNXS2TJq0VaBNL+pvsLOn2tEvNUF6vnGBMqBK/CL42MTTt0sQb6ut4EyYiMjNgNvZnj1ANL+FOAWbxpi2hUPIFDtQiCULwW4tIV56heYOaIExdNfdQprMrR5BcRtsrdt7eyENULMxjuSV0gNpqBSPKQxBm9rbrFOPlI4wycFunp6rbevFxPGenvx5S8w+EM2PT0Jn44RFLbLHc11tItbEOLINFKG0fGHNoRSJA+FbUdTF6ZNXj33i10yypkCUos4hGLXaeKK9sYbX/X6sNSPft8KrMeS/Cz2ntTHUUJX7rCkB1TqHoDVOyaB9vinhtkO8pXuQA7b9cd/9IdvulxBSwU9zLljDtk8MPvo9CmpV8f7dWClrgdad3dkqD3llxr0irobcqlQ89b2XqQM2DvMjnHc6Dq5Es2ZVsYyDnlwf9oBIhgsWBbArPOpUwUxVrMzCN3rm1BO8GJEITcwJ4zAVKYJB5WHTVDAY8l8WwHv4vwM06cWU3hRnO9HNowHMRS0SIcobliOKVmiMqmi1/F4kDJB06dEZU6hIlYKYDdj8HMNnj1V02I/fed9e/rkCdCL4oFLtErKN9bjp4bJZZgHl1WZZrBqBmiqAusyrORaiauWgUKvw5PKl02u3Sl9ogrAZJg95FvXhGhsk49kKx5DFI1hDQvAF65ftGdfvGyNeDkMXrhEmKkdezw5hZp7wxGAy70t1tHTb53dgyz+tjE8arTrVwnrBOvQ33+RwQb1RZPZ09vnZOkX+lrg0YsojB7bJLa5WX2KAPJa24ohELLmFN+Hy6H1Y0Lmc7Tw8O1IYVAgZTD3/NKX3wDMUjALUEKH96c+Pbp5OT5PqzwfiAfHqi8w+nnuXFO92vT+ueOyC3nlySMtvCthtHcdxx64KYKfPccyiAPkBH7Jo8x0Igh1HhbU8cDOudL4U7xZ71hXhz4I/Y5vVr5uyLXupbsbNGvve8FaJ8ZscmzErg4MOtDK2CQKtUvhgpNmKt1mepdGqRJ2I8Y8vUGwEUkFZmfWiZcQwa+s0RrqiYtb1YiRzgyrbBweW5uIXVDPYs4I9dlmT7X6ho+sQUKxwVSsJ0pByWrgjXNzuJhrIQjvKGN1uesoLq0bd3ouRnqEaVwLyAjXjzEomlCODMHz7gfSUHTop/hoJCSN+1VYgtVaV2+9qxdkJpAp4yb85jJezgH4+xChmPJIEGLYGktFLuroXgq7semnUDt4TkziRp48sN//yrPOGGdy8qkt8bX4JtYGjY1d9vWvXGHxhWMms0wr7unrtF1R0WCzsAtaN8g6TV7K01M4ZSJHFluYYsbqPMcXOedgyYiGgxsn1BcHUWYdyXQlelR8tZ5uFD+7q5ZZRa7eFmUAtFkjA2/o0TRl8kiNYM/cJuC4Ti4751EENn/j0IPnYbqfr/eqzQOkOzhZtkRlXZnyYwdeVrdBh+wyrHOuWxKv676vIHACQol59JL3Gabi+QRID/jchE6gNGSqompzzJ8rQ9vKAzJK0JG/RTE9/PIb37SJ4V8iWMeyKoW2ialwH/lmB165ixjunO9rtK5OvBxQBW/iVjs1PQaYMEUEhNu7GH5zob6uTsquwhZgi8tiyLmoIGfVQieFA2NDEuP1CmSmT/hgidSwaKJ26FzZLEiUFgeQ/ZdE9ZAasFiTEUsRSqjHkVIijbfF4zFO4nfs869/mc9KwdcWO2x+cw21NANMg5WH4gsSOFvOWG3dJl7FBP5g6m9uamURFrbFtU2bGp+ybURaSah8Nau7ZqjcJlS7kntdRREgcVwFC7sIsu0shjtZ7u/Jk6doB2N2rrHdLl6+an2XX+OexVilsT3ge22o3VMp+H4kKXV4OyuGmrYEg1MSpJdff9Fe2XuRxWXO/vZ7bxEVPWADA+32gI99S6oiXjeOtKbAfS2v4XPXUGBBF7NOFnt9zZ02eOUV9z2M3/3tBmanevr1dL5V1xTI1MM+YP007fWCDoDrlyillaHvsFwpzzfEUYbqSxqjYygvDypQetRalwBfojFsuhEArGjgWrw5K30BWplaNusmy0AcgPJ6kcNR5QrwAjSbLsWKgeJeGs26Y9XXFsZgpr3nebx771oU6lDchAVgim8ZrLcugAFBhPpC4Yges7OzxVfWe7kfnCUnxlCXRqy3vR72Ycdefu4qrtporlB7BpBxKrrhh++/C1/62EaQLHzh5WuWxhKtHnXxpZ4+puotHBxHbHqN6R2P2o0V3OCRg0bCG9wZYiamyiAdpXFXzeJKcXbrqqtgGd5BFszXebDkWkIDuItqtxq2IAkApjBtlPhKK69KhP8SdT0eHoYqVtjA4HmmXi9uWYTZrK0uRQzcNsshVptdRPYqSzf44brGJupFeGYUNfD5oxML9s3f/7K9/OLnUBETin83g/km0z2sSTVGPjy0jQ3dQ1R33xPDIYuuwQ5YipPmtkb6bRsP6yEC7Y0QHKXGOrD9/dkHt7lFBgADM4HLVQZD/Cj8P9yWNcIvD3R1WGuyE6r/LH2BuSWSEb+/yoGp/lMHl6fp2AfpQT6d7nDgl9W5A4JX1+Uqz09z+Tr3+WVeKe/GzxeAHdug8gqBqcb1Kxmk+0eGqLJvbOOxBh6lFp8pbKqTHWA9HOqMVkSdqVcCr6cm9iiu0l0Jr3KpLLJFpAWZvWobfXjP+tA0bYbpoPiWXbjSbm2VjbAHlfbeg1+zYEJcTiAOidBam9tZqBA/tqbRGa7UdbTiNcC0TOeNDNGRUEuJ15royOus/FM1eL22RzBYP4eUY9cmHt10KuMiHgszKBEW04SJlnZK2jtGZQWsQoxpf2VtyzlQhpFaJGq6LLiMipZB29l1DmCw0CKkeRBPCPHFUic3cr3+rh7MIOW6n6fuDh4T1bAkafvtL73E4ihgIw9v2SzqbH2EsJ7FlidmwOIMnrOqBvvlWanS86iD59H8NdsWkg2mA4uysJWSJsZ9IChgBkGlzHPFrly39dmnNjE2ZsPYZ2wREeil179oj0fx+YMtSQHk8xcH8QjJ249+egOvZ88JU7NkG1rHPAO5iKZPM2t/ywBq9Deg3Cht5AGqjU7zes479X99MJWfez1Nefpam9/n7hgAur1rzct3gCBR4PSvo6oecEulhRv9AVqPEiOJcpTXXaSUiVjINabKAjF5ArAa8sOMOusx+AUtSOR16kRKAi+AdvJi5QFO1VWyxwuLRJduVnn8EyuiNJfKcTLZbH/9sz+z9dAl621o5u+cDa+NE9apm8gszdaZJEAyWrEajGx2mC630dXPTT5iMUKwD6hYMlkPn4d9LVROAZHXlhewaWhhZS67CclVzRa3Zqyz6ppz1qxEpOUUHLUNFlucxUt4BqUHcQ0IFjI8PGsRPCC2GShyS3Imo7BYMsfcSM/Z88+/BNjn7MUXLll+lSAk0wV7OjyOIT2mm04biMfv8iIfN+nD8KbDenrPsUiER69vwOoMuwfYgjCLxOlpgphA0WsI9RRsRoUMaNUngRASGAKYdHX1YEDTg5htFW1bGgqOsyeiw/zqNB3J/UhaMvMhIrImS9YRpIR1QVcnnsxVLU7K8Kt337O+6x22MLlkz1y9aLdGR7C5mIU9UVwzqDtUeX5ihXGBkyXKldaWXnv1c3/ILMfLUt95veMw4fVeqQ+9zMMyR5KFl1Jphx2OHRAO2zvSrl+GYg6guqpL8y7iKK7uQ9h2ZRDogrvQP/q933vT3YFrXdcgl837LTs6THD5LkcNqSwtajwJm7opL82VcMeORCvdZai8Kum/pgEGgM45U0zYhZUJvH6Z8gLdTn+/CR/20eNb1td+lUHANAeQdrE/qKKTZmcnnb1vGJPIprY2gJdzHg9BnCVz8KKtBIlTJzVjcINRmlvI7OVXrLGtj4g0q4BrmmkY662aJggOsmOCboShNiMjMyxmMAmEX7lw/RyivDXnXFmFEiW0v21Xr153wvoWFmZSEMyxYo/KgxjmcRfDcZltNrV3WntHh1299oy99NpvWgtGO/KmqKpllkhid4xMWt/UGIbvrEAa0UFZfexkHpFgFhGdrNXyWcR/ek+IBW/euu/65uKlAd4UtsiwJMnqBuTcWJDBz+PLTL7k19g1812KKCpovdNWPovVw/MuL2HIHpi1e/eHXbA+ieWckREL40oMiyIQohCzTUfHVbt65UWu6wOotKct72ZKfQd43D93g+o/Xc0r6/OoauMg3ctVIS+tVM9dh7aU7uqVCvjX91gFqgAwsTl7WltQV+lhyQ1DnLjCyP80jahdN/27C+icfJ8KU0lshPuDgoo71k1runEoVJryXSppLosfyimfbLcFHWgPSnl1yenvvkCUG6bl8LZzhc9k0GptLFkl9ruLC1AMBOvV8KUpeNfOji5LJ9FudZ633Rixw3Y2WHTwqaWffog8eI2FxkXrGhxA65XCSk1u60liH/BBJ9iCIj5kKXjfWliPGOxAenkYk78WFlvIPAlztEpk8+7Bdht87oo9vn0X8Z3ZbzLlX7v0HG5Anc7RMYWyIk0oqvH5J9Z1sc8+//JrllmbR7aLdRby3nrsbaur4UkZTPLRW5h6Yi0v/S7sAMFM4NWvYv97YXDQ3n3/l0g4FFdMHznh/UYJ+oxcOJnatKYWXMux+91GfLe4DPge3OMbHF+EB0XtwmuV8yT/XUCUHBINZ3AjSt7YBi9L38KqbDFgtyNrKERQn8PvJABsHvGciMEeJpLxFDGGEY0VsAdpb+l2/a1O8vrVdZe68cTmSwtchrBStqmuq6+0UpZw5E61L0sTaP0EhzXOD/aOkxBYPdAq3QM0PK/CdyqBMVv6h8UqIHOALgE2wIhU+wKwIscIrmIlBNJd9h5PrAtCRcUSUFbf5VW8XAdW0lVH7IVEVErf5U8bZ/opHWtlLzM81L3IT/dZdBWRHMh+UqWXUJ/GcEyM4rWQhqfbzCI6autCVppy2qcc7jEdnXUALYZL/DjqYbP5kac2R/3u1k7ulVChTNk52AkXzaa6G8rbwGodLRjfUrv3dNKGRmeZSnehaojk1hbsO//m29jOYgSEqrazlUiT2AIH9jOobVdgLYYQae3a8wSdW4UvnsW3TA6hy6P3sIgjHtnqu8hoz1nPwADXNb6d0W8LxMbdwrSxu/95pvOLsAkjxDEjdNJ9ot/wTw6fcuzM5JfkPIGsFT89IvhcvNhqL730ol2+chmWiQUtdg37LPT0TjVr7ECRYhVVxLDo4/7kzSE+l5kCh9YgeQqIUtgkzBTvJhPiq/KEnEpgSLSD9q2whSgQ9iOOIqOptctROK9H+PW6yd8dJAgz5ZvQ4/rSlSDvaLbjVVXeoeyAansp7pf2DgDrjinr9t4iTWyC44HZiwIrzy3YBCzOAIm3A7lqz6tMnvK9hrRI01AA6hBSpQmsTt7LtKMtKDLAy3TpDsAuVQwCaX55wEyeHlcP4wBOMRFvrYT0IZBGhOsbSB3yyEjVlmaWzs4eG517YCsI52XVf66ljbBHVxmJ8G90SjEG2FG9dhEIWR3D4t22iMWrICQdg8/bzNKQNSfboJytUOgsbjk4R+bmbXR53B4+HrMPbz3CHHGCEEf4aiGpmJzEPja2aV1IM668fg5LcwY1C7raRiLzIC9uxOIszECTdu8ys0ERO1tppN790XcIKzpNnK+LePVieARv3lrThpIF3hIbhM30nr339g9tDb72tefeAJDXCCgStB+//74DbCXy35AWi/RHE+uAzp5abCuSduXqeUR6uALxnvRBFL3yPYK1xGnTbbxfBRZU4L0YH9kuwis1Y6P7k/fu2RPCXn3hleu21QTvz8e+RyfW8TDGmRX5doyGpE1D+w7b0HUANLWp/infuxP/x8vy8gW0UtmDbD9feS6fnFI5djop/S/lO4CqiNeWL2koX6R5OATAzBqAFwU5qHW2DRyKcxCG1LikCLqGKkg0pUQnOeDQLeJ4aI18R1UlOkPsIp7EUV/SHTzFLahB16rXlkaoA6rL0Jn3z12U66CdtYcPH1jzOSIiZukQEtxNQ70mMcpJNVYSzK3fAgWstZYmrQ5N3aPbb9sUgUw28VW7nDxnnX3nMNyps3qCN8uWgl61fTyC1xHY7zGtZtcIynznHhHMu+zJ7QmAe5fF3zhsQMF9w2EBu1zNOJJ7zRFT7Dvffx8DoU6bQdIQgWeVCWlNXaPT5G2zENvcnOFaF+B9d+2rf/Cf45FxwQqBJCaTv+Bee+FLG3mH8mFDAwdfHd+qtql7H9hbb3/bztefJ+xUjfWda7WxBT7wtx+zZb4OP0+gvu7mbrt+/hqzxgYsCEbmWjzyNqWKDiDKE8XUtAv0oKDYNEM9RXxy+WXuaZVvHU/YD3/+oS2hiGkl3IC+W5ci0mRdNTYOyMlDMsQBCFuAV76EAoz+uT4qgUu9d2ITHBw6juX46W7v9bdXogRQAau0+UB0Sfxo71NV17oDc4lN0NVcGc/K0C3Yfvu3futN3YRA6G1e40orwdg16o7dVdQsmxo62JfqsHPcgMopv8Qa6KKull/HVffrlMrSmsrNzE4SS5dwS6NEbMSQW4EyisE1u9bzeRZ0cfvw5nuIu1L23JUvIqbaY+EWAVBPeeiiNXa2IGBvRoTWTV1kv6yYC1AoacSixLhNEAx6j9X1k6nb8LkszgDDXBbbYjqbYoRNzeDtAXhxiQFr1liHgQ6MpYyz5eqzhg1GF6rSsbkx2Aq+ZFnd4VFexBiFrVUPRKiURf3yxBQuMgsNDD5L+HzslAmdWswoKHUYufMoYAwRcO8KERlZ8RNbN1mLAoap4inBVL70xkuAEI8RHDy//ru/Z+e6u1igYfNAIGs4Cl4ljpQQDtlLKE5akWeXxUMIRYhjgCEnUkGO4zHy9+9+z9ZWsJmG2i4hxivgcTKIGac8T7QwjDJrSKMZY3APXLpqz7zwqnrV9YXXwe601H1eH/kgcvmlrtWx0h3/qmO/DY788uV7B9IySqt6SlNNV4488bY+mA/SGGjqCw0yx/Ny5Co5Cixqw4twVMcla3FGEpv3TV7xu4wQXp6jvlBPJ0YSSyDLNJ3z5wJUi8OAL9b85vPDXlkNBeiHKC//qakf/dIhAURhDQBAri4YxNS147aDLS43rUBv9fCHqre8tWTtLNRqiduQm0dbBuWvCSESY+UukMfgFcU7a/pUYD193zdfQOOE1qkKuejHYw8sRiTxfQx619d2cIuZBJAppvp+xFkp+7u/+z73RHScVCMmjrjmQ/XHCdy8s1PJJ0wHbHT+Iax4Arf7C4Ab88FYE0AiPgMSh3mo5z7y1zmo+7mqV1AD1yKLJdw/2r4Az/Dqa6+zgIPardMu4a12duP2/ke/tHkAHklCWbFdzsEuzU1vY1mWJiokLEQESzYGQwUiwDAUVyrnAtpFsWI7e1iHYbSvay+lVwitim8ei9zN9Ia18+215is9du82SgwUJIbh/iyfAqjDsCjAPSyhsZTRfgIR3Otf+i2vnwGOvwk0et/qG6Vq728OUP6JvxcIXUkvwdWnIpB0oFSqzwa44xL/6h2rjPIFTg/MqkeD7lyg9RduTtog4+eDDUZfFkeSDAhzakkjwi3eSheXatiFtBfIBUqQLcmBFnOaSp3dAw/rPCvYg2cHbl1DZX1wu5sqvRS9EUrqNomsCO+4h9U0fPMuC6c8RuKSJVPbjcI6SGJ1LZQG+4C9YB8SiQ1kwJ0suogUTuc0V8Nbrk/T8Q+QCLDShxitwiNLfLWI82dNss6m00RGh4TNEUwuW1yxmkg7VFkxfWNEfezEUOieszmQvUJPFze3HkMLpjhkOfuLf/f39s0//jpq2gHMCxfsuz+5YRfguy/2P8tgYy2ws4bUoh5xFPbCY0+sVRKQOe9D14n6TieD3s7MWU1TL0+cZrJnsYmUYPB6l9Vt1FtdJ+GdmH1ufTxsbd3Nth6ct3fv/pw2G1kwdrHQqiA0KuwRlH4HiivqmUvjnMmgkM3uEEoJDdSLA9eRiSN+w+l0mVhuit+2ittRBq8P9DFweAwkHq2IZ4a+3fH8i89hHNXteEn1lTa9dbcJUWwCrp/m+s+lHv44oB6eOsDp9CiAvfMDfrbUtl/GlyS4AaA8/ivNUdtyUIOJ0Bu/8eU33Q3pSdzm6CBHALB07t02JzTm/dNI5Midq32vjsr74hO3p0k3FZDhPVipbYk9yPPru3ZLU0YWJcBKEd+rxaz19w7YX3b9d3apnlWyeLiGZ+zPq75mg1s/wH+LqT3czaCJARoo1Nw06lA+dAclUmT0rY1lmt3D5O8uhueP8KSYwuqKsP64zkynJ3DhWXOuPFJTLRD2c20uYy9cvg5PCEi3xphW5XoUtd94Y5CFFkYs2DnIqVKsw8fIXJ/74lXraryEu3rK/uoHf24jo0/QohF+v3nQvv6g164xQww0EhGy4hn7HxYu2D8bxGMaRYSiUuex4ZDSZH5p1n59+4mNLAzZHNKTZgzeqxBhbcyvslg1+yf/9detrgMLuDBWYbuKhEMILHjdhxN3bWjiDoZAk1YFWdpc4rMA+Mdt4LrUgWo5hmIFg2D89bSwbHMshtTT62uLFkLlvE87ih4ZRTHRREyMKxfb7Ie/8S/tCmEGUgy2iXir/Y9LXfbV+IJ61IHcQaH04/VlOZRdMYcDftzmlSn1set//1hU1aOsKuhYA4FSbEIp/aAuaVLYKP0A1AdlAe/vfPWrb8p8UDpurZply+rCbkKB5XDn4ldBhkWR3TnWOV66qDNiNeX5+ezlSCiWQeWlgfPKsCddm19HzopKc3uV41hUW2Htp1dGXCCOgd6L1hZcsR9Ef4dFRsr+YqPD/llqyLLrH8MWEI070cW94PuFhi3LJ0gr4/iyoWZOYOxTz1RNCD/8zxgoWtygQu7vvUQQaRZP2E+sg44NFCAFDMXTE3mrjmDQja3vIs6cUgdX18TgEQuogNutt7PeWXkVUevKpageQDV01drHH7zDB0b67ELPII6aDXx7LWOPRh7Y6z0N9j9PtiJW67L/Y6LK/pdLtIO2LICoLs2gWs3OE+39rt25NWNDaM4WCSS9jTFSB14O1VG+GQzfLeXH3RsTdvF8NwvBVtgGvvnL+5sYH3Pvexu2YRnP377mXlbdAWtM9djOFv51GM40NXYyUOqd0kPu6wHMKhVZPU2M3yVCsragQKkm+mUMat3ZiyLluc/bSxg2/W+ztWgpk/avF1L237czg+CQ6WT2miFLfyJkbpFOX/lpbs+5SLPrR8p69YQFygkXylY+/e7Pzq6e2vPbYu+wRBm3uTpevn8fqk8jri2VcQTzP+X91/7Xv95/9rur+9r/p3yf5ff2/9/zf3xc/b8nyML9nf+jAgAAAABJRU5ErkJggg==;" vertex="1" parent="DZ-_d3KtzLlh04xcQ-5O-6">
          <mxGeometry x="2.5" y="25" width="175" height="175" as="geometry" />
        </mxCell>
        <mxCell id="DZ-_d3KtzLlh04xcQ-5O-64" value="Claim Genesis Keys" style="text;html=1;align=center;verticalAlign=middle;resizable=0;points=[];autosize=1;strokeColor=none;fillColor=none;fontSize=13;" vertex="1" parent="1">
          <mxGeometry x="472" y="736" width="140" height="30" as="geometry" />
        </mxCell>
        <mxCell id="DZ-_d3KtzLlh04xcQ-5O-70" value="Mint NFT.com Profile" style="text;html=1;align=center;verticalAlign=middle;resizable=0;points=[];autosize=1;strokeColor=none;fillColor=none;fontSize=11;" vertex="1" parent="1">
          <mxGeometry x="545" y="885" width="130" height="30" as="geometry" />
        </mxCell>
        <mxCell id="DZ-_d3KtzLlh04xcQ-5O-72" value="Mint NFT.com Profile" style="text;html=1;align=center;verticalAlign=middle;resizable=0;points=[];autosize=1;strokeColor=none;fillColor=none;fontSize=11;" vertex="1" parent="1">
          <mxGeometry x="660" y="975" width="130" height="30" as="geometry" />
        </mxCell>
        <mxCell id="DZ-_d3KtzLlh04xcQ-5O-74" value="Submits Signer Hash + Filter Reserved/Blacklist Profile URLs" style="text;html=1;align=center;verticalAlign=middle;resizable=0;points=[];autosize=1;strokeColor=none;fillColor=none;fontSize=12;" vertex="1" parent="1">
          <mxGeometry x="440" y="560" width="350" height="30" as="geometry" />
        </mxCell>
      </root>
    </mxGraphModel>
  </diagram>
</mxfile>
